<?xml version="1.0" standalone="no"?>
<!DOCTYPE svg PUBLIC "-//W3C//DTD SVG 1.1//EN" "http://www.w3.org/Graphics/SVG/1.1/DTD/svg11.dtd" >
<svg>
<metadata>
Created by FontForge 20110222 at Wed Jan 21 13:52:59 2015
 By deploy user
Copyright (c) Gophmann A.L., 2007. All rights reserved.
</metadata>
<defs>
<font id="MonikaScript" horiz-adv-x="400" >
  <font-face 
    font-family="Monika Script"
    font-weight="500"
    font-stretch="normal"
    units-per-em="1000"
    panose-1="2 0 6 5 2 0 0 2 0 3"
    ascent="800"
    descent="-200"
    x-height="380"
    cap-height="662"
    bbox="-543 -322 1528 781.381"
    underline-thickness="53"
    underline-position="-109"
    unicode-range="U+0020-FB02"
  />
<missing-glyph horiz-adv-x="280" 
 />
    <glyph glyph-name=".notdef" horiz-adv-x="280" 
 />
    <glyph glyph-name="space" unicode=" " horiz-adv-x="202" 
 />
    <glyph glyph-name="exclam" unicode="!" horiz-adv-x="305" 
d="M179 269l-17 -45l-12 -32q-5 -12 -9 -12t-4 5q0 2 0.5 3.5t1.5 5.5l14 32q5 11 12 33t13 44q2 7 3.5 12.5t3.5 14t5.5 22t9.5 36.5q11 46 20.5 80t18.5 59t17.5 42t17.5 30q33 44 68 44h9l-1 -3q26 -14 26 -46q0 -39 -34 -94q-8 -13 -17 -27t-20 -28q-1 -2 -6.5 -9.5
t-16.5 -21.5l-8 -11l-8 -10q-18 -24 -41 -55.5t-39 -54.5l-3 -3v-1q-1 -2 -2 -5t-2 -5zM33 33q0 21 12 49t30 48q22 25 44 25h4l-1 -3q18 -11 18 -34t-13.5 -51.5t-33.5 -48.5q-23 -23 -45 -23l1 3q-16 10 -16 35z" />
    <glyph glyph-name="quotedbl" unicode="&#x22;" horiz-adv-x="266" 
d="M226 334q11 55 22.5 99t21.5 64q21 43 54 43q4 0 8 -1l-1 -1q17 -11 17 -35q0 -17 -9 -37.5t-29 -50.5q-30 -43 -68 -90l-7 -8l-6 3v1l-5 3zM114 321l-5 3l1 10q11 55 22.5 99t21.5 64q22 43 54 43q5 0 8 -1zM216 538q16 -10 16 -35q0 -17 -9 -37.5t-29 -50.5
q-16 -23 -32 -45t-36 -45l-6 -8l-6 3z" />
    <glyph glyph-name="numbersign" unicode="#" horiz-adv-x="509" 
d="M431 134q-25 -37 -45.5 -62.5t-39 -41t-36 -22.5t-35.5 -7q-26 0 -41 14q-6 5 -9 12q-22 18 -22 58q0 10 1 23q2 13 4 24v-1q-38 -70 -67.5 -101t-58.5 -31q-21 0 -34 12q-9 8 -12 20q-14 21 -14 55q0 21 6.5 45.5t20.5 59.5q9 22 20.5 48.5t21.5 48.5l20 42l-6 -8l-6 -7
q-26 -32 -48.5 -66t-38.5 -66q-4 -6 -7 -6q-5 0 -5 5q0 3 7.5 18t18.5 33q14 23 32 48.5t33 43.5l15 18q10 12 18.5 23t10.5 16h87l-111 -239q-4 -9 -9 -20t-10 -22.5t-9.5 -22t-6.5 -16.5q-8 -21 -8 -30q0 -18 18 -18q12 0 27 10.5t29 27.5q18 23 40 60.5t39 73.5l20 42
l74 154h42l1 2h45l-125 -270l-10 -23q-17 -34 -17 -52q0 -26 28 -26q23 0 48.5 18t57.5 56q15 19 27 38q12 18 17 28q-14 21 -14 55q0 21 8.5 49.5t23.5 57.5q34 67 65 67q7 0 13 -5l-4 -4q4 -6 5 -10q1 -5 1 -13q0 -19 -13 -54q-5 -14 -13.5 -32t-18 -37t-19 -37t-16.5 -31
l-5 -8l-1 -2q4 -2 6.5 -2.5t7.5 -0.5q15 0 30.5 11.5t25.5 31.5q3 7 7 7q5 0 5 -6q0 -2 -2.5 -7t-5.5 -10q-27 -38 -60 -38q-7 0 -11.5 0.5t-9.5 3.5z" />
    <glyph glyph-name="dollar" unicode="$" horiz-adv-x="411" 
d="M163 252l-12 -6q10 3 19 3q12 0 21.5 -7t9.5 -17q0 -5 -4 -5q-3 0 -4 3l-3 3q-5 8 -12 8q-10 0 -26 -14q-14 -13 -25.5 -30.5t-20.5 -36.5t-14 -37.5t-5 -34.5q0 -41 29 -61l115 245l-2 2q-37 35 -53.5 64.5t-16.5 61.5q0 42 31 75q29 32 80 52q32 17 74 19l25 55l16 -1
l-26 -54l17 -4q8 -1 19 -5l30 63h15l-31 -68q25 -13 40 -36.5t15 -49.5q0 -15 -6.5 -29t-18 -24.5t-26.5 -17t-31 -6.5q-13 0 -23 4t-10 10q0 4 5 4h3l2 -2q6 -3 13 -3q9 0 18 7.5t16.5 18.5t12 25t4.5 28q0 32 -23 53l-91 -195l2 -2q26 -26 37 -38.5t19 -24.5
q22 -35 22 -77t-19.5 -78t-53.5 -57q-20 -11 -64.5 -26.5t-76.5 -15.5l-23 -51h-16l24 51q-11 2 -18.5 3.5t-17.5 5.5l-28 -60h-16l31 66q-18 10 -30 24q3 -5 7 -10q-49 48 -49 105q0 24 10 46.5t27 39.5t39.5 27.5t47.5 11.5zM181 6q25 1 47.5 13.5t40 31.5t27.5 43t10 50
q0 18 -6 33t-20 34l-2 3zM268 226q-6 7 -11.5 12.5t-11.5 12.5l-3 3l-113 -240q18 -8 37 -8zM389 516q-8 4 -17 6.5t-19 2.5l-81 -174q5 -7 10 -12.5t13 -12.5l3 -4zM337 525q-43 -6 -69.5 -34.5t-26.5 -68.5q0 -30 20 -59z" />
    <glyph glyph-name="percent" unicode="%" horiz-adv-x="560" 
d="M299 536l-6 -2q8 2 15 2q21 0 33 -15t12 -41t-11.5 -62.5t-31.5 -70.5h4q19 0 37 12q11 7 19.5 15.5t25.5 30.5l6 9l95 128h21l-402 -542h-21l259 348q-21 -13 -41 -13h-4q-2 0 -6 1q-29 -48 -58.5 -73t-56.5 -25q-22 0 -37 16q-21 14 -30 33.5t-9 49.5q0 37 16 72.5
t42 63.5t59.5 45t69.5 18zM470 293l-6 -2q8 2 15 2q26 0 44 -22t18 -54q0 -30 -13 -64t-38 -68q-29 -41 -64 -64.5t-65 -23.5q-26 0 -41 18l-2 2q2 -4 5 -8q-22 15 -31 34.5t-9 49.5q0 37 15.5 72.5t41.5 63.5t59.5 45t70.5 19zM512 237q0 21 -9 33.5t-24 12.5
q-18 0 -37 -18.5t-44 -60.5q-14 -24 -26.5 -48t-21.5 -46t-14 -39.5t-5 -28.5q0 -34 29 -34t62.5 33.5t59.5 89.5q14 29 22 57t8 49zM341 468q1 5 1 8v6q0 43 -32 43q-23 0 -47 -26.5t-57 -87.5q-20 -38 -32.5 -72t-12.5 -53q0 -17 7 -26.5t20 -9.5q47 0 104 90
q-19 13 -19 40q0 30 19.5 55.5t48.5 32.5z" />
    <glyph glyph-name="ampersand" unicode="&#x26;" horiz-adv-x="596" 
d="M279 297l-4 -2l22 9q-14 32 -19.5 52.5t-5.5 38.5q0 32 15 63q12 23 28 39q4 6 9 12q15 17 35 27t42 10q35 0 59.5 -23.5t24.5 -56.5q0 -54 -76 -102q-17 -11 -29.5 -17.5t-27.5 -12.5q3 -6 3 -8q3 -6 7 -15t15 -30q6 -15 14 -31q10 -20 18 -39t16 -37l3 -7q16 20 25 44
t9 46q0 36 -31 52q-7 3 -7 7q0 6 8 6q12 0 23.5 -6t20.5 -15.5t14.5 -22t5.5 -24.5q0 -49 -63 -101q11 -26 15.5 -46.5t4.5 -40.5q0 -41 -15.5 -78t-44 -66.5t-68 -50t-87.5 -28.5l5 2q-32 -11 -64 -11q-29 0 -48.5 18t-19.5 46q0 13 6 13t6 -9q1 -26 16.5 -41t41.5 -15
q33 0 69 21t63 56q48 61 52 141q-32 -35 -66.5 -53.5t-65.5 -18.5q-22 0 -41 8l-14 8q2 -2 5 -4q-38 12 -60 41.5t-22 71.5q0 31 13.5 60.5t37.5 53.5t56.5 41t70.5 25zM302 293q-28 -15 -53 -39t-43.5 -53t-29.5 -60t-11 -59q0 -36 18 -57.5t48 -21.5t67 21.5t65 55.5
q-1 32 -9 66.5t-25 76.5l-24 61q-1 1 -1 3q-1 2 -1 3t-1 3zM347 345q45 26 70.5 62t25.5 70q0 25 -14 41.5t-35 16.5q-14 0 -27.5 -8.5t-24 -22t-16.5 -32t-6 -37.5q0 -20 6.5 -42t20.5 -48z" />
    <glyph glyph-name="quotesingle" unicode="'" horiz-adv-x="155" 
d="M215 542q16 -10 16 -35q0 -17 -9 -37.5t-29 -50.5q-16 -23 -32 -45t-36 -45l-6 -8l-4 2l-1 -2l-6 3l2 10q11 55 22.5 99t21.5 64q22 43 54 43q3 0 6 -1z" />
    <glyph glyph-name="parenleft" unicode="(" horiz-adv-x="259" 
d="M418 666q4 0 4 -4q0 -3 -5 -8q-42 -39 -82.5 -92.5t-76.5 -114t-66.5 -126t-53 -129.5t-35 -124t-12.5 -109v-5q0 -6 -4 -6q-2 0 -4 5q-2 10 -3.5 31t-1.5 41q0 216 115 395q20 32 46 65.5t54.5 65t58 59.5t57.5 50l4 3q3 3 5 3z" />
    <glyph glyph-name="parenright" unicode=")" horiz-adv-x="293" 
d="M289 658q2 0 3 -3t1 -14v-7q0 -37 -1 -64t-2.5 -50t-4.5 -43.5t-7 -43.5q-17 -100 -58 -183t-112 -162q-14 -15 -30.5 -32.5t-34 -35t-34.5 -33.5t-32 -28q-5 -3 -7 -3q-4 0 -4 4q0 2 3 4l2 2q31 29 58 62t57 78q23 35 41.5 66.5t34 61.5t28.5 60.5t25 64.5q31 87 47 154
t22 133l1 5q0 7 4 7z" />
    <glyph glyph-name="asterisk" unicode="*" horiz-adv-x="336" 
d="M431 619l-73 -79l76 -12l-92 -19l27 -86l-53 63l-66 -101l27 97l-95 -53l79 82l-79 16l97 17l-20 87l51 -63l62 92l-28 -92z" />
    <glyph glyph-name="comma" unicode="," horiz-adv-x="229" 
d="M117 158q16 -12 16 -37q0 -14 -6 -33.5t-16.5 -41.5t-25 -44t-30.5 -42q-20 -23 -40 -37.5t-34 -14.5q-8 0 -8 5q0 4 8 7q21 6 37 23.5t32 52.5q-2 1 -3.5 1.5t-3.5 1.5v1q-15 11 -15 34q0 22 12 49.5t29 47.5q22 25 44 25h3z" />
    <glyph glyph-name="hyphen" unicode="-" horiz-adv-x="385" 
d="M128 237q20 -2 37 -3t37 -1q30 0 57 1.5t59 6.5q-9 -14 -16 -25t-16 -28l-4 -8h-6h-40h-14h-13q-18 0 -46.5 -1.5t-57.5 -3.5l-9 -1q11 19 17.5 31.5t14.5 31.5z" />
    <glyph glyph-name="hyphen" unicode="&#xad;" horiz-adv-x="385" 
d="M128 237q20 -2 37 -3t37 -1q30 0 57 1.5t59 6.5q-9 -14 -16 -25t-16 -28l-4 -8h-6h-40h-14h-13q-18 0 -46.5 -1.5t-57.5 -3.5l-9 -1q11 19 17.5 31.5t14.5 31.5z" />
    <glyph glyph-name="period" unicode="." horiz-adv-x="237" 
d="M118 158q18 -10 18 -35q0 -23 -13 -51.5t-33 -48.5q-11 -11 -23 -17t-22 -6l-1 -2q-16 12 -16 35q0 21 12 49t29 48q22 25 44 25h3z" />
    <glyph glyph-name="slash" unicode="/" horiz-adv-x="273" 
d="M320 594l-248 -639h-19l248 639h19z" />
    <glyph glyph-name="zero" unicode="0" horiz-adv-x="410" 
d="M342 536l-4 -2q19 8 33 8q21 0 33 -20q17 -28 18.5 -58.5t1.5 -56.5q0 -63 -24 -133.5t-69 -133.5q-35 -51 -72.5 -83.5t-85.5 -53.5l-6 -3q-20 -9 -36 -9q-28 0 -44 25q-11 15 -18.5 28.5t-12 28.5t-7 33.5t-2.5 42.5q0 25 6.5 54t18.5 60t29 61.5t37 57.5
q42 57 94.5 96.5t109.5 57.5zM398 486q0 45 -29 45q-24 0 -56.5 -36t-78.5 -117q-64 -112 -97 -194.5t-33 -133.5q0 -47 33 -47q10 0 23 7t26 19q12 10 22 22t21 28t23.5 37.5t28.5 50.5q15 28 27 51t21.5 44.5t18.5 43.5t18 48q17 45 24.5 77.5t7.5 54.5z" />
    <glyph glyph-name="one" unicode="1" horiz-adv-x="330" 
d="M428 535q-8 -15 -15.5 -31.5t-22.5 -50.5l-24 -56l-57 -132q-33 -77 -59 -140t-48 -118l-3 -7h-118q12 19 22.5 36.5t22.5 38t25.5 46t31.5 60.5q24 46 42 82t33 65.5t27.5 55.5t25.5 53l4 10q-33 -48 -72.5 -92.5t-79.5 -81.5t-78 -63.5t-68 -37.5l30 60q36 12 70 34.5
t75 60.5q29 27 59.5 60t54.5 65q14 18 22 29.5t18 28.5h10q12 0 27 3l2 4q14 5 23.5 11t24.5 18z" />
    <glyph glyph-name="two" unicode="2" horiz-adv-x="425" 
d="M387 530q37 -15 57.5 -47.5t20.5 -75.5q0 -84 -70 -138.5t-208 -77.5l-5 -1q-6 -2 -12 -5q-17 -6 -34 -13q-47 -20 -72.5 -36.5t-42.5 -38.5q22 12 43 17.5t47 5.5q13 0 32 -1.5t38 -3.5q11 -2 29 -3.5t41 -4.5q21 -2 32.5 -3t21.5 -1q33 0 50 17t27 62q3 8 7 8q5 0 5 -8
q0 -6 -3 -18t-8 -23q-12 -28 -31 -48l5 5q-26 -44 -59 -68.5t-67 -24.5q-22 0 -42 10t-46 34q-17 16 -29 26t-21.5 16t-17.5 8t-17 2q-11 -3 -22 -8q-20 -10 -34 -27q-7 -8 -14 -23t-15 -40q-3 -9 -7 -9q-5 0 -5 6q0 4 4 16.5t11 28.5q9 24 21 42.5t28 33.5t37 28t49 26
q17 8 37.5 17.5t31.5 14.5q36 17 62.5 33t47 34t37 40.5t32.5 51.5q32 61 32 103q0 27 -13.5 44t-35.5 17q-59 0 -124 -85q-32 -41 -51 -81.5t-19 -68.5q0 -32 29 -32q20 0 45 17t46 46q17 22 25.5 44t8.5 40q0 19 -11 28q-3 2 -3 5q0 4 4 4q8 0 14.5 -11t6.5 -26
q0 -37 -29 -80q-25 -38 -55 -58.5t-60 -20.5q-29 0 -48 21t-19 54q0 38 22 76.5t56.5 69.5t77.5 50.5t85 19.5q28 0 48 -17q-2 3 -4 5z" />
    <glyph glyph-name="three" unicode="3" horiz-adv-x="404" 
d="M301 279q34 -14 52.5 -41.5t18.5 -64.5q0 -39 -22 -78.5t-58 -62.5q-47 -32 -90.5 -36t-71.5 -4q-24 0 -45.5 9.5t-37.5 25.5t-25.5 37.5t-9.5 45.5q0 30 14.5 60t37.5 54t52.5 39t58.5 15q28 0 44 -18t16 -50q0 -24 -8.5 -47t-22.5 -40.5t-32 -28.5t-37 -11
q-12 0 -20.5 4t-8.5 10q0 5 5 5q1 0 5 -2q9 -5 19 -5q16 0 32 10t28.5 26t20 37t7.5 42q0 25 -10.5 39.5t-28.5 14.5q-23 0 -47 -24q-17 -16 -31 -36t-24.5 -41.5t-16 -43t-5.5 -40.5q0 -34 19 -55t50 -21q33 0 62 22t58 70q10 17 19.5 37t17 39.5t11.5 36.5t4 29
q0 42 -45 48q-24 3 -28.5 4.5t-4.5 6.5q0 6 6 6h4l24 -3q4 -1 12 -1q19 0 38.5 10t35.5 27q12 13 21.5 29.5t17 34.5t11.5 35.5t4 32.5q0 28 -14 46t-35 18q-48 0 -91 -64q-17 -26 -27 -52t-10 -45q0 -26 21 -26q10 0 24 8t26 20q13 14 20.5 30t7.5 31q0 11 -7 22q-3 4 -3 6
q0 5 4 5q6 0 11.5 -11t5.5 -22q0 -18 -8.5 -35.5t-22 -32t-30 -23.5t-33.5 -9q-23 0 -39 19t-16 46q0 25 14.5 51t38 46.5t52.5 33.5t58 13q20 0 37 -8l-1 2q78 -28 78 -96q0 -32 -17.5 -63.5t-46.5 -51.5q-36 -26 -94 -33l-12 -4q9 -7 17 -14z" />
    <glyph glyph-name="four" unicode="4" horiz-adv-x="464" 
d="M91 242q25 21 43.5 38.5t33.5 34t27.5 34t25.5 38.5q15 25 31.5 57t27.5 59q4 9 6.5 16t6.5 21q21 -7 38 -7h5h4l1 3q23 3 37.5 9t31.5 18q-88 -215 -261 -308l-58 -30q-26 -14 -47 -37q15 5 28 7t30 2q20 0 48 -1.5t48 -4.5l46 -5q1 0 3 -0.5t7 -0.5q10 16 21 39.5
t34 70.5q17 35 26.5 57t18.5 44q11 -3 19.5 -4t20.5 -2l-1 -1q16 5 28.5 12.5t30.5 23.5q-8 -16 -17 -35t-24 -54l-34 -80l-28 -66q-1 -2 -1.5 -4t-2.5 -5q4 -1 6 -1h5q16 0 32 6.5t27 17.5q11 10 17.5 22.5t16.5 39.5q3 7 7 7t4 -5t-11 -32q-43 -106 -122 -108
q-6 -13 -13 -29.5t-13.5 -34t-12 -34.5t-9.5 -30h-69v1h-61q21 30 40 62.5t40 72.5l5 8q-19 5 -35 9t-41 12q-32 10 -50.5 14t-31.5 4q-27 0 -45 -15t-31 -49q-3 -6 -6 -6q-7 0 -7 6q0 4 3.5 11.5t9.5 17.5t13 20.5t14 19.5q12 14 26.5 26t37.5 28z" />
    <glyph glyph-name="five" unicode="5" horiz-adv-x="385" 
d="M268 350q45 -11 69.5 -46.5t24.5 -88.5q0 -41 -16.5 -78.5t-45 -67t-67 -49t-81.5 -23.5q2 1 3 2q-23 -8 -45 -8q-45 0 -74.5 32t-29.5 82q0 27 11.5 52.5t31 45t45 31t52.5 11.5q29 0 46 -18.5t17 -50.5q0 -21 -7.5 -40t-19.5 -34t-28 -24t-33 -9q-14 0 -23.5 8.5
t-9.5 22.5q0 6 4 6q3 0 4 -6q5 -20 25 -20q15 0 29 8.5t25 22t17.5 31t6.5 36.5q0 23 -12 38.5t-29 15.5q-45 0 -87 -77q-28 -49 -28 -91q0 -28 17.5 -45t46.5 -17q52 0 97 57q38 50 61.5 108t23.5 104q0 32 -15 52t-40 20q-21 0 -45 -11t-41 -28q-17 -18 -17 -32v-6h-6
q-24 0 -24 14q0 5 2.5 11t6.5 11l35 55q32 50 60 112q8 17 12 27.5t8 24.5q25 -4 62.5 -6.5t72.5 -2.5q37 0 56 4t30 14q4 3 6 3t2 -3q0 -5 -5 -15t-13 -17l-6 -6q6 4 12 9q-12 -24 -24 -39.5t-26.5 -24.5t-33 -12.5t-43.5 -3.5q-16 0 -32 0.5t-30 1.5l-45 5h-8l-59 -115
q50 41 94 41q22 0 40 -9q-4 3 -7 5z" />
    <glyph glyph-name="six" unicode="6" horiz-adv-x="388" 
d="M288 362q75 -17 75 -102q0 -44 -24.5 -91t-61 -85.5t-78 -63.5t-74.5 -25q-18 0 -34 13.5t-28 34.5t-19 46.5t-7 48.5q0 39 14.5 81t40.5 83.5t61.5 80.5t77.5 71q18 14 42 30t49.5 30t51.5 23t49 9q29 0 45.5 -15.5t16.5 -43.5q0 -19 -8.5 -35.5t-22.5 -29t-33.5 -20
t-40.5 -7.5q-12 0 -21.5 3t-9.5 8q0 4 4 4l4 -1q9 -3 17 -3q15 0 29.5 9.5t26.5 24t19.5 30.5t7.5 29q0 35 -34 35q-23 0 -51 -16t-57.5 -43.5t-57.5 -65.5t-51 -81q32 35 66 35q10 0 19 -3zM299 312q0 18 -8 29t-21 11q-43 0 -91 -76q-15 -25 -30.5 -57.5t-27.5 -65
t-19.5 -61.5t-7.5 -46q0 -18 8 -29t22 -11q16 0 36 18.5t42 50.5t43 74.5t38 91.5q8 24 12 40t4 31z" />
    <glyph glyph-name="seven" unicode="7" horiz-adv-x="362" 
d="M283 256q57 0 83 24q17 14 17 30v6q0 6 4 6q6 0 6 -12q0 -22 -24 -41q-29 -24 -92 -24h-11q-21 -25 -38 -53.5t-39 -74.5q-18 -38 -29 -65.5t-16 -51.5h-110q12 33 31 67.5t42 67t50 62t55 52.5q-29 -1 -56 -10t-47 -24t-32 -34t-12 -40q0 -7 3 -16q1 -1 1 -4q0 -4 -4 -4
q-7 0 -13 13.5t-6 27.5q0 22 11.5 41t32 33t49 21.5t62.5 7.5q6 0 10.5 -0.5t12.5 -0.5q8 8 16 14.5t21 15.5q6 4 11.5 8t14 10.5t22 16t36.5 24.5q25 17 42.5 30.5t30 25.5t20.5 23t14 24q-27 -23 -55 -33.5t-64 -10.5q-26 0 -45 3l-53 9q-20 3 -40 3q-35 0 -53.5 -13
t-32.5 -48q-2 -5 -5 -5q-4 0 -4 5t6 19.5t14 26.5q6 10 12 18.5t13 15.5q54 87 112 87q12 0 27 -5.5t30 -14.5q7 -5 16 -13t26 -25q16 -15 27.5 -21.5t24.5 -6.5h8.5t10.5 2q17 9 27 22q17 23 20 62q1 9 6 9t5 -8q0 -45 -24.5 -87.5t-69.5 -75.5l-14 -10q1 0 2 1l-11 -11
l-44 -39q-14 -12 -25.5 -24t-25.5 -28h10z" />
    <glyph glyph-name="eight" unicode="8" horiz-adv-x="379" 
d="M271 316q32 12 53.5 27t40.5 39q24 29 36.5 61t12.5 62q0 38 -22 62.5t-57 24.5q-34 0 -54 -23q-4 -5 -7 -5q-4 0 -4 5q0 3 6 11q22 24 60 24q24 0 45 -10.5t37.5 -28t26 -41t9.5 -49.5q0 -44 -24 -81t-67 -60q-18 -9 -37.5 -16t-45.5 -12q19 -26 32 -45t20.5 -35.5
t10.5 -31t3 -29.5q0 -32 -12 -60.5t-34 -50.5t-53 -36.5t-68 -19.5q6 2 11 5q-27 -11 -54 -11q-25 0 -47 9.5t-38 26t-25 39t-9 48.5q0 119 170 167q-21 29 -30 50.5t-9 46.5q0 50 36 89q32 36 83 52l4 2q24 12 49 12q27 0 44.5 -14.5t17.5 -38.5q0 -17 -11 -32t-23 -15
q-5 0 -5 4q0 3 4 6q24 8 24 37q0 19 -13.5 30.5t-34.5 11.5q-18 0 -34.5 -9.5t-29.5 -25t-20.5 -36t-7.5 -42.5q0 -23 9.5 -45.5t30.5 -48.5zM194 273q-27 -12 -51 -32.5t-42 -46t-28.5 -54t-10.5 -55.5q0 -37 20 -59.5t52 -22.5q24 0 46 12t39 31.5t27 45t10 52.5
q0 30 -13.5 58.5t-48.5 70.5z" />
    <glyph glyph-name="nine" unicode="9" horiz-adv-x="393" 
d="M181 177q-37 8 -56 33t-19 66q0 40 19.5 87t51.5 85q29 35 63 56.5t76 32.5q-18 -11 -33 -24q10 8 19 14q24 15 45 15q27 0 42 -24l3 -5l-2 6q24 -23 35 -50.5t11 -64.5q0 -51 -25 -108t-67 -109.5t-99 -96.5q-46 -36 -96 -61q-8 -5 -15 -10q-44 -27 -83 -27
q-29 0 -46 16t-17 44q0 19 8 35.5t22 29.5t32.5 20.5t39.5 7.5q14 0 24 -3.5t10 -8.5q0 -4 -5 -4l-1 1h-4l-2 1q-4 0 -7 0.5t-5 0.5q-15 0 -28.5 -7.5t-24 -19.5t-17 -27.5t-6.5 -31.5q0 -20 8.5 -31t24.5 -11q21 0 48.5 16.5t56 44.5t55.5 66t49 80q-31 -35 -66 -35
q-15 0 -27 6q4 -3 8 -5zM377 490q0 41 -31 41q-20 0 -39 -18t-44 -60q-9 -15 -20 -35.5t-21 -42.5t-19 -43t-15 -38q-14 -45 -14 -65q0 -41 29 -41q41 0 90 75q7 12 16.5 31t19.5 41t19 44.5t15 41.5q8 23 11 39t3 30z" />
    <glyph glyph-name="colon" unicode=":" horiz-adv-x="237" 
d="M117 154q18 -10 18 -35q0 -23 -13 -51.5t-33 -48.5q-23 -21 -44 -22l-1 -2q-16 12 -16 35q0 22 12 49.5t29 47.5q22 25 44 25h3zM223 382q18 -11 18 -35q0 -20 -8.5 -41.5t-22 -39.5t-30.5 -30q-15 -11 -29 -12v-1q-17 11 -17 34q0 22 12 49.5t29 47.5q23 26 44 26h3z
" />
    <glyph glyph-name="semicolon" unicode=";" horiz-adv-x="237" 
d="M131 119q0 -14 -6 -33.5t-16.5 -41.5t-25 -44t-30.5 -42q-20 -23 -40 -37.5t-34 -14.5q-7 0 -7 5t7 7q21 6 37 23.5t32 52.5q-2 1 -3.5 1.5t-3.5 1.5l1 3q-14 12 -14 34t12 49.5t29 47.5q22 25 44 25h5l-1 -2q14 -12 14 -35zM130 257q0 22 12 49.5t30 47.5q23 26 43 26h5
l-1 -1q18 -11 18 -34q0 -20 -8.5 -41.5t-22 -39.5t-30 -30t-31.5 -12l1 1q-16 11 -16 34z" />
    <glyph glyph-name="semicolon" unicode="&#x37e;" horiz-adv-x="237" 
d="M131 119q0 -14 -6 -33.5t-16.5 -41.5t-25 -44t-30.5 -42q-20 -23 -40 -37.5t-34 -14.5q-7 0 -7 5t7 7q21 6 37 23.5t32 52.5q-2 1 -3.5 1.5t-3.5 1.5l1 3q-14 12 -14 34t12 49.5t29 47.5q22 25 44 25h5l-1 -2q14 -12 14 -35zM130 257q0 22 12 49.5t30 47.5q23 26 43 26h5
l-1 -1q18 -11 18 -34q0 -20 -8.5 -41.5t-22 -39.5t-30 -30t-31.5 -12l1 1q-16 11 -16 34z" />
    <glyph glyph-name="equal" unicode="=" horiz-adv-x="173" 
d="M298 542l-402 -542h-20l401 542h21z" />
    <glyph glyph-name="question" unicode="?" horiz-adv-x="494" 
d="M362 643q-30 -14 -58 -37q21 16 42 27q37 19 71 19q16 0 30 -6l-3 3q49 -18 74.5 -50t25.5 -74q0 -29 -12 -57.5t-33 -51.5q-12 -12 -23.5 -21.5t-26.5 -19t-36 -19.5t-52 -24q-23 -11 -41 -19q-14 -6 -29 -14q-53 -49 -53 -79q0 -6 4 -16l3 -4q1 -2 1 -5q0 -5 -5 -5
t-10 9t-5 20q0 10 3 20t11.5 21.5t22.5 27t37 37.5q48 46 79.5 84.5t52.5 75.5q17 30 26.5 57.5t9.5 45.5q0 23 -14 37.5t-37 14.5q-62 0 -126 -73q-17 -20 -33 -44.5t-29 -48.5t-20.5 -45t-7.5 -34q0 -31 27 -31q23 0 51.5 19t46.5 48q10 16 15.5 32.5t5.5 30.5
q0 10 -1.5 16.5t-6.5 15.5q-2 4 -2 5q0 5 5 5q7 0 12.5 -13.5t5.5 -27.5q0 -24 -12.5 -49.5t-31.5 -46.5t-43 -34.5t-46 -13.5q-19 0 -31 14l-6 10q0 -1 1 -2q-18 24 -18 58q0 32 15 64.5t40.5 61.5t60 51.5t73.5 34.5zM219 156l2 -1h1l-1 -1q16 -10 16 -33t-13 -51.5
t-33 -48.5q-11 -11 -23 -17t-23 -6l1 2q-14 11 -14 33q0 21 12 49t29 48q22 25 44 25h1z" />
    <glyph glyph-name="at" unicode="@" 
d="M33 667h334v-667h-334v667zM360 7v653h-320v-653h320z" />
    <glyph glyph-name="A" unicode="A" horiz-adv-x="800" 
d="M499 352q25 45 47.5 81.5t44.5 67.5q28 34 56 63t59.5 50t67.5 33t81 12q37 0 70 -10t51 -27q4 -4 4 -8q0 -5 -4 -5q-2 0 -4 2l-2 2q-9 9 -22 9q-11 0 -19.5 -7t-21.5 -24q-8 -12 -20.5 -33.5t-26.5 -45.5q-14 -27 -30.5 -60.5t-36.5 -76.5l-10 -23h47q9 0 9 -5
q0 -7 -9 -7h-53q-3 -8 -5 -11.5t-2 -4.5l-47 -102q-6 -13 -14.5 -33.5t-18 -42t-18 -42t-14.5 -34.5q-8 -19 -10.5 -29.5t-2.5 -18.5q0 -24 24 -24q22 0 39.5 18t40.5 66l27 56l20 40q4 8 5.5 12t6.5 4t5 -5l-2 -6l-3 -6q-1 -2 -6.5 -13.5t-14.5 -29.5q-2 -4 -8.5 -18
t-17.5 -38q-23 -51 -44.5 -72t-47.5 -21q-20 0 -35.5 11.5t-26 29t-15.5 38t-5 39.5q0 35 20 88t62 131l10 18h-135l-5 -14q-23 -56 -43.5 -98.5t-40.5 -74.5t-40.5 -55t-42.5 -40q-28 -20 -53.5 -32t-61.5 -20l4 2t4 3q-33 -16 -64 -16q-42 0 -68.5 23t-34.5 65
q-15 33 -15 74q0 104 64 184q20 26 45.5 48t54.5 38.5t60 26t62 9.5q35 0 57 -21t22 -56q0 -8 -1 -15t-3 -19h55zM441 340q-12 -41 -32.5 -76t-46 -60t-54.5 -39t-58 -14q-27 0 -45 14t-18 36q0 13 8 24t17 11q6 0 6 -5q0 -4 -3 -5l-2 -2q-14 -8 -14 -23q0 -17 14.5 -27.5
t38.5 -10.5q26 0 53 14t51 38t43 56t29 69h-69q-11 0 -11 6t11 6h72q3 14 4 20.5t1 14.5q0 29 -18.5 47t-47.5 18q-27 0 -58 -18t-69 -60q-30 -31 -54.5 -66.5t-42.5 -72.5t-27.5 -72t-9.5 -65q0 -40 25.5 -66t65.5 -26q30 0 58.5 15.5t61.5 52.5t73 98t91 151l10 17h-53z
M940 631q-23 10 -43 13.5t-43 3.5q-48 0 -94 -19.5t-78 -54.5q-16 -17 -29.5 -35t-28 -41t-31 -55t-38.5 -78l-6 -13h136l9 16q36 63 63.5 105.5t53 71.5t50 46.5t54.5 29.5q-2 -2 -4.5 -4t-4.5 -4q8 6 16 10t18 8z" />
    <glyph glyph-name="B" unicode="B" horiz-adv-x="788" 
d="M608 303q11 -4 24 -11q38 -14 59.5 -46t21.5 -76q0 -35 -13.5 -67t-36.5 -56t-53.5 -38t-64 -9t-50 23.5t-16.5 49.5q0 18 6 36t15.5 32t21.5 22.5t25 8.5q8 0 8 -6q0 -5 -8 -5q-11 -1 -21.5 -9t-18.5 -20.5t-12.5 -28.5t-4.5 -32q0 -22 9 -35t25 -13q19 0 41 20.5
t43 56.5q18 32 28 64.5t10 58.5q0 62 -55 78q-2 -1 -6 -1l-10 -3h-12q-17 0 -17 10t14 10q5 0 13 -3l11 -2l7 -2h4q14 0 32 11t35 30q26 30 41.5 70.5t15.5 82.5q0 31 -11.5 56.5t-32 44t-49.5 28.5t-64 10q-64 0 -133 -40.5t-129 -113.5q-48 -58 -74.5 -119.5t-26.5 -110.5
q0 -67 49 -67q59 0 120 94q26 38 39.5 74t13.5 62q0 25 -10.5 40t-29.5 15q-15 0 -28 -16q-4 -4 -7 -4q-5 0 -5 5q0 6 11 15q14 11 29 11q23 0 37.5 -18t14.5 -47q0 -38 -23.5 -88.5t-62.5 -95.5q-60 -69 -121 -69q-24 0 -43 14q-65 34 -65 125q0 32 10.5 66t30 67t47.5 64
t63 57q51 38 105.5 58t112.5 27q-1 0 -1 -0.5t-1 -0.5q37 8 69 8q41 0 76 -12t62 -33q43 -25 65.5 -59t22.5 -77q0 -116 -153 -165q-5 -2 -9.5 -3.5t-9.5 -2.5zM265 -2q2 1 3 1t3 1q-34 -8 -66 -8q-30 0 -55 6t-44 17t-29.5 25.5t-10.5 31.5q0 12 5.5 22.5t11.5 10.5
q5 0 5 -5q0 -2 -3 -6q-5 -6 -6.5 -10t-1.5 -11q0 -29 34 -48.5t84 -19.5q38 0 68.5 15t60.5 48q11 13 25 32.5t29 45.5q8 13 14.5 25t18.5 35l36 69q23 45 42 79.5t36.5 60.5t33.5 44t33 30q29 26 63 26q16 0 27 -9t11 -23q0 -8 -3 -14.5t-7 -6.5q-6 0 -6 6q0 -3 2 5l2 10
q0 9 -7.5 15t-18.5 6q-38 0 -69 -49q-7 -11 -15.5 -31.5t-16.5 -46.5q-5 -13 -11.5 -36.5t-15.5 -56.5q-9 -35 -16.5 -59.5t-14 -43t-13 -32.5t-13.5 -27q-34 -58 -88 -91t-117 -33z" />
    <glyph glyph-name="C" unicode="C" horiz-adv-x="684" 
d="M314 237q-30 6 -57 20h1q-38 18 -62 62.5t-24 101.5q0 43 15.5 81.5t42 67t61.5 45.5t75 17l8 -0.5t14.5 -1.5t8.5 -1.5t-8 -1.5q21 -5 34 -19t13 -34q0 -23 -16 -40t-37 -17q-15 0 -26.5 9.5t-11.5 21.5q0 5 5 5t5 -4l2 -4q5 -17 26 -17q17 0 29.5 13.5t12.5 33.5
t-13.5 31.5t-34.5 11.5q-25 0 -55 -19.5t-56 -54.5q-58 -73 -58 -157q0 -58 27.5 -94t79.5 -45q16 82 48.5 145t86.5 123q54 58 112.5 92.5t116.5 44.5q20 5 34 5q28 0 44.5 -17t16.5 -47v-5q0 -48 -17 -94t-47 -86t-71.5 -71.5t-90.5 -50.5q-64 -38 -139 -47
q-25 -78 -25 -152q0 -42 17 -64t47 -22q28 0 53.5 19t52.5 64q40 61 40 111q0 22 -11.5 35t-30.5 13q-20 0 -34.5 -16t-14.5 -37q0 -17 13 -27q4 -3 4 -5q0 -5 -4 -5q-8 0 -16 12t-8 26q0 27 19 45.5t47 18.5q35 0 58 -25t23 -64q0 -33 -16.5 -64.5t-43 -56t-60.5 -40
t-69 -15.5t-61 20t-43.5 51t-26 67t-8.5 69q0 9 0.5 17t2.5 22zM411 252q44 6 75.5 20t68.5 43q49 38 95 92t79 114q17 31 24 49t7 33q0 20 -13 32t-33 12q-36 0 -79.5 -34t-86.5 -89.5t-79.5 -126.5t-57.5 -145z" />
    <glyph glyph-name="D" unicode="D" horiz-adv-x="827" 
d="M298 49q14 12 27 27t27.5 36t30.5 50t36 68q20 37 35 65t26 48q34 61 64.5 98t65.5 57q27 21 52 21q17 0 28 -8.5t11 -22.5q0 -6 -2 -10.5t-5 -4.5q-5 0 -5 5l1 1v4q1 1 1 6q0 9 -7.5 14.5t-18.5 5.5q-13 0 -27.5 -7.5t-25.5 -20.5q-20 -25 -36.5 -63t-35.5 -104
q-13 -44 -21 -71.5t-13.5 -45t-10 -28.5t-10.5 -23q-25 -51 -54.5 -79t-78.5 -46q14 -6 23.5 -8t23.5 -2q60 0 119.5 38.5t107.5 107.5q25 36 45.5 77.5t35.5 83.5t23 82t8 74q0 78 -41 122.5t-113 44.5q-35 0 -72 -11t-73.5 -31.5t-70.5 -49.5t-62 -65q-45 -57 -71 -117
t-26 -111q0 -31 12.5 -48t34.5 -17q25 0 54.5 22t58.5 64q30 42 46.5 82.5t16.5 72.5q0 49 -35 49q-9 0 -16.5 -4.5t-15.5 -16.5q-3 -5 -6 -5q-4 0 -4 5q0 3 5 11q15 20 37 20q21 0 33.5 -16t12.5 -42q0 -32 -13.5 -70t-39.5 -76q-35 -54 -73 -82.5t-73 -28.5h-10t-10 2
q-12 2 -27 9.5t-28.5 22t-23 36t-9.5 52.5q0 39 13.5 79t39 77.5t61 71.5t79.5 61q57 34 114.5 49.5t127.5 15.5h1h-1h1h2q92 0 147 -49q-2 1 -4 5q51 -32 77 -83t26 -114q0 -83 -35.5 -157.5t-94 -131t-134 -89.5t-155.5 -33q-34 0 -65 15q-20 -8 -44.5 -10t-43.5 -2
q-15 -3 -30.5 -5t-32.5 -2q-27 0 -51.5 5t-43 13.5t-29.5 20t-11 23.5q0 19 18.5 30.5t47.5 11.5q34 0 83.5 -14t98.5 -37zM290 41q-34 15 -66 23t-56 8q-27 0 -42.5 -8t-15.5 -22q0 -16 20.5 -25t55.5 -9q31 0 56 8t48 25z" />
    <glyph glyph-name="E" unicode="E" horiz-adv-x="595" 
d="M289 -6q-63 11 -98 53t-35 105q0 38 16 73t43.5 63.5t65.5 48t82 25.5q-5 5 -8 13t-6 15q-8 -1 -14.5 -0.5t-14.5 0.5q-84 0 -131.5 29.5t-47.5 84.5q0 22 10 42t26.5 35t38.5 23.5t47 8.5q28 0 45 -12.5t17 -32.5q0 -17 -7 -17q-5 0 -5 5v4q1 3 1 9q0 12 -9 20t-24 8
q-18 0 -35.5 -9t-30.5 -24t-21 -34.5t-8 -40.5q0 -46 34.5 -67t103.5 -21h22q-2 5 -3 10.5t-1 10.5q-6 14 -7.5 23.5t-1.5 22.5q0 42 23 80.5t61 64.5q22 14 45.5 23t56.5 14q24 8 43 8q34 0 53.5 -21t19.5 -57t-20.5 -68t-56.5 -57t-85.5 -41t-107.5 -20q3 -13 9 -25l-9 9
q1 -7 5 -14q31 12 57 12q21 0 35.5 -7t14.5 -17q0 -9 -11 -14.5t-28 -5.5q-28 0 -66 20q-60 -48 -94 -115t-34 -136q0 -45 20.5 -72t54.5 -27q29 0 57 15.5t49 43.5q15 19 28 43.5t22.5 49.5t15.5 47.5t6 39.5q0 49 -44 49q-20 0 -39.5 -11t-34.5 -28.5t-24 -40.5t-9 -47
q0 -41 28 -41q7 0 8 1h3q1 1 2 1q4 0 4 -5q0 -8 -18 -8q-17 0 -27.5 14.5t-10.5 37.5q0 27 10 51.5t26.5 44t37.5 31t44 11.5q30 0 48 -24q30 -32 30 -83q0 -35 -18 -71t-47.5 -65t-67.5 -48t-78 -19q-17 0 -36 7q3 -3 5 -4zM366 405q45 4 79 18.5t68 43.5q38 33 62 73.5
t24 72.5q0 35 -35 35q-27 0 -58 -22t-59 -56.5t-50 -78t-31 -86.5z" />
    <glyph glyph-name="F" unicode="F" horiz-adv-x="561" 
d="M481 337q72 31 72 92q0 9 5 9q7 0 7 -13q0 -32 -21.5 -58.5t-63.5 -43.5q-5 -76 -25 -133t-48 -95q-22 -30 -47.5 -49.5t-54.5 -30.5t-61 -15t-67 -4q-25 0 -47 7t-38.5 18.5t-26 27.5t-9.5 34q0 14 8 25t18 11q6 0 6 -5q0 -3 -5 -6q-17 -8 -17 -23t8.5 -29t23 -24.5
t33 -16.5t39.5 -6q38 0 66.5 17t58.5 59q14 19 32 47t34 58q11 20 21.5 42.5t25.5 54.5l4 8l-7 -1q-17 -1 -24 -2t-19 -3q-24 -54 -59 -84t-77 -30q1 -16 4.5 -27t13.5 -23q4 -4 4 -7q0 -5 -5 -5q-4 0 -13 12q-15 21 -15 51q-10 2 -16 4q4 -4 6 -5q-42 12 -67 51.5t-25 96.5
q0 32 8.5 68t26 70t44.5 63.5t63 50.5q42 23 88 31t88 8q32 0 65.5 -9.5t85.5 -32.5q24 -10 40.5 -16.5t29 -10.5t22 -5.5t19.5 -1.5q34 0 57.5 17t23.5 43q0 19 -19 31q-7 4 -7 8q0 6 5 6q6 0 15 -9q18 -15 18 -37q0 -31 -28 -51.5t-73 -20.5q-17 0 -36.5 3.5t-38.5 9.5
l-55 18q-26 8 -55.5 13.5t-52.5 5.5q-90 0 -171 -87q-45 -48 -69.5 -102.5t-24.5 -105.5q0 -58 35 -81q23 82 136 101q8 20 11.5 37t3.5 34q0 33 -27 41q-7 1 -7 6q0 6 6 6q17 0 29 -16.5t12 -41.5q0 -22 -14 -64l8 1q7 2 11 2t5 1l18 1q1 1 9 1l3 8l14 31q16 36 27 60
t19.5 40t16 26.5t15.5 21.5q25 30 56 30q10 0 16.5 -2.5t6.5 -6.5q0 -5 -4 -5q-3 0 -4 1q-4 1 -7.5 1.5t-8.5 0.5q-12 0 -24.5 -6.5t-20.5 -17.5q-18 -26 -28 -51q-5 -15 -8 -33.5t-5 -49.5zM228 195l7.5 -1.5t5.5 -0.5q29 0 56 24.5t50 69.5q-102 -20 -119 -92z" />
    <glyph glyph-name="G" unicode="G" horiz-adv-x="695" 
d="M570 122q5 8 9 15t8 15t8.5 18t11.5 25q12 25 19.5 40t18.5 35l-12 -14q-23 -29 -38 -47t-26 -30.5t-21 -21.5t-22 -19q-44 -33 -86 -33h-11q-18 1 -38 11t-37.5 29t-28.5 47t-9 64q-27 8 -44.5 16.5t-31.5 22.5q-12 11 -24 27t-21.5 36.5t-16 43.5t-6.5 49q0 43 15 80.5
t42 64.5t64 42.5t81 15.5h17q-4 -1 -7 -1t-7 -1h5q29 0 47 -15t18 -41q0 -24 -15.5 -40.5t-38.5 -16.5q-15 0 -26 8.5t-11 21.5q0 6 5 6q4 0 6 -5l1 -4q3 -16 25 -16q18 0 30 13t12 33t-13 32t-35 12q-30 0 -60 -21t-55 -54t-40.5 -74t-15.5 -81q0 -60 24.5 -94t76.5 -48
q4 34 11.5 63t19.5 56t29.5 53t40.5 55q40 49 88 86t96 55q16 6 28.5 9.5t34.5 6.5q-1 -1 -2 -1t-2 -1q5 1 9 1.5t8 0.5q29 0 46.5 -18t17.5 -48q0 -67 -27.5 -123t-75.5 -98.5t-112 -71t-137 -41.5q-3 -15 -4 -25.5t-1 -22.5q0 -40 17 -62.5t47 -22.5q22 0 47 15t58 47
q14 14 29 30t32 39q6 8 11 14t17 22q8 10 13.5 17.5t13.5 18.5q26 33 40.5 50t28.5 27q13 7 15 7q6 0 6 -5q0 -1 -4 -5l-4 -2q-15 -10 -27.5 -22.5t-27.5 -32.5q-22 -30 -42 -71q-1 -3 -2 -6.5t-2 -6.5q-3 -11 -3.5 -13.5t-2.5 -6.5l-23 -82q0 -1 -3 -10q47 25 61 54
q1 6 7 6q5 0 5 -6q0 -4 -6.5 -14.5t-14.5 -18.5q-23 -23 -54 -36l-1 -7q-15 -62 -27.5 -105t-24.5 -73t-25.5 -51t-30.5 -39q-38 -42 -88 -64t-104 -22q-32 0 -49 18.5t-17 51.5q0 60 55 116.5t173 119.5l71 38zM392 265q36 10 66.5 24t59.5 34.5t57.5 48t59.5 63.5
q42 51 66.5 94.5t24.5 71.5q0 18 -12 29t-32 11q-32 0 -73 -33t-82 -86.5t-77 -120.5t-58 -136zM563 104q-90 -49 -187 -151q-99 -101 -99 -145q0 -28 29 -28q49 0 116.5 85t140.5 239z" />
    <glyph glyph-name="H" unicode="H" horiz-adv-x="805" 
d="M288 176q-55 10 -86 51t-31 105q0 71 31 127t82 94.5t116 59t132 20.5q100 0 188 -67q8 1 12.5 1.5t9.5 0.5q20 0 34 -5.5t14 -13.5q0 -11 -17 -11q-25 0 -53 18q-24 -9 -42.5 -31t-34.5 -53.5t-31 -71t-32 -85.5l-5 -12l-4 -12q23 8 42.5 12.5t50.5 10.5q41 73 76 121
t75 87q15 15 35 33t42 33.5t44.5 26t42.5 10.5q22 0 37 -15.5t15 -39.5q0 -32 -24.5 -73t-63.5 -74q-37 -30 -81 -51.5t-104 -38.5l-6 -13q-30 -62 -51 -110.5t-39 -100.5q-11 -31 -14.5 -45.5t-3.5 -25.5q0 -31 22 -31q19 0 39.5 30t56.5 106l18 39q4 8 5.5 10t3.5 2
q6 0 6 -5q0 -2 -2 -6.5t-11 -22.5q-12 -27 -20.5 -45.5t-15.5 -32t-12 -23t-11 -18.5q-16 -25 -29 -35t-30 -10t-29.5 11.5t-20.5 29t-12 37t-4 35.5q0 73 60 193q-5 -1 -7 -1.5t-3 -0.5l-32 -8q-8 -2 -20.5 -5.5t-29.5 -8.5l-7 -19q-15 -39 -26 -65.5t-20.5 -45t-18 -33
t-18.5 -29.5q-18 -28 -43 -46t-54.5 -29t-62 -15.5t-65.5 -4.5q-22 0 -42 7t-35 18.5t-24 27t-9 32.5q0 24 16 34q3 3 4 3q5 0 5 -6q0 -3 -4 -6q-11 -11 -11 -25q0 -30 27 -50.5t64 -20.5q105 0 215 206q-48 -27 -78 -61.5t-36 -65.5q-2 -7 -3 -8.5t-5 -1.5t-4 6
q0 14 13.5 38.5t34.5 46.5q18 18 37.5 32.5t48.5 30.5l4 7q6 13 13 26q8 16 12.5 25.5t14.5 27.5q27 54 46.5 91t40 64t45 47.5t62.5 41.5l-3 -3q3 2 5.5 3.5t5.5 3.5q-68 48 -141 48q-51 0 -101 -21t-95 -59q-30 -26 -54 -57t-41 -64t-26.5 -67t-9.5 -65q0 -38 16 -61.5
t42 -23.5q24 0 51 21.5t49 59.5q29 50 29 94q0 22 -7 34.5t-20 12.5t-22 -16l-2 -3q-3 -4 -5 -4q-5 0 -5 5q0 10 11 19t22 9q17 0 28 -15.5t11 -41.5q0 -33 -13.5 -67t-34.5 -61t-47.5 -44t-52.5 -17q-8 0 -11 1zM762 345q29 10 51.5 23.5t51.5 38.5q27 23 52.5 50t44.5 53
t30.5 48t11.5 36q0 22 -25 22q-37 0 -92 -66.5t-116 -186.5z" />
    <glyph glyph-name="I" unicode="I" horiz-adv-x="557" 
d="M678 570q-18 -10 -30 -23.5t-27 -42.5q-30 -58 -70 -179l-28 -85q-14 -44 -28 -77t-29.5 -58t-33 -43.5t-38.5 -32.5q-54 -36 -129 -36h-11.5t-14.5 2q-4 0 -8 -0.5t-8 -0.5q-23 0 -42.5 6t-34.5 17t-23.5 26t-8.5 32q0 19 15 31q3 3 5 3q5 0 5 -5q0 -4 -3 -7
q-11 -11 -11 -23q0 -29 26.5 -48.5t64.5 -19.5q47 0 98 43q16 15 32 33.5t32 43t32.5 56.5t35.5 73l49 103q34 73 68.5 120t77.5 77q12 10 27 21q-64 40 -130 40q-59 0 -116.5 -29.5t-103 -77.5t-73.5 -108.5t-28 -121.5q0 -42 16 -66t43 -24q21 0 42.5 16t39 41.5t29 56
t11.5 59.5q0 24 -7 37.5t-21 13.5q-13 0 -22 -16l-2 -4q-1 -4 -5 -4q-5 0 -5 5q0 11 10.5 20t22.5 9q19 0 29.5 -17t10.5 -47q0 -33 -16 -70.5t-43 -68.5q-41 -45 -83 -45q-13 0 -28 5q-47 14 -73.5 54t-25.5 100q1 66 34 121.5t84.5 96t116 63t128.5 22.5q90 0 174 -57
q11 2 17 2.5t12 0.5q18 0 30 -4.5t12 -12.5q0 -11 -20 -11q-11 0 -24 3.5t-26 11.5z" />
    <glyph glyph-name="J" unicode="J" horiz-adv-x="554" 
d="M496 351h-80q-5 -34 -18.5 -64.5t-33 -53t-43 -36t-47.5 -13.5q-13 0 -23 3q-23 3 -46 15t-40.5 32t-26.5 47t-4 60q12 82 53.5 137.5t96.5 89t115.5 47.5t109.5 14q38 0 75 -7.5t82 -23.5q3 2 5 2t4 1q25 8 35.5 10t24.5 2q17 0 27.5 -5t10.5 -14q0 -20 -42 -20
q-11 0 -20.5 1.5t-32.5 7.5q-2 1 -12 3q-10 -5 -16 -10.5t-13 -13.5q-29 -32 -51.5 -72.5t-46.5 -107.5l-7 -18h79q12 0 12 -6t-10 -6h-85q-11 -30 -19 -54.5t-19 -57.5q-6 -20 -11.5 -39.5t-12.5 -39.5l-9.5 -28.5t-6.5 -19t-6 -17.5l-8 -24q27 14 44 27.5t34 31.5
q10 11 21.5 27t16.5 24l3 6q3 6 7 6q5 0 5 -5q0 -3 -3.5 -10t-12.5 -20q-24 -36 -51 -60t-69 -44q-32 -104 -69.5 -168.5t-91.5 -108.5q-42 -33 -92 -55t-96 -27q5 2 9.5 4.5t9.5 4.5q-22 -8 -35 -8q-29 0 -48 22t-19 55q0 35 21.5 71.5t61.5 69.5q21 18 44 33t50 27.5
t59 23.5t73 22l32 8q8 14 14 25t11.5 22l12 24l15.5 31q9 19 21.5 44.5t25.5 53.5t25.5 55t22.5 49zM570 493q10 16 19 29t18 24t20 22t25 23q-51 20 -100 20q-57 0 -112 -24t-103 -69q-54 -52 -86 -116t-32 -122q0 -38 16.5 -60t45.5 -22q19 0 39.5 13t38 34.5t30 49
t16.5 57.5h-37q-7 0 -7 5q0 7 10 7h34q0 2 0.5 3t0.5 3q0 44 -34 44q-3 0 -13 -2l-6 -2q-6 0 -6 6q0 5 6.5 7.5t16.5 2.5q47 0 47 -62h85q13 31 26.5 57t31.5 55q2 5 5 9t5 8zM337 16q-27 -8 -58.5 -25t-63.5 -40t-63 -50t-58 -56q-61 -67 -61 -105q0 -14 10 -23.5t25 -9.5
q50 0 128 99q10 13 23 30.5t27 37.5t28.5 41t26.5 41q11 17 18 28.5t18 31.5z" />
    <glyph glyph-name="K" unicode="K" horiz-adv-x="749" 
d="M678 570q-18 -10 -30 -23.5t-27 -42.5q-30 -58 -70 -179l-28 -85q-14 -44 -28 -77t-29.5 -58t-33 -43.5t-38.5 -32.5q-54 -36 -129 -36h-11.5t-14.5 2q-4 0 -8 -0.5t-8 -0.5q-23 0 -42.5 6t-34.5 17t-23.5 26t-8.5 32q0 19 15 31q3 3 5 3q5 0 5 -5q0 -4 -3 -7
q-11 -11 -11 -23q0 -29 26.5 -48.5t64.5 -19.5q48 0 98 43q16 15 32 33.5t31.5 43t32.5 56t36 73.5l49 103q34 73 68.5 120t77.5 77q12 10 27 21q-64 40 -130 40q-59 0 -116.5 -29.5t-103 -77.5t-73.5 -108.5t-28 -121.5q0 -42 16 -66t43 -24q21 0 42.5 16t39 41.5t29 56
t11.5 59.5q0 24 -7 37.5t-21 13.5q-13 0 -22 -16l-2 -4q-1 -4 -5 -4q-5 0 -5 5q0 11 10.5 20t22.5 9q19 0 29.5 -17t10.5 -47q0 -33 -16 -70.5t-43 -68.5q-41 -45 -83 -45q-11 0 -28 5q-48 14 -74 54t-25 100q1 66 34 121.5t84.5 96t116 63t128.5 22.5q90 0 174 -57
q11 2 17 2.5t12 0.5q18 0 30 -4.5t12 -12.5q0 -11 -20 -11q-11 0 -24 3.5t-26 11.5zM723 70q-41 -75 -97 -75q-31 0 -51 22.5t-20 56.5q0 20 7.5 43t23.5 55l27 53q11 20 16.5 36.5t5.5 24.5q0 13 -14 24q-18 -9 -34 -9q-25 0 -25 14q0 13 25 13q9 0 16 -1t17 -5
q22 13 36 29q21 22 41 54l3 6l34 74q28 61 55.5 95t66.5 52q20 10 38.5 15t41.5 7q16 4 34 4q34 0 55 -19t21 -50q0 -28 -18 -47.5t-44 -19.5q-18 0 -29 9t-11 23q0 8 3 16t7 8q6 0 6 -5q0 -1 -2 -3q-4 -7 -4 -16q0 -22 31 -22q21 0 35.5 17t14.5 41q0 25 -16.5 41t-42.5 16
q-47 0 -99 -48q-14 -12 -26.5 -25t-26 -28.5t-28.5 -35.5t-34 -46q-15 -20 -26.5 -35.5t-20.5 -27.5l-12 -16.5t-10 -12.5q-8 -10 -13.5 -16t-16.5 -16q1 2 1.5 2.5t1.5 2.5l-1 -1q-10 -10 -17.5 -16t-18.5 -13l6 -6q0 3 -1 5q16 -19 20 -37.5t1.5 -37.5t-9 -37.5t-11.5 -37
t-5.5 -36.5t9.5 -35q12 -31 47 -31q6 0 9.5 -1t6.5 -1t7.5 2t13.5 8z" />
    <glyph glyph-name="L" unicode="L" horiz-adv-x="653" 
d="M327 68q-26 -18 -45.5 -30.5t-37.5 -19.5t-36 -10t-40 -3q-46 0 -75 19.5t-29 50.5q0 29 24 47t62 18q8 0 15.5 -0.5t15.5 -1.5q20 -1 43.5 -4.5t52.5 -9.5l45 -10l7 -1l16 -4q12 23 25.5 58.5t25.5 76.5l4 11q-36 6 -66.5 25t-51.5 46t-32.5 59.5t-9.5 66.5q3 54 27 88
t55.5 53.5t63.5 27t50 7.5q28 -2 44 -17.5t15 -40.5q-2 -24 -16.5 -40t-34.5 -14q-13 0 -24.5 9t-11.5 18q0 5 4 5q3 0 5 -3q6 -10 11.5 -14t14.5 -4q16 -1 27.5 12t13.5 33q1 19 -11 31t-32 14q-25 1 -50.5 -16t-46.5 -45.5t-35 -64.5t-16 -73q-4 -63 25.5 -103.5
t83.5 -48.5q14 63 39.5 131.5t64.5 126.5t91.5 95.5t121.5 39.5q24 1 38.5 -16t14.5 -43q0 -63 -24 -119.5t-66 -102t-99 -79t-123 -51.5q-17 -39 -40.5 -73t-55.5 -69l17 -2q37 -5 57 -7t40 -2q64 0 102.5 16.5t58.5 51.5l8 14q3 4 5 4q6 0 6 -5q0 -9 -8 -25.5t-20.5 -35.5
t-29.5 -39t-35.5 -36t-36.5 -25.5t-34 -8.5q-12 1 -23.5 2.5t-25 5.5t-29.5 10.5t-37 17.5l-41 20zM466 262q18 6 32 12t26.5 13t24.5 16t26 22q33 31 65.5 72t58 82t41 77t15.5 59q0 16 -10 25.5t-27 9.5q-9 0 -16 -3q-8 -5 -16.5 -9.5t-16.5 -10.5q-14 -11 -29 -29
q-16 -20 -31 -43t-31.5 -53.5t-34.5 -69.5t-39 -90q-7 -16 -12 -27t-9 -20t-8 -16.5t-9 -16.5zM311 76q-22 11 -42.5 20.5t-40.5 16.5q-30 8 -51 11.5t-44 3.5h-6q-23 -5 -37.5 -19t-14.5 -33q0 -26 26.5 -43t68.5 -17q82 0 141 60z" />
    <glyph glyph-name="M" unicode="M" horiz-adv-x="1022" 
d="M533 0q7 12 13.5 23.5t13.5 25t15 31t19 41.5l55 116q39 83 64 141.5t44 108.5q11 29 14.5 43.5t3.5 24.5q0 27 -21 27q-18 0 -37 -17t-45 -59q-15 -22 -34.5 -56t-37.5 -68q-18 -35 -39 -76.5t-47 -95.5l-48 -100q-8 -17 -13.5 -29t-13.5 -28q-10 -20 -12.5 -25.5
t-5.5 -12.5l-7 -15h-111l11 21q11 22 24.5 47t28.5 54q20 37 33.5 62.5t24 46t19 39t18.5 40.5q24 52 44.5 102.5t30.5 82.5q11 32 15 53.5t4 41.5q0 29 -13.5 45t-37.5 16q-63 0 -160 -127q-54 -75 -85.5 -144t-31.5 -120q0 -26 11.5 -43.5t29.5 -17.5q23 0 49.5 19
t50.5 53q26 37 40.5 77.5t14.5 75.5q0 51 -34 51q-15 0 -26 -11l-3 -3q-6 -2 -5 -2q-5 0 -5 5q0 2 4 7q15 15 34 15q22 0 34.5 -17t12.5 -46q0 -39 -18 -85.5t-47 -84.5q-49 -66 -104 -66q-11 0 -20 3h1q-33 13 -51.5 42t-18.5 68q0 31 13.5 69.5t37 78.5t55.5 78t68.5 68
t75.5 48.5t77 19.5q25 1 42.5 -18t28 -46t15 -57t4.5 -51q0 -32 -6.5 -66.5t-18.5 -72.5q4 8 7.5 14t5.5 11l28 52q3 7 9.5 18.5t14.5 24.5t15.5 25l12.5 20q28 42 49 59.5t43 17.5q19 0 30 -22q18 -17 25.5 -39.5t7.5 -55.5q0 -27 -5 -54.5t-19 -73.5l11 19q89 152 152 152
q21 0 35 -15.5t21.5 -41t7.5 -60.5q0 -34 -14 -74t-47 -101l-39 -71q-11 -20 -21.5 -40.5t-15.5 -34.5q-11 -27 -11 -41q0 -25 18 -25q26 0 64 54q4 5 8 11t9 15l12.5 22.5t18.5 33.5q9 17 12.5 22.5t6.5 12.5q5 8 7 8q6 0 6 -5q0 -2 -1 -5t-6 -11l-27 -50
q-38 -67 -62.5 -93.5t-51.5 -26.5q-6 0 -9 1l9 -6q-25 2 -37.5 7t-23.5 17q-11 14 -18 33t-7 40q0 35 24 87.5t82 134.5l39 58q23 33 34.5 58t11.5 39v2q-2 7 -6 18q-5 7 -12 11.5t-16 4.5q-29 0 -67 -41.5t-80 -114.5q-14 -26 -35 -69.5t-56 -116.5q-25 -52 -40.5 -86.5
t-27.5 -64.5l-6 -15h-113z" />
    <glyph glyph-name="N" unicode="N" horiz-adv-x="749" 
d="M749 550l6 -7q-2 5 -6 9q-7 8 -19 8q-23 0 -53.5 -27t-73.5 -84q-15 -20 -28 -40.5t-28 -47t-32.5 -62.5t-41.5 -87q-8 -15 -15.5 -32t-15.5 -32q-7 -15 -11 -23.5t-9 -19.5l-31 -63l-18 -39h-55l-1 -3h-59q7 13 12 21q2 5 8.5 16.5t23.5 43.5q5 11 10.5 21t10.5 20
l58 111q12 24 25.5 52t27 58t25.5 61t23 60q29 80 29 126q0 29 -13.5 45t-38.5 16q-63 0 -159 -127q-55 -74 -86 -144t-31 -121q0 -26 11.5 -43t29.5 -17q23 0 49.5 19t50.5 53q26 36 40.5 77t14.5 75q0 52 -35 52q-15 0 -26 -11l-3 -3q-2 -2 -4 -2q-5 0 -5 5q0 3 4 7
q13 15 34 15q22 0 34.5 -17t12.5 -48q0 -38 -18 -84t-47 -84q-25 -32 -52 -49t-53 -17q-12 0 -22 4q1 0 2 -1q-32 13 -50.5 42t-18.5 67q0 45 21 95.5t55.5 97t79.5 83.5q42 36 86 55q48 32 86 32q34 0 52 -30q5 -7 8 -15q15 -24 22 -47q11 -33 11 -77q0 -30 -6.5 -69.5
t-17.5 -69.5l9 16q55 95 105.5 148t85.5 53q22 0 34 -17t12 -46q7 -21 7 -50q0 -20 -3.5 -39.5t-12.5 -43.5t-24 -54t-37 -70q-20 -36 -34 -61.5t-24.5 -44.5t-17 -33t-11.5 -25q-8 -18 -11.5 -29.5t-3.5 -20.5q0 -22 19 -22q21 0 46 31q12 14 21 28.5t23 38.5
q11 20 20.5 37t14.5 28l3 8q4 8 8 8q5 0 5 -6q0 1 -2 -7l-5 -8l-25 -50q-32 -62 -59.5 -91t-54.5 -29h-2l4 -2q-82 6 -82 94q0 20 7 45.5t19 51.5q16 32 39.5 70.5t49.5 76.5l39 57q31 45 48 81q14 28 17 45q0 2 -1 4q-1 9 -6 24z" />
    <glyph glyph-name="O" unicode="O" horiz-adv-x="695" 
d="M216 129q-30 3 -52 21.5t-36 45t-21 57.5t-7 58q0 44 17 87t46 82t68 72t82.5 57t89.5 37.5t90 13.5q49 0 86.5 -20.5t64 -54t40.5 -76.5t16 -87q1 -35 -12 -80.5t-37 -93.5t-58 -93.5t-75 -81.5t-88 -58t-97 -22q-26 0 -47.5 11.5t-37 30.5t-24 43.5t-8.5 50.5zM537 540
q17 2 33 -10.5t16 -24.5q0 -4 -5 -4q-3 0 -5 5q-14 23 -34 23q-32 0 -78 -50.5t-90 -137.5q-10 -19 -20.5 -42.5t-20 -49.5t-18 -52.5t-14.5 -50.5q70 19 119 80q23 28 38 61.5t15 56.5q0 17 -9 28q-3 4 -3.5 5t-0.5 3q0 4 4 4q7 0 13.5 -13.5t6.5 -27.5q0 -26 -15.5 -60.5
t-38.5 -63.5q-56 -68 -132 -86q-7 -23 -9.5 -41.5t-2.5 -34.5q0 -54 47 -54q90 0 191 191q26 49 47 96t35.5 89t22 77t7.5 61q0 63 -38.5 98t-107.5 35q-75 0 -147 -50.5t-132 -146.5q-19 -30 -35.5 -65t-26 -70t-9.5 -69.5t14 -62.5q5 -11 17 -26t45 -19q2 55 27.5 121.5
t68.5 125.5t100.5 101.5t124.5 50.5z" />
    <glyph glyph-name="P" unicode="P" horiz-adv-x="688" 
d="M586 656q39 0 71 -13.5t55 -36.5q-5 5 -10.5 9.5t-11.5 9.5q42 -25 66 -60.5t24 -80.5q0 -34 -13.5 -64.5t-37.5 -53t-56.5 -36.5t-69.5 -15q-28 0 -46 13.5t-18 30.5q0 8 3 15.5t7 7.5q5 0 5 -4l-2 -6q-3 -8 -3 -12q0 -13 11 -22t27 -9q24 0 47.5 17.5t42 45t30.5 62.5
t12 70q0 57 -33.5 89t-96.5 32q-35 0 -73 -11.5t-75.5 -33.5t-73 -52.5t-66.5 -68.5q-22 -27 -41 -59t-32.5 -63.5t-21 -61.5t-7.5 -54q0 -23 11.5 -38t28.5 -15q24 0 51 22t48 58q28 46 28 90q0 26 -9.5 40.5t-25.5 14.5q-10 0 -21 -8l-3 -2q-3 -4 -6 -4q-5 0 -5 6q0 2 3 5
q14 14 32 14q21 0 34 -18.5t13 -48.5q0 -32 -13.5 -64.5t-35.5 -59t-48.5 -43.5t-52.5 -17q-5 0 -8.5 0.5t-7.5 1.5q3 -3 7 -5q-89 20 -89 123q0 76 39.5 144t103.5 118t146 77.5t167 23.5zM218 -2l4 2q-35 -8 -64 -8q-30 0 -55 6t-44 17t-29.5 25.5t-10.5 31.5
q0 12 5.5 22.5t11.5 10.5q5 0 5 -5q0 -2 -3 -6q-5 -6 -6.5 -10t-1.5 -11q0 -29 34 -48.5t84 -19.5q38 0 68.5 15t60.5 48q11 13 25 32.5t29 45.5q8 13 14.5 25t18.5 35l36 69q46 90 78.5 140t66.5 74q29 26 63 26q16 0 27 -9t11 -23q0 -8 -3 -14.5t-7 -6.5q-6 0 -6 5
q1 0 1 1q0 3 1 5q0 2 0.5 4t0.5 4t1 2q0 9 -7.5 15t-18.5 6q-38 0 -69 -49q-7 -11 -15.5 -31.5t-16.5 -46.5q-5 -13 -11.5 -36.5t-15.5 -56.5q-9 -35 -16.5 -59.5t-14 -43t-13 -32.5t-13.5 -27q-34 -58 -88 -91t-117 -33z" />
    <glyph glyph-name="Q" unicode="Q" horiz-adv-x="702" 
d="M216 129q-30 3 -52 21.5t-36 45t-21 57.5t-7 58q0 44 17 87t46 82t68 72t82.5 57t89.5 37.5t90 13.5q49 0 86.5 -20.5t64 -54t40.5 -76.5t16 -87q1 -35 -12 -80.5t-37 -93.5t-58 -93.5t-75 -81.5t-88 -58t-97 -22q-26 0 -47.5 11.5t-37 30.5t-24 43.5t-8.5 50.5zM537 540
q17 2 33 -10.5t16 -24.5q0 -4 -5 -4q-3 0 -5 5q-14 23 -34 23q-32 0 -78 -50.5t-90 -137.5q-10 -19 -20.5 -42.5t-20 -49.5t-18 -52.5t-14.5 -50.5q70 19 119 80q23 28 38 61.5t15 56.5q0 17 -9 28q-3 4 -3.5 5t-0.5 3q0 4 4 4q7 0 13.5 -13.5t6.5 -27.5q0 -26 -15.5 -60.5
t-38.5 -63.5q-56 -68 -132 -86q-7 -23 -9.5 -41.5t-2.5 -34.5q0 -54 47 -54q90 0 191 191q26 49 47 96t35.5 89t22 77t7.5 61q0 63 -38.5 98t-107.5 35q-75 0 -147 -50.5t-132 -146.5q-19 -30 -35.5 -65t-26 -70t-9.5 -69.5t14 -62.5q5 -11 17 -26t45 -19q2 55 27.5 121.5
t68.5 125.5t100.5 101.5t124.5 50.5zM187 -56q-10 -4 -15.5 -5.5t-11.5 -1.5q-11 0 -18.5 6t-7.5 15q0 18 21 30t53 12q14 0 31.5 -2.5t51.5 -9.5l-2 1q8 -2 13.5 -2.5t10.5 -2.5q2 -1 4 -1t4 -1q63 -13 122.5 -23t128.5 -19q85 -12 149 -17.5t115 -5.5q66 0 104 15.5
t38 41.5q0 9 -7 16l-1 2q-1 1 -1 2q0 6 4 6q3 0 6 -5q10 -11 10 -23q0 -25 -26 -49q-26 -43 -69.5 -69t-91.5 -26q-42 0 -76 10q-37 10 -78.5 24t-89.5 32q-30 11 -53.5 20t-44.5 16.5t-40.5 14t-39.5 13.5l-60 14q-80 18 -111 18q-40 0 -40 -24q0 -6 3.5 -11t14.5 -11z" />
    <glyph glyph-name="R" unicode="R" horiz-adv-x="751" 
d="M592 654q38 0 70 -13.5t55 -36.5q29 -25 45.5 -55t16.5 -65q0 -33 -14 -63t-37.5 -53t-54 -38t-63.5 -18l-6 -3q11 -13 15.5 -25.5t4.5 -26.5q0 -18 -4 -35.5t-9.5 -34t-9.5 -33.5t-4 -33q0 -26 14.5 -45t40.5 -19q13 0 23.5 2.5t28.5 14.5q-20 -38 -50 -60.5t-58 -22.5
q-31 0 -51 22.5t-20 56.5q0 20 7 43t24 55l27 53q24 42 22 61q0 13 -14 24q-11 -3 -18 -4t-14 -1q-27 0 -27 14t22 14q17 0 41 -10l3 -1q7 0 13.5 2.5t13.5 5.5q3 2 6.5 4.5t6.5 4.5q17 13 32.5 33t27.5 45t19 52.5t7 54.5q0 60 -34 91.5t-95 31.5q-42 0 -87 -17.5t-88 -47
t-82 -69t-68.5 -84.5t-47 -92.5t-17.5 -92.5q0 -24 11 -39t29 -15t40 15.5t41 40t32 54.5t13 60q0 55 -35 55q-8 0 -17 -6.5t-12 -6.5q-5 0 -5 5q0 8 13 13.5t22 5.5q21 0 33.5 -18t12.5 -48q0 -32 -13.5 -64.5t-35 -59t-48 -43.5t-52.5 -17h-2q1 -1 2 -1q-4 0 -5 1
q-24 1 -40 19q-20 15 -35.5 39.5t-15.5 61.5q0 73 38 139t101 115.5t145 78.5t170 29zM183 -12q-51 0 -84 23t-33 57q0 11 5.5 24.5t14.5 13.5q5 0 5 -5q0 -3 -7.5 -12t-7.5 -20q0 -14 8 -26.5t22 -22.5t32.5 -15.5t38.5 -5.5q42 0 78.5 21t70.5 64t68 107.5t71 150.5
q31 72 57 115.5t52 66.5q25 27 54 27q17 0 32.5 -11t15.5 -23q0 -5 -5 -5q-2 0 -5.5 4.5t-8.5 10t-12.5 10t-16.5 4.5q-14 0 -26 -6t-24 -26t-24.5 -58.5t-27.5 -102.5l-20 -91q-15 -69 -38 -118t-56 -80.5t-78 -47t-104 -17.5q-24 -6 -47 -6z" />
    <glyph glyph-name="S" unicode="S" horiz-adv-x="601" 
d="M442 367q-32 0 -60.5 11t-50 30.5t-34 45.5t-12.5 55q0 22 8.5 41.5t23 34t34 23t41.5 8.5q20 0 32.5 -9t12.5 -23q0 -19 -9 -19q-5 0 -5 5q0 2 1.5 6t1.5 7q0 18 -20 18q-16 0 -31.5 -10.5t-28 -27t-20.5 -37.5t-8 -42q0 -48 33 -76t90 -30q-6 32 -8.5 52.5t-2.5 38.5
q0 32 14.5 66t38.5 61.5t55.5 45.5t65.5 18q22 0 40.5 -10t32.5 -26.5t22 -37t8 -40.5q0 -24 -10 -48t-28 -45.5t-42.5 -38.5t-52.5 -27q-13 -8 -27 -14t-29 -11q10 -28 17 -49t11.5 -38.5t6.5 -33t2 -31.5q0 -48 -23.5 -88t-61 -68.5t-86 -44t-97.5 -15.5q-70 0 -110 42
q-62 50 -62 132q0 37 15.5 73.5t42 65t63 46t78.5 17.5t68.5 -31.5t26.5 -80.5q0 -24 -8 -46t-22 -38.5t-32.5 -26.5t-38.5 -10q-27 0 -45 16.5t-18 40.5q0 11 4.5 20t10.5 9q5 0 5 -5q0 -2 -3 -5l-1 -1q-6 -8 -6 -18q0 -20 15 -33.5t37 -13.5q18 0 34.5 9t29 24t19.5 35.5
t7 43.5q0 45 -22 72t-56 27q-27 0 -53 -20t-47 -52t-34 -72.5t-13 -80.5q0 -60 28 -94t79 -34q39 0 71.5 16.5t56.5 46.5t37 71.5t13 91.5q0 27 -3.5 60t-11.5 76zM514 373q34 10 60 31t44 48.5t27.5 59t9.5 61.5q0 35 -15 55t-41 20q-23 0 -43 -12t-35 -32.5t-24 -48
t-9 -58.5q0 -49 26 -124z" />
    <glyph glyph-name="U" unicode="U" horiz-adv-x="698" 
d="M318 -4q-45 8 -68.5 38.5t-23.5 79.5q0 25 9 50.5t30 57t56 72t88 96.5q42 44 69 75t42.5 54t21.5 40t6 33q0 26 -16 42t-43 16q-23 0 -51 -14t-56.5 -37.5t-55 -54t-47.5 -64t-33.5 -67.5t-12.5 -64q0 -36 29 -36q13 0 30 9.5t31 25t24 34.5t10 39q0 12 -10 22.5
t-10 15.5t4 5q10 0 18.5 -14t8.5 -30q0 -20 -10 -41t-26 -38t-35 -28t-38 -11q-13 0 -21 4q1 -1 1.5 -2t2.5 -2q-26 17 -37.5 39.5t-11.5 54.5q0 45 21 89t57.5 80t86 61t106.5 33l-1 -1q12 3 25 3q23 0 38 -10.5t23.5 -27t12 -37.5t3.5 -42q-1 -45 -26 -100t-79 -128
l-66 -88q-28 -38 -46.5 -64.5t-29.5 -46.5t-15.5 -34.5t-4.5 -27.5q0 -43 37 -43q25 0 54 21t58.5 54.5t58 76.5t51.5 87l48 91q2 3 4 7.5l6 13.5t11.5 25t20 44t32 69t47.5 100h80l-234 -511q-14 -30 -19 -42.5t-4 -20.5q0 -9 6 -14.5t15 -5.5q14 0 29 13t31 36.5t32 54.5
t33 67q5 11 7 13.5t5 2.5q4 0 4 -5q0 -2 -1.5 -7.5t-6.5 -13.5q-24 -52 -42.5 -86t-34.5 -54.5t-31 -29t-31 -8.5q-15 0 -24.5 8t-15.5 20.5t-8 28.5t-2 32q0 23 7 50t25 80q-36 -59 -66.5 -99t-58 -65t-53 -36.5t-50.5 -12.5z" />
    <glyph glyph-name="V" unicode="V" horiz-adv-x="706" 
d="M258 11q18 -2 30.5 -3t28.5 -1q157 0 254 109q18 21 33 42.5t32 54t39.5 80.5t55.5 122q20 46 36.5 78.5t31.5 55.5t30 39.5t33 30.5q25 20 53 24.5t51 -3t38.5 -25.5t15.5 -43q0 -32 -22 -52t-55 -20q-22 0 -36.5 8t-14.5 20q0 13 8 13q5 0 5 -5l-2 -4v-3
q0 -8 11.5 -13.5t28.5 -5.5q27 0 45 15.5t18 38.5q0 17 -13.5 28t-33.5 11q-53 0 -114.5 -71.5t-140.5 -224.5q-29 -55 -60.5 -107.5t-65.5 -91.5q-99 -111 -259 -111q-39 0 -68.5 5t-29.5 12q0 5 4 5h3q1 -1 6 -1q17 0 34 12q16 11 30.5 29.5t32.5 50.5q8 14 16 31t22 46
q8 18 15.5 36t15.5 37q20 46 36.5 82.5t30.5 66t27 53.5t25 44q15 26 31 43t39 34q7 7 13 12t17 10q-51 24 -104 24q-67 0 -131.5 -36t-115.5 -102q-40 -52 -63.5 -109.5t-23.5 -102.5q0 -29 14 -49t36 -20q25 0 49 18.5t43.5 47.5t31.5 66t12 74q0 54 -34 55q-8 0 -8 5t9 5
q20 0 32 -18t12 -50q0 -40 -13 -78.5t-34.5 -69t-48.5 -49t-55 -18.5q-27 0 -45 19q-49 40 -49 120q0 68 35 124t90 95.5t122 61.5t130 22q35 0 63.5 -7.5t56.5 -23.5q6 1 9.5 1h7.5q21 0 33 -4t12 -12q0 -9 -14 -9q-15 0 -48 15q-15 -8 -24.5 -20t-21.5 -43
q-6 -14 -12 -31.5t-17 -49.5q-8 -26 -17.5 -58t-15.5 -52q-12 -39 -19 -62t-11.5 -37t-7.5 -22.5t-7 -18.5q-16 -41 -40.5 -74t-53.5 -58t-61.5 -41t-63.5 -22z" />
    <glyph glyph-name="W" unicode="W" horiz-adv-x="922" 
d="M561 0q-15 0 -32 2.5t-26 5.5q-4 1 -4 5q0 5 5 5h7q23 0 54 28q33 32 67 95q11 17 18.5 33t20.5 44q7 16 18.5 41.5t22.5 51.5q39 91 71.5 152.5t62.5 103.5q14 20 31.5 43t32.5 35q-32 -2 -67.5 -19t-61.5 -42q-26 -26 -49 -60.5t-54 -91.5q-7 -14 -14 -27.5t-14.5 -30
t-17.5 -38t-23 -50.5q-21 -47 -39 -82t-35.5 -61.5t-35 -46.5t-36.5 -36q-77 -62 -173 -62q-26 0 -47 4.5t-21 10.5q0 5 4 5h3q1 -1 6 -1q17 0 34 12q15 11 30 29.5t33 50.5q8 14 16 31t22 46q8 18 15.5 36t15.5 37q20 46 36.5 82.5t30.5 66t27 53.5t25 44q19 33 43.5 56
t55.5 44q-51 24 -104 24q-67 0 -131.5 -36t-115.5 -102q-40 -52 -63.5 -109.5t-23.5 -102.5q0 -29 14 -49t36 -20q25 0 49 18.5t43.5 47.5t31.5 66t12 74q0 54 -34 55q-8 0 -8 4q0 6 9 6q20 0 32 -18t12 -50q0 -40 -13 -78.5t-34.5 -69t-48.5 -49t-55 -18.5
q-23 0 -40.5 13.5t-30 33.5t-19 44.5t-6.5 45.5q0 58 30.5 110t77.5 91.5t103 65.5t108 33q14 2 29.5 3.5t30.5 1.5q35 0 63.5 -7.5t56.5 -23.5q6 1 9.5 1h7.5q21 0 33 -4t12 -12q0 -9 -14 -9q-15 0 -48 15q-15 -8 -24.5 -20t-21.5 -43q-6 -14 -12.5 -32t-16.5 -49
q-8 -26 -18 -57.5t-16 -52.5q-12 -39 -19 -62t-11.5 -37t-7.5 -22.5t-7 -18.5q-32 -78 -82 -127t-113 -61q-5 -2 -8.5 -4.5t-8.5 -4.5q8 -1 13.5 -1h10.5q36 0 71 9.5t66 28.5q26 16 52 42.5t46 55.5q14 21 34 60t41 87q30 67 53.5 115t44 82.5t39 58.5t38.5 44
q30 29 70 46.5t75 17.5t35 -8q0 -5 -4 -5h-3q-2 1 -10 1q-17 0 -28 -14t-27 -57l-27 -75l-34 -99l-41 -128q-18 -53 -37.5 -92.5t-43.5 -68.5t-55 -49t-71 -33q-8 -5 -15 -8.5l-15 -7.5q6 0 11 -0.5t7 -0.5q162 0 256 109q18 21 33 42.5t32 54t39.5 80.5t55.5 122
q20 46 36.5 78.5t31.5 55.5t30 39.5t33 30.5q25 20 53 24.5t51 -3t38.5 -25.5t15.5 -43q0 -32 -22 -52t-55 -20q-22 0 -36.5 8t-14.5 20q0 13 8 13q5 0 5 -5l-2 -4v-3q0 -8 11.5 -13.5t28.5 -5.5q27 0 45 15.5t18 38.5q0 17 -13.5 28t-33.5 11q-53 0 -114.5 -71.5
t-140.5 -224.5q-29 -55 -60.5 -107.5t-65.5 -91.5q-99 -111 -259 -111h-3z" />
    <glyph glyph-name="X" unicode="X" horiz-adv-x="763" 
d="M229 219q-2 4 -4 7.5t-4 7.5l-1 1q-8 18 -11 32.5t-3 34.5q0 66 33.5 136t93.5 127q32 29 62.5 48t66.5 31q28 14 48 14q31 0 47.5 -30t16.5 -85q0 -42 -11 -89t-31 -96t-49 -98.5t-65 -95.5q-32 -42 -68.5 -76t-71.5 -56q-30 -19 -57 -26.5t-62 -7.5q-27 0 -52 7t-44 19
t-30 27.5t-11 33.5q0 13 8 24.5t16 11.5q5 0 5 -5q0 -2 -3 -5q-15 -11 -15 -26t10.5 -29t28 -24.5t40.5 -17t48 -6.5q74 0 133 60q32 32 64 77t58 96l44 84l8 16h-50q-29 -67 -69 -106t-82 -39q-36 0 -45 38l-1 1q-1 5 -1.5 10.5t-0.5 11.5q0 32 9.5 69.5t27 76.5t41.5 77
t53 71q28 32 57.5 55.5t55.5 37.5q8 2 16 4.5t16 4.5q-51 -21 -98.5 -64.5t-87.5 -106.5q-19 -29 -34 -59.5t-26 -61.5t-17 -59.5t-6 -52.5q0 -15 4 -30zM472 352q42 86 60.5 143.5t18.5 102.5q0 23 -10.5 36.5t-28.5 13.5q-29 0 -70 -37t-86 -104q-25 -37 -46.5 -76
t-37.5 -74.5t-25 -65.5t-9 -49q0 -35 32 -35q16 0 34.5 10t36.5 28t34.5 42.5t29.5 53.5h-60l-2 -1l-4 1q-5 0 -5 5q0 6 7 6h69q16 36 16 67q0 40 -24 40q-5 0 -16 -8q-2 -2 -5 -2q-4 0 -4 4q0 3 4 7q11 8 21 8q16 0 25.5 -13t9.5 -33q0 -35 -16 -70h51zM862 651
q33 -6 47 -26.5t12.5 -47t-16 -56t-38 -54t-53.5 -40.5t-62 -16h-8q2 0 3 1q-20 1 -31.5 13t-11.5 32q0 17 12 31t26 14q5 0 5 -5q0 -3 -5 -5q-28 -6 -28 -36q0 -15 9 -24.5t23 -9.5q27 0 68 53q14 19 26.5 39.5t21.5 40t14.5 36t5.5 27.5q0 23 -22 23q-24 0 -62.5 -29
t-78.5 -77q-30 -37 -62 -86t-58 -97h111q11 0 11 -5q0 -6 -9 -6h-119l-6 -13q-13 -28 -22 -48t-16 -37.5t-13 -33.5t-13 -35q-14 -40 -20.5 -68t-6.5 -49q0 -47 43 -47q41 0 82 51q15 19 28.5 41.5t23.5 45t16 43.5t6 36q0 20 -12.5 32.5t-31.5 12.5q-23 0 -39.5 -19.5
t-16.5 -46.5q0 -13 4 -22l2 -4q2 -2 2 -4q0 -4 -5 -4t-9 11t-4 23q0 32 19 54t46 22q29 0 46.5 -22.5t17.5 -58.5t-15 -72t-39 -65t-54 -47t-60 -18q-38 0 -61 31t-23 83q0 29 9.5 67.5t27 82t41.5 88.5t53 88q85 123 187 182q52 30 82 30z" />
    <glyph glyph-name="Y" unicode="Y" horiz-adv-x="599" 
d="M277 2q-69 27 -69 112q0 26 8.5 54.5t24.5 54.5q9 15 19.5 30t24 32t31 37.5t40.5 46.5q25 28 44 49t32 36q35 40 51 70t16 56q0 30 -24 49t-62 19q-76 0 -146 -82q-22 -26 -40.5 -55.5t-32 -59t-21.5 -57t-8 -48.5q0 -26 12.5 -41t32.5 -15q19 0 37 10.5t32.5 28t23 40
t8.5 46.5q0 38 -25 38h-7q-2 0 -2.5 -0.5t-1.5 -0.5q-6 0 -6 6q0 7 16 7q17 0 27.5 -14.5t10.5 -37.5q0 -26 -10 -50t-25.5 -42.5t-36 -30t-41.5 -11.5q-31 0 -50.5 26t-19.5 68q0 48 25.5 98.5t65 92t88 68.5t93.5 27q31 0 53 -11t35.5 -29t19.5 -42t6 -50q0 -42 -22 -91
t-73 -119l-65 -90q-26 -35 -48 -69t-33 -56q-13 -25 -13 -52q0 -38 34 -38q41 0 97 65q14 16 27 34.5t26.5 42t29.5 54.5t36 72q19 41 33 69t25.5 48.5t22 37t22.5 33.5q20 28 44.5 52t49.5 41t49.5 27t44.5 10q18 0 29 -7.5t11 -21.5q0 -1 -0.5 -2.5t-0.5 -3.5h-2
q-13 -32 -58 -32q-7 0 -13.5 1t-21.5 4q-20 4 -31 4h-3q-45 -25 -78 -65q-9 -11 -18.5 -24t-18.5 -30q-17 -39 -27 -65t-20 -57t-20 -67t-19 -75l-35 -143q0 -1 -5 -19q60 -8 94 -35t34 -66q0 -19 -9 -35t-23 -24q-8 -4 -14.5 -6.5t-8.5 -2.5q-6 0 -6 6q0 3 5 6l5 1
q39 15 39 55q0 35 -31 58.5t-89 31.5q-17 -56 -55.5 -111t-86 -98.5t-97 -70t-89.5 -26.5q-29 0 -48 22t-19 54q0 45 29.5 90.5t83.5 81.5q42 29 86 44t104 21q6 10 11 20t16 34l18 40q0 2 2 6t5 12l-17 -21q-17 -21 -29.5 -34t-23.5 -22q-17 -12 -34 -19t-32 -7
q-18 0 -32 7q2 -2 3.5 -2.5t3.5 -2.5zM381 -20q-45 -7 -80.5 -27t-74.5 -58q-24 -24 -43.5 -49t-34 -48t-22.5 -43t-8 -34q0 -15 9 -24t23 -9q48 0 117 97q12 18 26.5 41t29.5 48.5t30 52.5t28 53z" />
    <glyph glyph-name="Z" unicode="Z" horiz-adv-x="698" 
d="M307 54q-57 -29 -101 -43.5t-79 -14.5q-45 0 -65 13t-20 46q0 37 33 59t90 22q25 0 51 -3t60 -11q32 -6 46 -8.5t26 -4.5q8 8 15 15.5t14.5 15.5t15.5 18t19 24q23 29 39.5 51.5t30 42t24.5 36t23 33.5l6 10h-64q-26 -63 -62 -96.5t-76 -33.5h-10.5t-10.5 2q-25 3 -40 9
t-31 23q-39 41 -39 105q0 51 25 100.5t65 88.5t91 63t104 24q37 0 73 -12.5t88 -41.5q13 -8 19 -10.5t15 -7.5l-2 -2q0 -1 2 -1l6 9q29 29 61 47t60 18q20 0 32.5 -9t12.5 -23q0 -13 -8.5 -24.5t-22.5 -20.5t-33 -14t-40 -5q-16 0 -30.5 2t-36.5 7l-7 -12q-16 -24 -26.5 -42
t-16.5 -30l-43 -88l-7 -12h120q10 0 10 -7q0 -6 -13 -6h-122l-9 -20q-18 -43 -35.5 -77t-37 -61.5t-42 -50.5t-50.5 -44q32 -5 54.5 -7.5t46.5 -2.5q133 0 176 85q3 6 6 6q6 0 6 -6q0 -5 -8 -17.5t-19 -24.5q-6 -7 -12 -13l-12 -12q-44 -59 -84.5 -85t-88.5 -26
q-18 0 -34 2.5t-34.5 9t-41 17t-52.5 26.5zM543 368q5 6 8 10.5l5 7.5l34 49l38 57q6 8 11.5 16t10.5 16q11 14 14 17.5t8 12.5q-29 11 -65 17.5t-64 6.5q-63 0 -116 -30.5t-93 -90.5q-25 -37 -39.5 -76.5t-14.5 -71.5q0 -33 15.5 -52.5t41.5 -19.5q32 0 65 31.5t58 86.5
h-50q-5 2 -5 6q0 7 11 7h48q4 15 5 23.5t1 16.5q0 19 -9 31.5t-23 12.5t-23 -14q-3 -4 -5 -4q-5 0 -5 4q0 8 11.5 16t22.5 8q19 0 30.5 -15.5t11.5 -40.5q0 -10 -1 -18t-4 -20h67zM53 55q0 -26 17 -36.5t52 -10.5q34 0 76.5 15t87.5 41q-26 15 -46.5 25.5t-38 17t-33 9.5
t-31.5 3q-4 0 -10 -0.5t-14 -0.5q-28 -8 -44 -24.5t-16 -38.5zM693 561q14 -3 24.5 -4.5t22.5 -1.5q68 0 68 35q0 10 -9 16t-23 6q-21 0 -43 -13.5t-40 -37.5z" />
    <glyph glyph-name="bracketleft" unicode="[" horiz-adv-x="259" 
d="M443 666l-7 -14h-80l-320 -690h93l-6 -14h-138l333 718h125z" />
    <glyph glyph-name="backslash" unicode="\" horiz-adv-x="273" 
d="M211 -45h-19l-24 640h19z" />
    <glyph glyph-name="bracketright" unicode="]" horiz-adv-x="259" 
d="M-86 -52l7 14h80l320 690h-93l7 14h137l-333 -718h-125z" />
    <glyph glyph-name="asciicircum" unicode="^" horiz-adv-x="1583" 
d="M1381 296q0 9 7 9q5 0 5 -5v-3q0 -14 17.5 -24t43.5 -10t44.5 12t18.5 29q0 24 -31 42q-23 13 -70.5 20.5t-103.5 7.5q-16 0 -43.5 -1t-53.5 -3q-130 -8 -215 -21l-199 -31q-61 -10 -129.5 -19.5t-160.5 -21.5q-36 -5 -61.5 -8.5t-44.5 -5.5t-33 -3.5t-27 -2.5
q-32 -3 -55.5 -4t-43.5 -1q-39 0 -73.5 7t-60.5 19.5t-41 29t-15 34.5q0 12 8 12q5 0 5 -5q-1 0 -1 -1v-3v-3q0 -20 27 -41q23 -17 63.5 -26.5t93.5 -9.5q29 0 65 2.5t86 8.5q132 15 267.5 36t282.5 50q78 15 143 26t117 18q18 2 38.5 3.5t42.5 1.5q49 0 91.5 -8.5t74 -22.5
t49.5 -33.5t18 -41.5q0 -23 -21.5 -37.5t-53.5 -14.5q-30 0 -50.5 12t-20.5 31z" />
    <glyph glyph-name="underscore" unicode="_" horiz-adv-x="500" 
d="M500 -134v-53h-500v53h500z" />
    <glyph glyph-name="grave" unicode="`" horiz-adv-x="260" 
d="M157 527l36 -98l-126 98h90z" />
    <glyph glyph-name="a" unicode="a" horiz-adv-x="347" 
d="M261 143q-11 -22 -21 -45.5t-16 -40.5q-8 -24 -8 -30q0 -14 12 -14q19 0 54 50q5 8 10 17t12.5 23t18 34t25.5 50q1 7 6 7q6 0 6 -6q0 -2 -3 -6l-4.5 -9l-9.5 -19q-2 -5 -4.5 -9.5t-4.5 -9.5q-37 -75 -62.5 -105.5t-51.5 -30.5q-14 0 -23 9t-14.5 22.5t-8 28.5t-2.5 27
q0 8 1 18t4 21v2l-5 -10q-32 -64 -56.5 -90.5t-50.5 -26.5q-21 0 -33 12q-20 12 -30.5 37.5t-10.5 61.5q0 46 18.5 94t47.5 87t64 64t69 25q4 0 6 -1q10 2 15 2q44 0 44 -54v-10l30 64h87zM244 326q0 16 -7.5 26.5t-19.5 10.5q-22 -1 -52.5 -38t-64.5 -106
q-55 -107 -55 -163q0 -18 8 -28.5t21 -10.5q26 0 67 66q20 35 42 79t39 84q22 51 22 80z" />
    <glyph glyph-name="b" unicode="b" horiz-adv-x="326" 
d="M250 137q-74 -138 -148 -138q-31 0 -44 22q-32 26 -32 88q0 28 6.5 58.5t20.5 59.5l14 30l1 2l-2 -1q-39 -30 -58 -67l-5 -10q-3 -4 -6 -4q-5 0 -5 5q0 3 5.5 13.5t12.5 20.5q22 33 61 59l4 3q1 0 1 0.5t2 0.5l1 3q33 66 70.5 126.5t77 107t79.5 74.5t78 28
q18 0 29 -14.5t11 -38.5q0 -55 -49 -105q-30 -31 -77.5 -65.5t-105.5 -67.5l-6 -4l-4 -10q-5 -9 -12 -23.5t-14.5 -31t-15 -33.5t-13.5 -32q-23 -54 -33 -86.5t-10 -55.5q0 -35 28 -35q17 0 39.5 14.5t39.5 36.5q11 15 26 37t27 45q-17 20 -17 66q0 26 10 58.5t27 58.5
q13 20 26 31.5t24 11.5q3 0 5 -0.5t6 -2.5l-2 -2q7 -9 7 -23q0 -20 -6 -42t-21 -60q-9 -23 -23 -51.5t-25 -46.5q9 -3 14 -3q35 0 55 41q3 6 4.5 7.5t3.5 1.5q5 0 5 -5q0 -3 -3 -9.5t-8 -13.5q-21 -33 -56 -33q-13 0 -20 4zM196 345q32 20 60.5 45t57.5 60q17 19 31.5 39.5
t25.5 40t17.5 36t6.5 25.5q0 15 -13 15q-25 0 -72 -62q-14 -19 -26.5 -38t-25.5 -41.5t-27 -50t-31 -63.5zM246 153q-1 0 -1 2v-5q0 2 1 3z" />
    <glyph glyph-name="c" unicode="c" horiz-adv-x="260" 
d="M38 19q-22 16 -34 43.5t-12 61.5q0 23 8 50.5t21.5 55.5t32 53t39.5 44q19 18 34 28.5t30 16.5t30 8t34 2q26 0 42.5 -21t16.5 -54q0 -20 -6.5 -39.5t-17.5 -34.5t-25 -24.5t-28 -9.5h-9h-1l-1 1q-12 9 -12 30q0 15 6.5 31.5t16 29.5t21.5 21.5t24 8.5l1 -1q1 4 1 8v8
q0 15 -6 24t-16 9q-28 0 -71 -64q-22 -33 -42 -72t-34 -78q-11 -29 -15.5 -48.5t-4.5 -39.5q0 -54 42 -54q84 0 156 163q5 13 7 15.5t4 2.5q6 0 6 -5q0 -2 -1 -5t-6 -13q-42 -92 -82 -132t-90 -40q-37 0 -59 20l-1 1z" />
    <glyph glyph-name="d" unicode="d" horiz-adv-x="347" 
d="M260 143q-10 -22 -20 -45.5t-17 -40.5q-7 -20 -7 -30q0 -14 12 -14q21 0 53 50q5 8 10.5 17t13 23t17.5 34l25 50q3 7 7 7q5 0 5 -6q0 -3 -2 -6l-14 -28q-2 -5 -4.5 -9.5t-4.5 -9.5q-37 -75 -62.5 -105.5t-51.5 -30.5q-17 0 -26 10t-9 25q-12 21 -12 52q0 14 5 39l-4 -8
q-32 -64 -56.5 -90.5t-50.5 -26.5q-18 0 -30 9q-20 10 -32 33q-14 28 -14 69q0 46 18.5 94t47 87t63.5 64t69 25q4 0 7 -1q-1 -1 -3 -1q10 3 20 3q20 0 32 -14t12 -40q0 -6 -1 -10l138 296h86zM246 326q0 16 -7.5 26.5t-19.5 10.5q-22 -1 -52.5 -38.5t-65.5 -105.5
q-54 -107 -54 -163q0 -18 8 -28.5t21 -10.5q27 0 67 66q20 35 42 79t38 84q23 52 23 80z" />
    <glyph glyph-name="e" unicode="e" horiz-adv-x="264" 
d="M219 382q25 0 42 -20t17 -50q0 -33 -18.5 -68t-48 -64.5t-67.5 -49.5t-77 -24q-3 -10 -4.5 -17.5t-1.5 -16.5q0 -27 11.5 -42t32.5 -15q42 0 84 43t75 121q5 10 6.5 12.5t4.5 2.5q5 0 5 -6v-1l-1 -3l-1 -2q-16 -41 -37 -74.5t-44 -57.5t-47.5 -37.5t-47.5 -13.5
q-32 0 -53 15q-58 25 -58 108q0 46 20.5 93.5t59.5 92.5q31 35 70.5 57t77.5 17zM70 119q41 4 86 58q20 23 40.5 54.5t32.5 56.5q18 36 18 55q0 25 -22 25q-17 0 -40 -26t-49 -75q-26 -46 -41.5 -82t-24.5 -66z" />
    <glyph glyph-name="f" unicode="f" horiz-adv-x="296" 
d="M146 250q28 61 50.5 106t41 78t35.5 56.5t35 43.5q53 57 104 76q17 8 33 8q20 0 26 -15q7 -7 9 -15q3 -8 3 -22q0 -61 -64 -137q-16 -19 -37.5 -40.5t-45.5 -41.5q-14 -12 -23 -18.5t-23 -14.5l-11 -10q-30 -28 -56 -47l-97 -223q1 1 4 1q16 4 28.5 8t22.5 9t19.5 12.5
t20.5 18.5q20 20 40.5 48t34.5 54l5 7q1 2 3 2q6 0 6 -6q0 -7 -18 -32q-29 -45 -60.5 -77.5t-58.5 -44.5q-11 -5 -26.5 -8.5t-26.5 -4.5l-126 -288h-89l142 306q-51 31 -51 98q0 54 31 109q20 33 42.5 54.5t38.5 21.5q5 0 12 -5l-2 -1q2 -4 2 -5q1 -2 1 -7q0 -18 -11 -46
t-29 -54l-2 -4l5 3q11 5 17.5 8.5t8.5 4.5q5 3 13.5 7t11.5 6zM232 279q35 27 75 73.5t88 113.5q65 91 65 123q0 18 -16 18q-14 0 -30 -10.5t-31 -27.5q-18 -24 -43.5 -65t-43.5 -83l-30 -66l-25 -54zM25 155q-7 -20 -7 -41q0 -42 34 -64l75 162q-7 -4 -24.5 -12.5
t-31.5 -15.5l-5 -2l-3 -1q-20 -21 -38 -26zM345 370q3 3 5 6q-3 -2 -5 -6zM331 355l2 2zM359 387v-1v1z" />
    <glyph glyph-name="g" unicode="g" horiz-adv-x="328" 
d="M218 382q43 0 43 -56v-8l30 64h85l-152 -315q69 51 102 118q3 6 4 7.5t4 1.5q5 0 5 -6q0 -1 -3 -8l-4 -7q-17 -33 -43.5 -63.5t-58.5 -53.5l-15 -10l-2 -2l-44 -90q-13 -27 -20.5 -42.5t-13 -25.5t-9 -16.5t-8.5 -15.5q-35 -54 -73.5 -91.5t-76.5 -52.5l5 5
q-35 -30 -68 -30q-26 0 -41 18t-15 48q0 118 224 228l30 14q1 0 9 5l18 38q-30 -36 -59 -36q-16 0 -27 8q-25 8 -39 35t-14 69q0 46 20.5 94t52.5 87.5t72.5 64t81.5 24.5zM250 327q0 16 -7.5 26t-19.5 10q-20 0 -51.5 -38.5t-65.5 -105.5q-54 -107 -54 -164
q0 -17 7.5 -27.5t21.5 -10.5q20 0 47.5 37t68.5 123q15 32 27 59t18 47q8 24 8 44zM104 -19q-41 -23 -81.5 -57.5t-72.5 -71.5t-52 -71.5t-20 -57.5q0 -26 23 -26q34 0 82 66q28 37 58 90.5t54 107.5z" />
    <glyph glyph-name="h" unicode="h" horiz-adv-x="376" 
d="M115 307q22 44 50.5 98t62.5 101.5t74 79.5t84 32q18 0 30 -14t12 -34q0 -27 -17.5 -58.5t-49.5 -59.5q-23 -21 -61 -45.5t-86 -47.5l-4 -2q-1 -1 -1 -5q0 -1 -1 -1l-25 -57l-33 -75q2 3 3 5l2 4q23 42 39.5 66t38.5 47q36 39 65 39q12 0 22 -8.5t17 -20.5t11 -26.5
t4 -26.5q0 -23 -11 -56.5t-31 -70.5l-32 -60q-5 -9 -12 -23.5t-11 -22.5q-7 -17 -7 -23q0 -15 11 -15t26 14t33 39q14 22 25.5 41.5t28.5 53.5q5 11 7 13.5t4 2.5q5 0 5 -5q0 -1 -2 -7l-4 -9q-40 -82 -77.5 -126t-69.5 -44q-9 0 -13 2q2 -2 3 -2h-7q-17 0 -31.5 19t-14.5 43
q0 25 13.5 58.5t44.5 84.5l41 66q17 28 25 46.5t8 30.5q0 18 -16 18q-11 0 -29 -14.5t-38 -39.5q-14 -19 -27.5 -39.5t-28.5 -48.5q-8 -14 -13.5 -25t-15.5 -30q-11 -22 -17 -32.5t-8 -15.5l-27 -55q-13 -26 -19.5 -39.5t-11.5 -26.5h-83l64 137q10 20 19 40.5t19 40.5
q9 18 14 29t12 24l5 11l2 4q-1 -1 -2 -1l-6 -5q-25 -17 -48.5 -43.5t-35.5 -50.5l-2 -5q-1 -4 -5 -4q-6 0 -6 5q0 4 8 17.5t18 26.5q37 48 88 78zM226 378q20 12 34.5 22t26.5 20.5t23 23.5t23 30q13 17 24.5 35.5t20 34.5t13.5 29t5 20q0 14 -12 14q-19 0 -43.5 -24
t-50.5 -66q-8 -13 -17.5 -30.5t-19.5 -37t-19 -39t-16 -36.5z" />
    <glyph glyph-name="i" unicode="i" horiz-adv-x="203" 
d="M113 143q-10 -22 -20 -45.5t-17 -40.5q-7 -20 -7 -30q0 -14 12 -14q21 0 53 50q5 8 10 17t12.5 23t18 34t25.5 50q3 7 7 7q5 0 5 -6q0 -3 -2 -6l-14 -28q-5 -11 -10 -19q-36 -75 -61.5 -105.5t-51.5 -30.5q-17 0 -26 10q-7 8 -9 18q-16 22 -16 59q0 20 6.5 45t20.5 60
q9 22 20.5 48.5t21.5 48.5l20 42l-6 -8l-6 -7q-26 -32 -48.5 -66t-38.5 -66q-4 -6 -7 -6q-5 0 -5 5q0 3 7.5 18t18.5 33q14 23 32 48t33 44l15 18q10 12 18.5 23t10.5 16h90zM276 602q20 -8 20 -33q0 -15 -6 -29t-15 -25t-21 -18t-24 -7h-5v-1q-20 10 -20 34q0 14 6 28
t15 25t20.5 18t22.5 7h6z" />
    <glyph glyph-name="j" unicode="j" horiz-adv-x="171" 
d="M12 -46q-13 -27 -20.5 -42.5t-13 -25.5t-9 -16t-9.5 -15q-34 -54 -72.5 -92t-76.5 -53l11 11q-39 -36 -73 -36q-26 0 -41 18t-15 48q0 120 224 228l30 14q1 0 3 1l3 2q1 0 3 2l154 331q-3 -3 -6 -7q0 -1 -6 -7q-25 -31 -47.5 -65.5t-38.5 -66.5l-1 -2q-3 -4 -6 -4
q-5 0 -5 5q0 3 7.5 17.5t18.5 33.5q14 23 32 48t33 44l15 18q2 2 7 9t10 12q5 8 7.5 11t4.5 7h83l-152 -316q32 23 59.5 55t43.5 64q3 6 4 7.5t3 1.5q6 0 6 -6q0 -1 -4 -8l-3 -7q-17 -33 -44 -63.5t-59 -53.5l-14 -10l-2 -2zM-53 -19q-41 -23 -81 -57.5t-72 -71.5t-52 -71.5
t-20 -57.5q0 -25 23 -25q35 0 82 65q27 37 57.5 90.5t54.5 107.5zM273 603q20 -8 20 -33q0 -15 -6 -29t-15 -25t-21 -18t-24 -7h-8v-2q-20 10 -20 34q0 14 6 28t15 25t20.5 18t22.5 7q5 0 8 -1q1 1 2 3z" />
    <glyph glyph-name="k" unicode="k" horiz-adv-x="354" 
d="M115 307q39 79 73 137.5t66 97t64 57.5t68 19q18 0 30 -14t12 -34q0 -51 -51 -104t-163 -107l-4 -2q-1 -1 -1 -3.5t-1 -2.5l-46 -104l4 7q72 106 112 117q12 3 17 3q24 0 41.5 -17t17.5 -41q0 -29 -16.5 -47t-40.5 -29t-51.5 -16t-49.5 -7q17 -7 25.5 -32t16 -50.5
t17.5 -43t29 -10.5q7 3 13.5 8.5t13 15.5t15 25t19.5 35l7 14q6 8 6 11.5t5 3.5q6 0 6 -6l-3 -6q0 -2 -3 -8q-5 -10 -13.5 -26.5t-17.5 -33t-17 -31t-12 -20.5q-15 -28 -38 -45.5t-44 -17.5q-24 0 -34 10t-12.5 26t1 37.5t7.5 43.5t6.5 44t-1.5 40q-6 12 -11 16t-5 6
q0 7 7 7h5q1 0 2 -0.5t3 -0.5q17 0 32 9.5t26 23.5t17.5 30.5t6.5 31.5t-10 15q-15 0 -39 -27.5t-51.5 -73t-57 -104.5t-55.5 -122l-5 -12h-83l64 137q8 18 17 36.5t17.5 36.5t16.5 34t13 27l7 15q-1 -1 -2 -1l-6 -5q-26 -18 -49 -44.5t-36 -52.5q-2 -6 -6 -6q-6 0 -6 5
q0 10 11.5 27t29 35t37 34.5t36.5 25.5zM226 378q20 12 34.5 22t26.5 20.5t23 23.5t23 30q13 17 24.5 35t20 34.5t13.5 29.5t5 20q0 14 -12 14q-18 0 -36.5 -16.5t-39 -45.5t-42 -69.5t-43.5 -89.5l-5 -12z" />
    <glyph glyph-name="l" unicode="l" horiz-adv-x="205" 
d="M119 143q-11 -23 -20 -45t-17 -41q-8 -22 -8 -30q0 -14 12 -14q17 0 40 30t56 97q9 19 14.5 30t8.5 16t4.5 6.5t3.5 1.5q5 0 5 -6q0 -2 -2 -6l-24 -47q-38 -77 -63 -106.5t-50 -29.5q-17 0 -27 10q-9 10 -9 26q-11 21 -11 51q0 21 6.5 45.5t20.5 59.5q8 20 20.5 48.5
t21.5 48.5l73 157q-5 -6 -6 -10l-8 -11l-41 -61q-35 -52 -61 -95t-46 -85q-4 -6 -7 -6q-5 0 -5 5q0 3 2 7l6 13q7 15 19.5 36t27.5 45.5t31 50t32 48.5l39 57q25 36 49 79.5t45 91.5l2 4h86z" />
    <glyph glyph-name="m" unicode="m" horiz-adv-x="553" 
d="M396 0q-18 0 -32 19t-14 45q0 24 14 57t45 84l40 66q17 28 25 46.5t8 29.5q0 20 -18 20q-14 0 -31.5 -14t-37 -39t-40 -59.5t-39.5 -74.5l-28 -61l-57 -119h-88l62 136q21 48 39.5 93t30.5 80q7 20 9.5 29.5t2.5 16.5q0 12 -8 12q-9 0 -21 -12t-29 -41q-8 -13 -18 -30
t-20.5 -35.5t-19.5 -36.5t-15 -32l-29 -61l-56 -119h-86l62 136q21 48 40 93t31 80q7 20 9.5 29.5t2.5 16.5q0 12 -8 12t-21.5 -14.5t-27.5 -39.5q-8 -16 -16 -31.5t-22 -45.5l-12 -27q-4 -8 -6 -14l-4 -10q-5 -8 -8 -8q-5 0 -5 5q0 3 1 4l2 5q2 4 8.5 18.5t12.5 28.5
q35 78 59 111t44 33q13 0 22 -10t14 -24.5t7.5 -31t2.5 -30.5q0 -11 -1 -21.5t-3 -27.5l-2 -10l2 3q23 43 40 72.5t30.5 47t24 25t20.5 7.5q13 0 20 -10q30 -24 30 -85q0 -12 -1 -22t-4 -28l-1 -10q4 9 11 21.5t15.5 26t18 26.5t17.5 23q49 58 84 58q13 0 24 -8.5t18.5 -21
t11.5 -27.5t4 -27q0 -23 -11.5 -56.5t-31.5 -70.5l-32 -60q-5 -9 -12 -23.5t-10 -22.5q-5 -10 -6 -14.5t-1 -8.5q0 -15 11 -15q10 0 25.5 14t32.5 39q7 11 13 20.5t12 20t13 23.5t16 31q1 3 3 5l2 4l1 3q1 4 5 4q6 0 6 -5q0 -1 -3 -7l-1 -2v-2l-3 -5q-39 -81 -77 -125.5
t-69 -44.5q-10 0 -17 3q1 -1 5 -3h-7z" />
    <glyph glyph-name="n" unicode="n" 
d="M239 0q-18 0 -32 19t-14 43q0 25 13.5 58.5t44.5 84.5l41 66q32 54 32 77q0 8 -4.5 13.5t-12.5 5.5q-14 0 -31.5 -14t-37 -38.5t-40 -59t-39.5 -75.5l-29 -61l-56 -119h-89l62 136q21 48 40 93t31 80q7 20 9.5 29.5t2.5 16.5q0 12 -8 12t-21.5 -14.5t-27.5 -39.5
q-8 -16 -16 -31.5t-22 -45.5l-12 -27q-4 -9 -6 -14l-4 -10q-4 -8 -8 -8q-5 0 -5 5q0 3 1 4l2 5q2 4 8.5 18.5t12.5 28.5q35 78 59 111t44 33q14 0 21 -12q28 -24 28 -84q0 -11 -1 -21.5t-3 -27.5l-2 -10q10 21 28 49t35 48q49 58 83 58q17 0 38 -20.5t21 -63.5
q0 -23 -11 -56.5t-31 -70.5l-33 -60q-5 -9 -12 -23.5t-10 -22.5q-7 -18 -7 -23q0 -15 11 -15q8 0 19.5 9t24.5 25t26.5 36.5t25.5 44.5l16 33l3 5q4 8 5.5 9.5t3.5 1.5q5 0 5 -5q0 -3 -2 -7t-4 -9q-38 -81 -77 -125.5t-70 -44.5q-9 0 -17 3q2 -2 5 -3h-7z" />
    <glyph glyph-name="o" unicode="o" horiz-adv-x="316" 
d="M204 380q28 4 46.5 0t30 -14t16.5 -24.5t5 -32.5q0 -16 -6.5 -40t-18 -51.5t-27 -56.5t-32.5 -54l-6 -10l-2 -2q2 -1 8 -1q48 0 94 94q3 7 7 7q5 0 5 -6l-2 -6l-4 -8q-48 -93 -100 -93h-8l-7 2l-2 -2q-32 -42 -61 -62t-61 -20q-30 0 -47 20l2 -2q-22 12 -34 38t-12 61
q0 22 6.5 47t18.5 50t27.5 49t33.5 43q61 62 130 74zM290 300q1 3 1 10q0 28 -11 44t-31 16q-29 0 -59.5 -32.5t-68.5 -102.5q-14 -25 -28 -56t-25 -60q-8 -23 -12 -37t-4 -25q0 -20 9.5 -31.5t24.5 -11.5q24 0 52.5 20.5t54.5 55.5v4v4q-10 10 -10 32q0 23 12.5 56t32.5 60
q8 11 16 19t15 13q12 9 30 14q1 3 1 8z" />
    <glyph glyph-name="p" unicode="p" horiz-adv-x="383" 
d="M165 420q-17 -18 -38 -46t-42 -60.5t-40 -66t-32 -61.5q-3 -6 -4 -7.5t-4 -1.5q-5 0 -5 5q0 2 0.5 3t2.5 6l2 4q3 6 9.5 17.5t18.5 32.5q50 90 98 150l23 29q2 2 8.5 11.5t11.5 17.5q5 6 8 11.5t8 13.5l4 8h89l-100 -218q44 62 71.5 88t47.5 26q16 0 27 -12
q13 -13 21.5 -31.5t8.5 -41.5t-11 -56.5t-31 -70.5l-33 -60q-5 -9 -12 -23.5t-10 -22.5q-7 -17 -7 -23q0 -15 11 -15q8 0 19.5 9t24.5 25t26.5 36.5t25.5 44.5l16 33l3 5q4 8 5 9.5t4 1.5q5 0 5 -5q0 -1 -2 -7l-2 -4l-2 -5q-39 -81 -77.5 -125.5t-69.5 -44.5q-8 0 -11 1h-5
q-18 0 -32 19t-14 43q0 26 13.5 59t44.5 84l41 66q17 28 24.5 46t7.5 31q0 19 -16 19q-25 0 -74 -64q-20 -26 -34.5 -48t-30.5 -55q-8 -15 -15 -29t-17 -33q-3 -6 -6.5 -12.5t-6.5 -13.5q-8 -14 -9.5 -18t-3.5 -9l-164 -352h-89z" />
    <glyph glyph-name="q" unicode="q" horiz-adv-x="353" 
d="M131 -141q7 10 12 17l17 21q28 36 49.5 64t39 53.5t33 51t32.5 54.5q11 18 20.5 36t15.5 31q2 5 3.5 6.5t3.5 1.5q6 0 6 -6q0 -1 -0.5 -2t-2.5 -6l-2 -5q-11 -23 -27.5 -52.5t-38.5 -64.5q-49 -77 -123 -169q-15 -19 -25.5 -32.5t-18 -25t-13.5 -22.5t-13 -24l-26 -52
h-87l141 304q-30 -37 -59 -37q-17 0 -28 8q-23 9 -35 34q-14 28 -14 69q0 46 18.5 94t47.5 87t69 67t88 23q21 0 32.5 -14t11.5 -40v-10l30 64h87zM247 327q0 16 -7.5 26.5t-19.5 10.5q-22 -1 -52.5 -38.5t-64.5 -105.5q-55 -108 -55 -163q0 -18 8 -28.5t21 -10.5
q27 0 67 66q20 35 42 79t39 84q22 53 22 80z" />
    <glyph glyph-name="r" unicode="r" horiz-adv-x="250" 
d="M47 136q21 48 40 93t31 80q7 20 9.5 29.5t2.5 16.5q0 12 -8 12t-21.5 -14.5t-27.5 -39.5q-9 -16 -16.5 -31.5t-21.5 -45.5q-8 -18 -12.5 -27t-6.5 -14l-4 -10q-2 -8 -7 -8q-6 0 -6 5q0 2 2 4l1 5q2 4 8.5 18.5t13.5 28.5q34 78 58.5 111t44.5 33q14 0 24.5 -14.5
t15.5 -26.5q8 -21 8 -53q0 -19 -2 -40t-6 -39q-1 -2 -1 -3.5t-1 -3.5l2 3l15 24l4 6l4 8q4 7 8 15t9 17l1 1q5 36 15 70q9 29 20 55t24 45.5t26 30.5t25 11q6 0 10 -9.5t4 -20.5q0 -24 -25 -71t-70 -104q-16 -20 -23.5 -31t-13.5 -22q-1 -3 -1 -7v-5q0 -21 7 -33.5t18 -12.5
q14 0 22 17q3 5 6 5q6 0 6 -6q0 -10 -11.5 -19t-22.5 -9q-34 0 -37 53l-4 -6l-15 -25q-15 -24 -23.5 -38t-15.5 -27l-56 -117h-88z" />
    <glyph glyph-name="s" unicode="s" horiz-adv-x="272" 
d="M108 337q30 50 49.5 76.5t37.5 46.5q32 31 65 47.5t64 16.5q19 0 31.5 -8t12.5 -19q0 -4 -1 -5h-2q-13 -25 -51 -25q-5 0 -11 0.5t-11 1.5l-18 2q-5 1 -9.5 1.5t-8.5 0.5h-19q3 3 13 7q-23 -8 -38 -21q-18 -16 -22 -41q1 -11 6 -33q1 -4 2.5 -11.5t4.5 -18.5
q10 -36 16.5 -59.5t10 -39.5t4.5 -27.5t1 -24.5q0 -48 -17 -86t-45.5 -64.5t-66 -40.5t-79.5 -14q-35 0 -57.5 25.5t-22.5 67.5t23 73.5t58 40.5zM40 207q23 0 37.5 -11t14.5 -27v-7h-3q-3 -26 -21 -44t-44 -18q-23 0 -32 20q1 2 2 3t2 3q-8 -9 -15 -25q-8 -19 -8 -38
q0 -23 13.5 -36.5t35.5 -13.5q31 0 60.5 34.5t53.5 98.5q18 49 28.5 114.5t15.5 156.5v10q-10 -12 -21.5 -28.5t-21.5 -32.5l-16 -26z" />
    <glyph glyph-name="t" unicode="t" horiz-adv-x="198" 
d="M151 416h-55q-7 0 -7 5q0 6 7 6h60l45 97h88l-45 -97h84q7 0 7 -6q0 -5 -7 -5h-90l-127 -273q-10 -22 -20 -45.5t-17 -40.5q-7 -20 -7 -30q0 -14 12 -14q17 0 39.5 30t55.5 97q10 19 15.5 30t8.5 16.5t4 6.5t3 1q5 0 5 -6q0 -3 -2 -6l-14 -28q-2 -5 -5 -9.5t-5 -9.5
q-37 -75 -62 -105.5t-51 -30.5q-17 0 -26 10q-8 9 -9 22q-14 21 -14 55q0 20 6.5 45t20.5 60q9 22 20.5 48.5t21.5 48.5l20 42l-6 -8l-6 -7q-26 -32 -48.5 -66t-38.5 -66q-4 -6 -7 -6q-5 0 -5 5q0 3 7.5 18t18.5 33q14 23 32 48t33 44l15 18q10 12 18.5 23t10.5 16z" />
    <glyph glyph-name="u" unicode="u" horiz-adv-x="376" 
d="M291 143q-8 -17 -16 -34.5t-14 -33.5t-10 -28.5t-4 -19.5q0 -14 12 -14q16 0 37 26.5t57 97.5l25 50q3 7 7 7q5 0 5 -6q0 -2 -2 -6l-14 -28q-37 -86 -67.5 -120.5t-55.5 -34.5q-14 0 -23 9t-15 22.5t-8.5 28t-2.5 26.5q0 10 2 23t4 24v-1q-38 -70 -67.5 -101t-58.5 -31
q-30 0 -45 26t-15 61q0 31 20 85t49 117l20 42l-12 -15q-11 -13 -26 -36.5t-30 -46l-26 -39t-12 -16.5q-5 0 -5 5t9 22t22.5 38.5t29.5 43.5t30 39l15 18q10 12 18.5 23t10.5 16h87l-111 -239q-16 -36 -29.5 -68.5t-13.5 -42.5q0 -18 18 -18q15 0 32 14.5t34.5 38.5t35 55
t33.5 64l94 196h88z" />
    <glyph glyph-name="v" unicode="v" horiz-adv-x="345" 
d="M117 0q-7 -2 -10.5 -2h-8.5q-32 0 -53 23t-21 59t32 95q7 12 18 29.5t24 36t26 36.5t23 30q15 19 20.5 28t5.5 17q0 13 -14 13q-16 0 -35.5 -18t-47.5 -56q-5 -7 -9 -13t-8.5 -13t-10 -16t-12.5 -22q-8 -15 -13.5 -23.5t-7.5 -13.5l-3 -7q-5 -6 -7 -6q-5 0 -5 5
q0 3 8.5 19t29.5 51q35 60 70 95t59 35q40 0 50.5 -20t2.5 -51.5t-28 -70.5t-40.5 -77t-35.5 -71t-12 -52q2 -9 9 -16t16 -7q26 0 61.5 33t77.5 96l3 3q-8 8 -9.5 19t-1.5 22q0 40 26 101q35 77 59 77h2q1 1 1 2q19 -7 19 -32q0 -12 -6.5 -32.5t-18 -45.5t-26 -53t-30.5 -54
q4 -2 6 -2.5t7 -0.5q14 0 26 8.5t19 22.5q3 7 7 7q5 0 5 -6q0 -5 -8 -16q-8 -12 -21 -19.5t-27 -7.5q-10 0 -19 6l-2 -3q-42 -66 -84.5 -103.5t-75.5 -37.5h-5q1 -1 3 -1z" />
    <glyph glyph-name="w" unicode="w" horiz-adv-x="538" 
d="M63 6q-39 19 -39 73q0 20 7 44t19 45q9 16 21.5 33t27.5 35q6 8 18 22.5t29 34.5q20 23 28.5 37.5t8.5 23.5q0 6 -4 10.5t-11 4.5q-13 0 -37 -22t-51 -57q-20 -28 -39 -57.5t-29 -49.5q-5 -6 -7 -6q-5 0 -5 5q0 2 4 10t10 19t14.5 24t17.5 26q45 64 76.5 94t56.5 30
q10 0 18 -6l-2 3q17 -4 27.5 -16t10.5 -29q0 -38 -43 -111l-35 -59q-16 -26 -29.5 -52.5t-21.5 -43.5q-5 -12 -7 -19t-2 -13q0 -9 5 -15.5t13 -6.5q30 0 70 61q8 12 14.5 22.5t13 21.5t13.5 24.5t17 31.5l33 66q12 23 17 33t7 16l42 89h42l1 1h45l-117 -252l-14 -28
q-12 -27 -17 -41t-5 -23q0 -12 7.5 -19.5t20.5 -7.5q31 0 66 31t78 100l6 8q-16 25 -16 56q0 24 9.5 54.5t26.5 59.5q34 61 63 61q14 0 16 -9t2 -19q0 -33 -34 -105q-6 -11 -13.5 -25t-14.5 -27.5t-13.5 -25.5t-10.5 -18l-1 -2q7 -3 16 -3q16 0 31 11t24 29l1 3q3 4 6 4
q5 0 5 -6q0 -2 -3 -8.5t-8 -11.5q-24 -32 -58 -32q-11 0 -20 4l-2 -2l-25 -37q-38 -54 -70 -78t-64 -24q-29 0 -45 13q-13 10 -16 25q-7 10 -10 22q-4 12 -4 35q0 16 3 33q-7 -11 -14 -23t-15 -24q-8 -13 -16 -23.5t-16 -18.5q-34 -40 -75 -40q-20 0 -31 11l-2 2q1 -2 2 -3
t2 -3z" />
    <glyph glyph-name="x" unicode="x" horiz-adv-x="405" 
d="M169 1q-3 0 -5.5 -0.5t-4.5 -0.5q-29 0 -45 18t-16 50v11q0 5 1 12q-3 -4 -4 -4l-24 -32q-17 -23 -42 -39.5t-43 -16.5q-22 0 -35 14.5t-13 40.5q0 19 8 42.5t20.5 46t28.5 40.5t32 26q21 37 45 69t48.5 55.5t48 36.5t42.5 13q9 0 17 -4q23 -4 37 -25t14 -56
q0 -12 -1.5 -21.5t-4.5 -21.5q2 3 3.5 5.5t2.5 3.5l25 34q27 38 55 61t48 23q2 0 4 -1l4 -1v1q19 -9 19 -32q0 -20 -15 -45.5t-37 -42.5q-8 -7 -19.5 -11.5t-19.5 -4.5q-2 0 -4 0.5t-5 1.5q-16 11 -16 29q0 2 2 10q-23 -18 -43 -47l-12 -19l-2 -2h53q6 0 6 -6q0 -5 -6 -5
h-60l-13 -24l-12 -22q-19 -33 -30 -54t-17 -33.5t-8 -20t-2 -14.5q0 -25 32 -25q57 0 119 64q23 23 45.5 53t34.5 54q3 7 7 7q5 0 5 -6q0 -2 -2 -6l-4 -8q-9 -18 -23 -37.5t-29.5 -38t-32.5 -34.5t-32 -27q-48 -36 -95 -36q-22 0 -37 5q3 -1 7 -3zM155 209h-47q-7 0 -7 5
q0 6 7 6h53l26 50q20 38 27.5 56.5t7.5 28.5q0 16 -16 16t-38.5 -14t-46 -36.5t-45.5 -51t-35 -56.5q5 1 8 1h8q11 0 19 -5l-2 -1q3 -6 4 -10t1 -12q0 -17 -7 -35t-18.5 -33t-25 -24.5t-26.5 -9.5h-4q-2 1 -5 1l-1 -3q-8 3 -11 8t-5 16q-11 -12 -18.5 -28.5t-7.5 -29.5
q0 -17 10 -27.5t25 -10.5q30 0 67 40q11 11 25 30t28 41t27 44.5t22 40.5z" />
    <glyph glyph-name="y" unicode="y" horiz-adv-x="369" 
d="M85 1l-6 -1q-1 -1 -4 -1q-24 0 -42.5 23t-18.5 55q0 15 7.5 36.5t20.5 44.5q10 17 20.5 35t23.5 36l7 10q2 3 6.5 8t9.5 12q4 5 7.5 10t7.5 10q23 31 32 46.5t9 23.5q0 7 -4.5 11.5t-10.5 4.5q-9 0 -22 -10t-28 -27t-30.5 -41t-30.5 -52l-23 -44q-2 -2 -2.5 -4t-1.5 -4
q-5 -6 -7 -6q-5 0 -5 5q0 1 2 7l4 7q7 14 19 36.5t24 42.5q31 52 60 79.5t52 27.5q24 0 39 -15t15 -39q0 -18 -8.5 -41.5t-28.5 -65.5l-16 -32q-4 -8 -6 -12.5t-5 -9.5l-25 -51q-15 -31 -21 -48t-6 -27q0 -16 12 -16q16 0 46 34q30 31 54 71.5t54 106.5l67 143h85l-153 -316
q34 25 60.5 56t42.5 63q3 6 4 7.5t4 1.5q5 0 5 -6q0 -2 -5 -11.5t-13 -22.5q-15 -26 -40 -52.5t-51 -45.5l-15 -10l-2 -2l-44 -90q-13 -27 -21 -42.5t-13 -25.5t-8.5 -16t-8.5 -15q-35 -54 -73.5 -92t-76.5 -53q-14 -9 -34.5 -16t-39 -5.5t-32 15.5t-13.5 47q0 118 224 228
l30 14q1 0 9 5l42 90l-1 -2q-9 -11 -21 -24.5t-24 -25.5q-18 -18 -30.5 -25t-25.5 -7q-5 0 -8.5 0.5t-7.5 1.5q2 -1 8 -3zM145 -21q-41 -23 -81.5 -57.5t-72.5 -71.5t-52 -71.5t-20 -57.5q0 -25 23 -25q35 0 82 65q28 37 58 90.5t54 107.5z" />
    <glyph glyph-name="z" unicode="z" horiz-adv-x="355" 
d="M-6 80q11 17 40 28.5t61 11.5q12 0 35.5 -5.5t49 -11.5t47.5 -11.5t32 -5.5q15 0 26 3.5t20.5 13t18.5 25.5t20 41q5 10 7 12.5t4 2.5q6 0 6 -5q0 -1 -0.5 -2t-0.5 -3l-1 -2q-12 -29 -29 -61t-38 -58t-46 -43t-53 -17q-46 0 -83 35l-30 28q-14 13 -25.5 20t-22.5 7
t-22.5 -7.5t-22.5 -18.5t-19 -24t-11 -23l-1 -6q-2 -5 -6 -5q-5 0 -5 6t3.5 16.5t9 23.5t13 26t15.5 23q29 38 70 64.5t98 40.5l72 17q21 6 40.5 16.5t36 24t28 30t16.5 34.5q-9 -12 -22 -22.5t-26.5 -18.5t-26.5 -12.5t-22 -4.5q-23 -1 -45.5 7.5t-42 19.5t-35.5 20.5
t-28 9.5q-15 0 -30.5 -13.5t-30.5 -33.5t-28 -42t-23 -40l-3 -7q-5 -6 -7 -6q-5 0 -5 5q0 1 2 7l3 6l14 23t33 53t38.5 57.5t31.5 36.5q6 7 16.5 12.5t22 9.5t23 6t20.5 2q10 0 17 -0.5t16 -5t21.5 -14t32.5 -27.5q30 -27 51 -27q14 0 28 15t16 35l1 9q2 8 6 8q6 0 6 -11
q0 -32 -10 -62t-34.5 -56.5t-65.5 -48t-102 -35.5q-72 -19 -112 -42t-53 -54z" />
    <glyph glyph-name="braceleft" unicode="{" horiz-adv-x="1351" 
d="M1001 183q-50 0 -91 8.5t-70.5 24.5t-45.5 38.5t-16 49.5q0 24 14.5 43.5t31.5 19.5q8 0 8 -7q0 -6 -9 -6q-13 -1 -23 -16t-10 -34q0 -25 16 -45.5t44.5 -35t69 -22.5t90.5 -8q58 0 108.5 11.5t87.5 31.5t58 48t21 60q0 41 -49.5 64.5t-134.5 23.5q-99 0 -195 -21
q-42 -8 -90 -19t-104 -25q-88 -22 -168.5 -39t-153.5 -31q-48 -9 -95 -13.5t-88 -4.5q-95 0 -135 37q-18 16 -18 32q0 8 4 14t9 6q7 0 7 -6l-2 -6q-3 -5 -3 -9q0 -15 17 -27q23 -16 51 -23t70 -7q26 0 60.5 2t66.5 7q55 7 149.5 32t220.5 66q65 21 117 35.5t96 23.5t83 13
t78 4q133 0 187 -55q32 -32 32 -73q0 -27 -16 -54t-42 -46q-86 -62 -238 -62z" />
    <glyph glyph-name="bar" unicode="|" horiz-adv-x="817" 
d="M478 -4q-45 8 -69 38.5t-24 79.5q0 23 8 46.5t26 52.5q11 19 27.5 40t36.5 45q11 12 32.5 36t52.5 56q42 45 69 76.5t43 54t22 39t6 32.5q0 26 -16.5 42t-43.5 16q-34 0 -75 -24.5t-83 -72.5q-20 -23 -38 -50.5t-31 -55t-20.5 -53t-7.5 -45.5q0 -36 29 -36q17 0 37 14
t36 37q21 28 21 57q0 21 -16 33q-4 3 -4 5q0 5 5 5q9 0 17.5 -14t8.5 -30q0 -20 -10 -41.5t-26 -38.5t-35 -28t-38 -11q-10 0 -19 3q1 -1 1.5 -1t1.5 -1l-7 5q-2 1 -3 2t-3 2l-1 1q-16 14 -23 30q-11 24 -11 55q0 29 9.5 58.5t26.5 57t41 52.5t53 44q33 22 64.5 33.5
t76.5 16.5q6 1 12 1.5t11 0.5q21 0 36.5 -9.5t25 -26t13.5 -38t3 -46.5q-2 -45 -27 -100.5t-79 -127.5l-66 -88q-28 -37 -46.5 -64t-29.5 -47t-15.5 -34.5t-4.5 -27.5q0 -20 12.5 -32.5t34.5 -12.5q52 0 99 53q12 13 28 38t37 62q5 10 13 25.5t23 44.5q16 31 24 45.5
t14 26.5q20 41 32.5 65.5t21 40.5t15.5 27t17 26q59 84 122 131q61 46 137 63q30 12 57 12q25 0 41 -10t16 -25q0 -10 -6 -10q-4 0 -6 8q-2 26 -46 26q-61 0 -141 -71q-38 -35 -94.5 -111.5t-122.5 -185.5q-29 -47 -49 -79.5t-35.5 -55.5t-28.5 -39.5t-26 -29.5
q-12 -12 -28 -25q-5 -7 -11 -12.5t-11 -10.5q-23 -21 -46.5 -30.5t-48.5 -9.5q-16 0 -31 5z" />
    <glyph glyph-name="braceright" unicode="}" horiz-adv-x="1351" 
d="M55 346q0 20 8 39t24 33q56 55 177 55q43 0 83 -3.5t84.5 -12.5t96.5 -23.5t120 -36.5t135 -41.5t115 -32.5q37 -9 68 -15.5t59.5 -10.5t57 -5.5t60.5 -1.5q45 0 73.5 7.5t50.5 24.5q15 10 15 25q0 4 -3 9l-2 6q0 2 2.5 4t4.5 2q5 0 9 -5.5t4 -13.5q0 -18 -17 -33
q-23 -20 -55 -29t-80 -9q-26 0 -60 2.5t-68 7.5q-29 4 -70 11.5t-90.5 18t-105 23t-112.5 26.5q-56 14 -103.5 25t-89.5 19q-98 21 -192 21q-88 0 -137.5 -23t-49.5 -64q0 -33 21 -60.5t57.5 -48t87 -32t109.5 -11.5q100 0 159.5 30t59.5 81q0 19 -10 34t-23 16q-9 0 -9 6
q0 7 9 7q8 0 16 -5.5t14.5 -14.5t10.5 -20t4 -23q0 -56 -61.5 -89t-165.5 -33q-63 0 -116.5 12.5t-92 34t-60.5 51.5t-22 66z" />
    <glyph glyph-name="asciitilde" unicode="~" horiz-adv-x="1583" 
d="M202 294q-3 -19 -22 -30.5t-48 -11.5q-32 0 -54 15t-22 37q0 18 15 37.5t38 31.5q36 19 80 28.5t101 9.5q22 0 42.5 -1.5t37.5 -3.5q35 -5 69.5 -10t86.5 -15q26 -5 52 -9.5t52 -9.5q104 -21 210.5 -38.5t201.5 -31t171.5 -21t119.5 -7.5q38 0 71 6t58 16.5t39 25
t14 30.5v3v4q0 5 4 5q9 0 9 -11q0 -19 -15 -35.5t-41.5 -29t-61.5 -20t-74 -7.5q-30 0 -73 3.5t-91 9.5q-80 10 -137.5 17.5t-101.5 13.5t-79.5 11.5t-71.5 11.5l-199 31q-71 11 -149.5 18t-150.5 7q-71 0 -123 -9.5t-72 -24.5q-21 -15 -21 -35q0 -17 18.5 -29.5t44.5 -12.5
q25 0 42.5 9.5t17.5 23.5v4q0 5 5 5q7 0 7 -11z" />
    <glyph glyph-name="Adieresis" unicode="&#xc4;" horiz-adv-x="1035" 
d="M478 -4q-45 8 -69 38.5t-24 79.5q0 25 9 50.5t30 57t56 72t88 96.5q42 45 69 76t43 54t22 39.5t6 32.5q0 26 -16.5 42t-43.5 16q-23 0 -51 -14t-56.5 -37.5t-55 -54t-47.5 -64t-33.5 -67.5t-12.5 -64q0 -36 30 -36q13 0 29.5 9.5t30.5 25t24 34.5t10 39q0 7 -3 13
t-7 11.5t-7 9t-3 4.5q0 5 5 5q9 0 17.5 -14t8.5 -30q0 -20 -10 -41t-25.5 -38t-35 -28t-37.5 -11q-12 0 -24 5l3 -3q-26 18 -37 40t-11 55q0 45 20.5 89t57 80t86 61t107.5 32q-9 -3 -18 -6.5t-17 -7.5q36 14 62 14q21 0 36 -9.5t25.5 -26t15.5 -38.5t5 -46
q0 -45 -26 -100.5t-80 -127.5l-66 -88q-28 -38 -46.5 -64.5t-29.5 -46t-15.5 -34t-4.5 -27.5q0 -43 37 -43q31 0 77 45t90 126l21 39q7 13 17.5 33t21 39.5t18 35t8.5 18.5l120 248h99l-255 -511q-5 -15 -12 -33t-7 -24q0 -21 23 -21q22 0 41 8.5t40 32.5t46 67.5t61 113.5
q34 67 52.5 105t29.5 60.5t18.5 36t20.5 31.5q57 85 119.5 132t137.5 64l-4 -2l-4 -2q28 12 56 12q25 0 41 -10t16 -26q0 -9 -6 -9q-3 0 -4.5 5.5t-6.5 11.5t-14 11.5t-27 5.5q-62 0 -138 -71q-38 -35 -92 -112t-120 -185q-28 -47 -48 -79.5t-35.5 -55.5t-27.5 -39.5
t-25 -29.5l-7 -7q-30 -42 -61.5 -61.5t-58.5 -19.5q-22 0 -36 10.5t-22.5 24.5t-11.5 28.5t-3 22.5q0 20 6.5 41.5t21.5 53.5l-12 -20q-27 -45 -49.5 -75t-42.5 -48t-38.5 -25.5t-36.5 -7.5q-17 0 -30 6q2 -2 5 -4t7 -4z" />
    <glyph glyph-name="Aring" unicode="&#xc5;" horiz-adv-x="255" 
d="M275 372q11 9 22 20q-46 -42 -112 -75l-6 -14h94q6 0 6 -5q0 -6 -6 -6h-99l-244 -559h-92l246 527q-21 -14 -40 -34t-30 -40l-3 -5q-3 -4 -5 -4q-6 0 -6 5q0 3 4.5 11.5t12.5 18.5q15 20 34.5 37.5t40.5 28.5l7 14h-63q-6 0 -6 6q0 5 6 5h68l3 5q20 43 37.5 77.5t34 61.5
t31.5 48t31 39q55 60 111 78q-2 -2 -5 -3q18 9 35 9q26 0 29 -25l2 -6q3 -7 3 -20q0 -20 -11.5 -47t-31.5 -58q-23 -35 -47 -56.5t-51 -33.5zM192 333q75 41 136 125q14 19 26.5 39t22 38t15 32t5.5 22q0 18 -16 18q-14 0 -30.5 -10.5t-30.5 -27.5q-10 -12 -21.5 -28.5
t-23 -36.5t-22.5 -41t-20 -42l-30 -66q-1 -2 -2.5 -4.5t-3.5 -6.5z" />
    <glyph glyph-name="Ccedilla" unicode="&#xc7;" horiz-adv-x="650" 
d="M382 -25q23 -2 36.5 -12.5t13.5 -27.5q0 -19 -18 -30.5t-46 -11.5q-25 0 -40.5 10.5t-15.5 27.5q0 12 9 12q6 0 6 -8v-5q0 -22 29 -22q14 0 23.5 11.5t9.5 28.5t-17 17q-4 0 -7 -1l15 34q-33 14 -52.5 57.5t-19.5 102.5q0 46 12.5 96.5t36 101.5t56 99.5t71.5 89.5
q49 51 102 82t93 31q28 0 44.5 -17.5t16.5 -46.5q0 -46 -30.5 -104t-82.5 -112q-60 -63 -121 -96t-131 -42q-12 -41 -18.5 -79t-6.5 -73q0 -41 17 -63.5t47 -22.5q28 0 53.5 19.5t53.5 63.5q39 61 39 111q0 22 -11 35t-30 13q-20 0 -34.5 -16t-14.5 -37q0 -17 13 -27
q4 -3 4 -5q0 -5 -5 -5q-8 0 -15.5 12t-7.5 26q0 27 18.5 45.5t46.5 18.5q35 0 58 -25t23 -64q0 -33 -16.5 -64.5t-43 -56.5t-61 -40t-70.5 -15q-10 0 -23 3zM162 269q-38 18 -61 64t-23 102q0 43 15.5 81.5t42 67t61.5 45.5t75 17q5 0 14.5 -1t21.5 -3q-42 -2 -78.5 -21.5
t-63.5 -51t-43 -73t-16 -87.5q0 -82 55 -140zM751 601q4 -14 5 -23t1 -21q0 -49 -20 -95.5t-56 -86.5t-84.5 -69.5t-105.5 -44.5q55 28 105.5 72t88.5 96q34 48 50 89.5t16 82.5zM253 240q-63 12 -98 57.5t-35 114.5q0 49 20 93.5t56 76.5q27 23 58 36.5t57 13.5
q29 0 46.5 -15t17.5 -40q0 -23 -15.5 -40t-37.5 -17q-15 0 -26.5 9.5t-11.5 21.5q0 5 6 5q4 0 5 -4l1 -4q5 -17 26 -17q17 0 29.5 13.5t12.5 33.5t-13 31.5t-34 11.5q-26 0 -56 -19.5t-56 -54.5q-58 -76 -58 -157q0 -59 27.5 -94.5t79.5 -44.5q17 81 49 145t87 123
q54 59 114.5 94.5t120.5 43.5q-60 -24 -109.5 -66t-98.5 -109q-57 -79 -88.5 -164.5t-31.5 -160.5q0 -50 12.5 -87t40.5 -65q-48 26 -74 77.5t-26 118.5q0 9 0.5 17t2.5 22zM377 252q44 6 75.5 20t68.5 43q50 38 95.5 92t78.5 114q17 31 24 49t7 33q0 20 -13 32.5t-33 12.5
q-36 0 -79.5 -34t-86 -90t-79.5 -127t-58 -145z" />
    <glyph glyph-name="Eacute" unicode="&#xc9;" horiz-adv-x="529" 
d="M125 36q-30 -36 -59 -36q-33 0 -54 31t-21 81q0 46 18.5 94t47 87t63.5 64t69 25q6 0 7 -1q-7 -3 -14 -7q18 8 31 8q43 0 43 -56v-8l30 64h83l-153 -317l2 2q65 46 118.5 97.5t91.5 104.5t59 105.5t21 101.5q0 75 -44 118t-117 43q-30 0 -57.5 -10t-48.5 -27t-33.5 -39
t-12.5 -46q0 -18 8 -31.5t21 -17.5l8 -3q5 -2 5 -6q0 -7 -9 -7q-18 0 -32 19t-14 44q0 27 13.5 51.5t36.5 43t53 29.5t63 11q43 0 79.5 -16.5t63.5 -45t42 -68.5t15 -86q0 -76 -41 -140.5t-134 -132.5q-14 -11 -35.5 -25.5t-44.5 -30t-45 -30t-37 -24.5l-4 -3l-45 -92
q-6 -13 -11 -22.5t-9 -17.5l-12 -25q-36 -67 -80.5 -114.5t-88.5 -64.5l5 5q-36 -30 -66 -30q-26 0 -41 18t-15 48q0 118 224 228l30 14q1 0 9 5zM245 327q0 16 -7.5 26t-19.5 10t-29 -16.5t-36 -43t-38 -60t-34 -67.5t-24.5 -66t-9.5 -55q0 -17 7.5 -27.5t21.5 -10.5
q19 0 47 37t69 123q25 52 39 86.5t14 63.5zM99 -19q-41 -23 -81.5 -57.5t-72.5 -71.5t-52 -71.5t-20 -57.5q0 -26 23 -26q18 0 42 22t50.5 59t52.5 84.5t49 98.5z" />
    <glyph glyph-name="Ntilde" unicode="&#xd1;" horiz-adv-x="463" 
d="M369 -16q-14 -23 -38.5 -38.5t-48.5 -15.5q-32 0 -55 23t-30 63q-4 19 -5.5 38t-3.5 50q-1 17 -1 25.5v15.5v14q-5 17 -8.5 24.5t-10.5 12.5q-4 4 -4 7q0 5 7 5h12q15 0 31 11t29 28.5t21.5 38.5t8.5 42q0 14 -8 14q-12 0 -50 -41q-38 -42 -78.5 -115.5t-80.5 -173.5
l-5 -12h-81l64 137q10 20 19 40.5t19 40.5q9 18 14 29t12 24l5 11l2 4q-1 -1 -2 -1l-6 -5q-26 -18 -49 -44.5t-36 -52.5q-2 -6 -6 -6q-6 0 -6 5q0 3 5 12.5t13 20.5q19 28 44 51t52 38l1 3q19 38 34 66t28 50t25.5 40.5t27.5 38.5q18 22 36 43t37 37.5t39 26t42 9.5
q18 0 30 -14t12 -34q0 -105 -214 -211l-4 -2q-1 -1 -1 -5q0 -1 -1 -1l-25 -57l-21 -47l4 7q37 54 70.5 85.5t53.5 31.5q3 0 4 -1q2 1 6 1q21 0 35.5 -15t14.5 -35q0 -19 -9 -37.5t-24.5 -34t-36 -27t-44.5 -15.5q-13 -7 -24.5 -10t-19.5 -3h-2q5 -6 8.5 -13l9.5 -19
q36 -73 61 -104q38 -47 78 -47q26 0 43 24t17 60q0 28 -24 36q-7 3 -7 7q0 6 8 6q14 0 24 -14.5t10 -34.5q0 -35 -15 -66t-37 -48q1 1 5 3zM224 378q20 12 34.5 22t26.5 20.5t23 23.5t23 30q13 17 24.5 35t20 34.5t13.5 29.5t5 20q0 14 -12 14q-11 0 -27 -10.5t-29 -25.5
q-16 -19 -30.5 -42t-32.5 -58q-11 -20 -21.5 -42t-20.5 -43l-5 -12z" />
    <glyph glyph-name="Odieresis" unicode="&#xd6;" horiz-adv-x="208" 
d="M206 320q-2 -5 -6 -13.5t-15 -31.5l-15 -30q-25 -54 -46.5 -101.5t-32.5 -73.5q-7 -18 -10 -27.5t-3 -15.5q0 -14 12 -14q22 0 54 50q5 8 10 17t12.5 23t18 34t25.5 50q2 7 6 7q6 0 6 -6q0 -2 -3 -6l-4.5 -9l-9.5 -19q-2 -5 -4.5 -9.5t-4.5 -9.5q-37 -75 -62.5 -105.5
t-51.5 -30.5q-16 0 -25.5 10.5t-9.5 27.5q0 11 2 23t8.5 29.5t18 44t29.5 66.5q12 26 22 48t20 41.5t20 38.5t21 39q72 128 124 189.5t88 61.5q20 0 32 -15t12 -39q0 -64 -83 -135q-16 -14 -36.5 -29.5t-41.5 -29.5t-40.5 -26.5t-34.5 -19.5zM77 260q-37 -20 -62 -70l-3 -7
q-4 -6 -7 -6q-5 0 -5 5q0 3 1 4l1 3l4 8q12 25 33.5 47.5t44.5 33.5l5 9q38 75 76.5 133.5t75.5 99.5q52 55 93 75l-5 -6l-22 -25q-28 -30 -65 -86.5t-75 -126.5q-8 -15 -15.5 -29.5t-16 -31.5t-18 -38t-22.5 -49q-10 -22 -17 -37.5t-12.5 -27.5t-9 -20.5t-6.5 -16.5
q-13 -35 -13 -61v-6.5t1 -7.5q-18 24 -18 60q0 21 6 45t21 60q11 26 17 40.5t13 28.5zM218 343q74 47 141 138q11 16 21 32.5t17.5 32t12 28t4.5 19.5q0 16 -13 16q-10 0 -23.5 -9.5t-29.5 -26.5q-16 -19 -44 -66q-13 -21 -27.5 -48t-22.5 -43l-32 -66q0 -1 -1 -2t-3 -5z
" />
    <glyph glyph-name="Udieresis" unicode="&#xdc;" horiz-adv-x="693" 
d="M47 136q21 48 40 93t31 80q7 20 9.5 29.5t2.5 16.5q0 12 -8 12t-21.5 -14.5t-27.5 -39.5q-8 -16 -16 -31.5t-22 -45.5l-12 -27q-4 -9 -6 -14l-4 -10q-2 -5 -4 -6.5t-4 -1.5q-5 0 -5 5q0 3 1 4l2 5q2 4 8.5 18.5t12.5 28.5q35 78 59 111t44 33q13 0 20 -10q30 -23 30 -86
q0 -11 -1 -21.5t-3 -27.5l-2 -10l2 3q23 43 40 72.5t30.5 47t24 25t20.5 7.5q16 0 23 -16q24 -25 24 -79q0 -12 -1 -22t-4 -28l-1 -10q4 9 11 21.5t15.5 26t18 26.5t17.5 23q49 58 84 58q17 0 26 -12l2 -2q32 -20 32 -69q0 -26 -10.5 -57.5t-38.5 -86.5l-46 -94l-41 -83
q-20 -41 -28 -61.5t-8 -36.5q0 -14 9 -23t24 -9q31 0 66.5 26t69.5 74q32 46 52 92t20 76q0 16 -8 26t-19 10q-4 0 -6 -1l-4 -2q-2 0 -3 -1h-1q-5 0 -5 6q0 10 18 10q20 0 33 -20t13 -51q0 -40 -19.5 -83t-55.5 -83q-38 -42 -80 -67t-75 -25q-28 0 -45 16t-17 42v2
q-6 11 -8 21q-3 12 -3 27q0 24 6 53t20 63q4 9 8.5 19t11.5 24t17 33t25 46q16 30 32 62.5t29 59.5q9 19 12 28t3 17t-5 13.5t-12 5.5q-14 0 -32 -14t-37.5 -39t-40 -59.5t-39.5 -74.5l-28 -61l-57 -119h-85l62 136q21 48 39.5 93t30.5 80q7 20 9.5 29.5t2.5 16.5
q0 12 -8 12q-9 0 -21 -12t-29 -41q-8 -13 -18 -30.5t-20 -36t-19.5 -36t-15.5 -31.5l-29 -61l-56 -119h-90z" />
    <glyph glyph-name="aacute" unicode="&#xe1;" horiz-adv-x="380" 
d="M261 143q-11 -22 -21 -45.5t-16 -40.5q-8 -24 -8 -30q0 -14 12 -14q19 0 54 50q5 8 10 17t12.5 23t18 34t25.5 50q1 7 6 7q6 0 6 -6q0 -2 -3 -6l-4.5 -9l-9.5 -19q-2 -5 -4.5 -9.5t-4.5 -9.5q-37 -75 -62.5 -105.5t-51.5 -30.5q-14 0 -23 9t-14.5 22.5t-8 28.5t-2.5 27
q0 8 1 18t4 21v2l-5 -10q-32 -64 -56.5 -90.5t-50.5 -26.5q-21 0 -33 12q-20 12 -30.5 37.5t-10.5 61.5q0 46 18.5 94t47.5 87t64 64t69 25q4 0 6 -1q10 2 15 2q44 0 44 -54v-10l30 64h87zM244 326q0 16 -7.5 26.5t-19.5 10.5q-22 -1 -52.5 -38t-64.5 -106
q-55 -107 -55 -163q0 -18 8 -28.5t21 -10.5q26 0 67 66q20 35 42 79t39 84q22 51 22 80zM402 527l-169 -98l76 98h93z" />
    <glyph glyph-name="agrave" unicode="&#xe0;" horiz-adv-x="380" 
d="M261 143q-11 -22 -21 -45.5t-16 -40.5q-8 -24 -8 -30q0 -14 12 -14q19 0 54 50q5 8 10 17t12.5 23t18 34t25.5 50q1 7 6 7q6 0 6 -6q0 -2 -3 -6l-4.5 -9l-9.5 -19q-2 -5 -4.5 -9.5t-4.5 -9.5q-37 -75 -62.5 -105.5t-51.5 -30.5q-14 0 -23 9t-14.5 22.5t-8 28.5t-2.5 27
q0 8 1 18t4 21v2l-5 -10q-32 -64 -56.5 -90.5t-50.5 -26.5q-21 0 -33 12q-20 12 -30.5 37.5t-10.5 61.5q0 46 18.5 94t47.5 87t64 64t69 25q4 0 6 -1q10 2 15 2q44 0 44 -54v-10l30 64h87zM244 326q0 16 -7.5 26.5t-19.5 10.5q-22 -1 -52.5 -38t-64.5 -106
q-55 -107 -55 -163q0 -18 8 -28.5t21 -10.5q26 0 67 66q20 35 42 79t39 84q22 51 22 80zM256 527l36 -98l-126 98h90z" />
    <glyph glyph-name="acircumflex" unicode="&#xe2;" horiz-adv-x="380" 
d="M261 143q-11 -22 -21 -45.5t-16 -40.5q-8 -24 -8 -30q0 -14 12 -14q19 0 54 50q5 8 10 17t12.5 23t18 34t25.5 50q1 7 6 7q6 0 6 -6q0 -2 -3 -6l-4.5 -9l-9.5 -19q-2 -5 -4.5 -9.5t-4.5 -9.5q-37 -75 -62.5 -105.5t-51.5 -30.5q-14 0 -23 9t-14.5 22.5t-8 28.5t-2.5 27
q0 8 1 18t4 21v2l-5 -10q-32 -64 -56.5 -90.5t-50.5 -26.5q-21 0 -33 12q-20 12 -30.5 37.5t-10.5 61.5q0 46 18.5 94t47.5 87t64 64t69 25q4 0 6 -1q10 2 15 2q44 0 44 -54v-10l30 64h87zM244 326q0 16 -7.5 26.5t-19.5 10.5q-22 -1 -52.5 -38t-64.5 -106
q-55 -107 -55 -163q0 -18 8 -28.5t21 -10.5q26 0 67 66q20 35 42 79t39 84q22 51 22 80zM385 428l-84 44l-149 -44l167 99z" />
    <glyph glyph-name="adieresis" unicode="&#xe4;" horiz-adv-x="380" 
d="M261 143q-11 -22 -21 -45.5t-16 -40.5q-8 -24 -8 -30q0 -14 12 -14q19 0 54 50q5 8 10 17t12.5 23t18 34t25.5 50q1 7 6 7q6 0 6 -6q0 -2 -3 -6l-4.5 -9l-9.5 -19q-2 -5 -4.5 -9.5t-4.5 -9.5q-37 -75 -62.5 -105.5t-51.5 -30.5q-14 0 -23 9t-14.5 22.5t-8 28.5t-2.5 27
q0 8 1 18t4 21v2l-5 -10q-32 -64 -56.5 -90.5t-50.5 -26.5q-21 0 -33 12q-20 12 -30.5 37.5t-10.5 61.5q0 46 18.5 94t47.5 87t64 64t69 25q4 0 6 -1q10 2 15 2q44 0 44 -54v-10l30 64h87zM244 326q0 16 -7.5 26.5t-19.5 10.5q-22 -1 -52.5 -38t-64.5 -106
q-55 -107 -55 -163q0 -18 8 -28.5t21 -10.5q26 0 67 66q20 35 42 79t39 84q22 51 22 80zM205 419q-12 8 -12 27q0 17 8.5 38.5t22.5 36.5q19 19 34 19h4zM273 537q14 -6 14 -27q0 -17 -10 -39t-26 -37q-17 -18 -35 -18l57 121v0zM315 419q-13 9 -13 26t9 38.5t23 36.5
q18 20 34 20h3zM382 537q15 -8 15 -27q0 -17 -10.5 -39t-25.5 -38q-17 -17 -35 -17l56 121v0z" />
    <glyph glyph-name="atilde" unicode="&#xe3;" horiz-adv-x="380" 
d="M261 143q-11 -22 -21 -45.5t-16 -40.5q-8 -24 -8 -30q0 -14 12 -14q19 0 54 50q5 8 10 17t12.5 23t18 34t25.5 50q1 7 6 7q6 0 6 -6q0 -2 -3 -6l-4.5 -9l-9.5 -19q-2 -5 -4.5 -9.5t-4.5 -9.5q-37 -75 -62.5 -105.5t-51.5 -30.5q-14 0 -23 9t-14.5 22.5t-8 28.5t-2.5 27
q0 8 1 18t4 21v2l-5 -10q-32 -64 -56.5 -90.5t-50.5 -26.5q-21 0 -33 12q-20 12 -30.5 37.5t-10.5 61.5q0 46 18.5 94t47.5 87t64 64t69 25q4 0 6 -1q10 2 15 2q44 0 44 -54v-10l30 64h87zM244 326q0 16 -7.5 26.5t-19.5 10.5q-22 -1 -52.5 -38t-64.5 -106
q-55 -107 -55 -163q0 -18 8 -28.5t21 -10.5q26 0 67 66q20 35 42 79t39 84q22 51 22 80zM411 522q3 0 3 -5t-3.5 -13t-8.5 -17q-31 -50 -69 -50q-13 0 -23.5 4t-32.5 17q-38 22 -54 22q-14 0 -26 -10.5t-22 -29.5q-4 -6 -6 -6q-4 0 -4 4t3.5 12.5t8.5 15.5q14 25 33 39
t38 14q21 0 59 -22q23 -14 31.5 -17.5t17.5 -3.5q13 0 25.5 9.5t20.5 26.5q6 10 9 10z" />
    <glyph glyph-name="aring" unicode="&#xe5;" horiz-adv-x="380" 
d="M261 143q-11 -22 -21 -45.5t-16 -40.5q-8 -24 -8 -30q0 -14 12 -14q19 0 54 50q5 8 10 17t12.5 23t18 34t25.5 50q1 7 6 7q6 0 6 -6q0 -2 -3 -6l-4.5 -9l-9.5 -19q-2 -5 -4.5 -9.5t-4.5 -9.5q-37 -75 -62.5 -105.5t-51.5 -30.5q-14 0 -23 9t-14.5 22.5t-8 28.5t-2.5 27
q0 8 1 18t4 21v2l-5 -10q-32 -64 -56.5 -90.5t-50.5 -26.5q-21 0 -33 12q-20 12 -30.5 37.5t-10.5 61.5q0 46 18.5 94t47.5 87t64 64t69 25q4 0 6 -1q10 2 15 2q44 0 44 -54v-10l30 64h87zM244 326q0 16 -7.5 26.5t-19.5 10.5q-22 -1 -52.5 -38t-64.5 -106
q-55 -107 -55 -163q0 -18 8 -28.5t21 -10.5q26 0 67 66q20 35 42 79t39 84q22 51 22 80zM268 416q-19 0 -30.5 13t-11.5 35q0 30 20.5 53.5t47.5 23.5q20 0 32 -13.5t12 -34.5q0 -31 -21 -54t-49 -23zM307 499q0 17 -14 17q-9 0 -22 -16q-6 -10 -10 -21t-4 -19q0 -17 13 -17
q9 0 18 10q8 9 13.5 22.5t5.5 23.5z" />
    <glyph glyph-name="ccedilla" unicode="&#xe7;" horiz-adv-x="278" 
d="M78 4q-20 7 -32 26.5t-12 46.5q0 23 7 51.5t19 58.5t29 60t38 57q29 38 57 58t53 20q26 0 42.5 -21t16.5 -54q0 -20 -6.5 -39.5t-17.5 -34.5t-25 -24.5t-28 -9.5q-7 0 -11 1q26 32 42 69.5t16 66.5q0 15 -6 24t-16 9q-27 0 -71 -64q-22 -33 -42 -72t-34 -78
q-11 -29 -15.5 -48.5t-4.5 -39.5q0 -54 42 -54q84 0 156 163q5 13 7 15.5t4 2.5q6 0 6 -6q0 -1 -1 -4t-6 -13q-42 -92 -82.5 -132t-89.5 -40h-11.5t-12.5 2l-7 -15q23 -2 36.5 -12t13.5 -27q0 -19 -18 -31t-46 -12q-25 0 -40.5 10.5t-15.5 27.5q0 13 8 13q7 0 7 -9v-5
q0 -22 29 -22q14 0 23.5 11.5t9.5 28.5t-17 17q-4 0 -7 -1l13 29v0zM198 204q-14 9 -14 30q0 16 6.5 32t16 29.5t21.5 22t24 8.5q1 0 2 -0.5t3 -0.5q-2 -12 -7 -28t-13.5 -32.5t-18.5 -32.5t-20 -28zM38 22q-22 16 -34 43.5t-12 61.5q0 23 8 50.5t21.5 55.5t32 53t39.5 44
q50 46 103 52q-29 -17 -51.5 -40t-46.5 -60q-17 -25 -30.5 -52t-23.5 -54t-15 -52t-5 -46q0 -17 3 -29t11 -27z" />
    <glyph glyph-name="eacute" unicode="&#xe9;" horiz-adv-x="285" 
d="M219 382q25 0 42 -20t17 -50q0 -33 -18.5 -68t-48 -64.5t-67.5 -49.5t-77 -24q-3 -10 -4.5 -17.5t-1.5 -16.5q0 -27 11.5 -42t32.5 -15q42 0 84 43t75 121q5 10 6.5 12.5t4.5 2.5q5 0 5 -6v-1l-1 -3l-1 -2q-16 -41 -37 -74.5t-44 -57.5t-47.5 -37.5t-47.5 -13.5
q-32 0 -53 15q-58 25 -58 108q0 46 20.5 93.5t59.5 92.5q31 35 70.5 57t77.5 17zM70 119q41 4 86 58q20 23 40.5 54.5t32.5 56.5q18 36 18 55q0 25 -22 25q-17 0 -40 -26t-49 -75q-26 -46 -41.5 -82t-24.5 -66zM376 527l-169 -98l76 98h93z" />
    <glyph glyph-name="egrave" unicode="&#xe8;" horiz-adv-x="285" 
d="M219 382q25 0 42 -20t17 -50q0 -33 -18.5 -68t-48 -64.5t-67.5 -49.5t-77 -24q-3 -10 -4.5 -17.5t-1.5 -16.5q0 -27 11.5 -42t32.5 -15q42 0 84 43t75 121q5 10 6.5 12.5t4.5 2.5q5 0 5 -6v-1l-1 -3l-1 -2q-16 -41 -37 -74.5t-44 -57.5t-47.5 -37.5t-47.5 -13.5
q-32 0 -53 15q-58 25 -58 108q0 46 20.5 93.5t59.5 92.5q31 35 70.5 57t77.5 17zM70 119q41 4 86 58q20 23 40.5 54.5t32.5 56.5q18 36 18 55q0 25 -22 25q-17 0 -40 -26t-49 -75q-26 -46 -41.5 -82t-24.5 -66zM230 527l36 -98l-126 98h90z" />
    <glyph glyph-name="ecircumflex" unicode="&#xea;" horiz-adv-x="285" 
d="M219 382q25 0 42 -20t17 -50q0 -33 -18.5 -68t-48 -64.5t-67.5 -49.5t-77 -24q-3 -10 -4.5 -17.5t-1.5 -16.5q0 -27 11.5 -42t32.5 -15q42 0 84 43t75 121q5 10 6.5 12.5t4.5 2.5q5 0 5 -6v-1l-1 -3l-1 -2q-16 -41 -37 -74.5t-44 -57.5t-47.5 -37.5t-47.5 -13.5
q-32 0 -53 15q-58 25 -58 108q0 46 20.5 93.5t59.5 92.5q31 35 70.5 57t77.5 17zM70 119q41 4 86 58q20 23 40.5 54.5t32.5 56.5q18 36 18 55q0 25 -22 25q-17 0 -40 -26t-49 -75q-26 -46 -41.5 -82t-24.5 -66zM339 428l-84 44l-149 -44l167 99z" />
    <glyph glyph-name="edieresis" unicode="&#xeb;" horiz-adv-x="285" 
d="M219 382q25 0 42 -20t17 -50q0 -33 -18.5 -68t-48 -64.5t-67.5 -49.5t-77 -24q-3 -10 -4.5 -17.5t-1.5 -16.5q0 -27 11.5 -42t32.5 -15q42 0 84 43t75 121q5 10 6.5 12.5t4.5 2.5q5 0 5 -6v-1l-1 -3l-1 -2q-16 -41 -37 -74.5t-44 -57.5t-47.5 -37.5t-47.5 -13.5
q-32 0 -53 15q-58 25 -58 108q0 46 20.5 93.5t59.5 92.5q31 35 70.5 57t77.5 17zM70 119q41 4 86 58q20 23 40.5 54.5t32.5 56.5q18 36 18 55q0 25 -22 25q-17 0 -40 -26t-49 -75q-26 -46 -41.5 -82t-24.5 -66zM166 419q-12 8 -12 27q0 17 8.5 38.5t22.5 36.5q19 19 34 19h4
zM234 537q14 -6 14 -27q0 -17 -10 -39t-26 -37q-17 -18 -35 -18l57 121v0zM276 419q-13 9 -13 26t9 38.5t23 36.5q18 20 34 20h3zM343 537q15 -8 15 -27q0 -17 -10.5 -39t-25.5 -38q-17 -17 -35 -17l56 121v0z" />
    <glyph glyph-name="iacute" unicode="&#xed;" horiz-adv-x="210" 
d="M97 203q-6 -11 -14.5 -30.5t-16.5 -36.5q-15 -35 -21.5 -57t-6.5 -39v-6.5t2 -7.5q-18 22 -18 60q0 20 6.5 45t20.5 60q9 22 20.5 48.5t21.5 48.5l20 42l-6 -8l-6 -7q-26 -32 -48.5 -66t-38.5 -66q-4 -6 -7 -6q-5 0 -5 5q0 3 7.5 18t18.5 33q14 23 32 48t33 44l15 18
q10 12 18.5 23t10.5 16h45zM124 143q-10 -22 -20 -45.5t-17 -40.5q-7 -20 -7 -30q0 -14 12 -14q21 0 53 50q5 8 10 17t12.5 23t18 34t25.5 50q3 7 7 7q5 0 5 -6q0 -3 -2 -6l-4.5 -9l-9.5 -19q-5 -11 -10 -19q-36 -75 -61.5 -105.5t-51.5 -30.5q-17 0 -26 10.5t-9 27.5
q0 16 4.5 33.5t15.5 44.5q3 7 8 18.5t10 23.5t10.5 23.5t8.5 19.5l85 182h45zM329 527l-169 -98l76 98h93z" />
    <glyph glyph-name="igrave" unicode="&#xec;" horiz-adv-x="210" 
d="M97 203q-6 -11 -14.5 -30.5t-16.5 -36.5q-15 -35 -21.5 -57t-6.5 -39v-6.5t2 -7.5q-18 22 -18 60q0 20 6.5 45t20.5 60q9 22 20.5 48.5t21.5 48.5l20 42l-6 -8l-6 -7q-26 -32 -48.5 -66t-38.5 -66q-4 -6 -7 -6q-5 0 -5 5q0 3 7.5 18t18.5 33q14 23 32 48t33 44l15 18
q10 12 18.5 23t10.5 16h45zM124 143q-10 -22 -20 -45.5t-17 -40.5q-7 -20 -7 -30q0 -14 12 -14q21 0 53 50q5 8 10 17t12.5 23t18 34t25.5 50q3 7 7 7q5 0 5 -6q0 -3 -2 -6l-4.5 -9l-9.5 -19q-5 -11 -10 -19q-36 -75 -61.5 -105.5t-51.5 -30.5q-17 0 -26 10.5t-9 27.5
q0 16 4.5 33.5t15.5 44.5q3 7 8 18.5t10 23.5t10.5 23.5t8.5 19.5l85 182h45zM203 527l36 -98l-126 98h90z" />
    <glyph glyph-name="icircumflex" unicode="&#xee;" horiz-adv-x="210" 
d="M97 203q-6 -11 -14.5 -30.5t-16.5 -36.5q-15 -35 -21.5 -57t-6.5 -39v-6.5t2 -7.5q-18 22 -18 60q0 20 6.5 45t20.5 60q9 22 20.5 48.5t21.5 48.5l20 42l-6 -8l-6 -7q-26 -32 -48.5 -66t-38.5 -66q-4 -6 -7 -6q-5 0 -5 5q0 3 7.5 18t18.5 33q14 23 32 48t33 44l15 18
q10 12 18.5 23t10.5 16h45zM124 143q-10 -22 -20 -45.5t-17 -40.5q-7 -20 -7 -30q0 -14 12 -14q21 0 53 50q5 8 10 17t12.5 23t18 34t25.5 50q3 7 7 7q5 0 5 -6q0 -3 -2 -6l-4.5 -9l-9.5 -19q-5 -11 -10 -19q-36 -75 -61.5 -105.5t-51.5 -30.5q-17 0 -26 10.5t-9 27.5
q0 16 4.5 33.5t15.5 44.5q3 7 8 18.5t10 23.5t10.5 23.5t8.5 19.5l85 182h45zM312 428l-84 44l-149 -44l167 99z" />
    <glyph glyph-name="idieresis" unicode="&#xef;" horiz-adv-x="210" 
d="M97 203q-6 -11 -14.5 -30.5t-16.5 -36.5q-15 -35 -21.5 -57t-6.5 -39v-6.5t2 -7.5q-18 22 -18 60q0 20 6.5 45t20.5 60q9 22 20.5 48.5t21.5 48.5l20 42l-6 -8l-6 -7q-26 -32 -48.5 -66t-38.5 -66q-4 -6 -7 -6q-5 0 -5 5q0 3 7.5 18t18.5 33q14 23 32 48t33 44l15 18
q10 12 18.5 23t10.5 16h45zM124 143q-10 -22 -20 -45.5t-17 -40.5q-7 -20 -7 -30q0 -14 12 -14q21 0 53 50q5 8 10 17t12.5 23t18 34t25.5 50q3 7 7 7q5 0 5 -6q0 -3 -2 -6l-4.5 -9l-9.5 -19q-5 -11 -10 -19q-36 -75 -61.5 -105.5t-51.5 -30.5q-17 0 -26 10.5t-9 27.5
q0 16 4.5 33.5t15.5 44.5q3 7 8 18.5t10 23.5t10.5 23.5t8.5 19.5l85 182h45zM132 419q-12 8 -12 27q0 17 8.5 38.5t22.5 36.5q19 19 34 19h4zM200 537q14 -6 14 -27q0 -17 -10 -39t-26 -37q-17 -18 -35 -18l57 121v0zM242 419q-13 9 -13 26t9 38.5t23 36.5q18 20 34 20h3z
M309 537q15 -8 15 -27q0 -17 -10.5 -39t-25.5 -38q-17 -17 -35 -17l56 121v0z" />
    <glyph glyph-name="ntilde" unicode="&#xf1;" horiz-adv-x="423" 
d="M239 0q-18 0 -32 19t-14 43q0 25 13.5 58.5t44.5 84.5l41 66q32 54 32 77q0 8 -4.5 13.5t-12.5 5.5q-14 0 -31.5 -14t-37 -38.5t-40 -59t-39.5 -75.5l-29 -61l-56 -119h-89l62 136q21 48 40 93t31 80q7 20 9.5 29.5t2.5 16.5q0 12 -8 12t-21.5 -14.5t-27.5 -39.5
q-8 -16 -16 -31.5t-22 -45.5l-12 -27q-4 -9 -6 -14l-4 -10q-4 -8 -8 -8q-5 0 -5 5q0 3 1 4l2 5q2 4 8.5 18.5t12.5 28.5q35 78 59 111t44 33q14 0 21 -12q28 -24 28 -84q0 -11 -1 -21.5t-3 -27.5l-2 -10q10 21 28 49t35 48q49 58 83 58q17 0 38 -20.5t21 -63.5
q0 -23 -11 -56.5t-31 -70.5l-33 -60q-5 -9 -12 -23.5t-10 -22.5q-7 -18 -7 -23q0 -15 11 -15q8 0 19.5 9t24.5 25t26.5 36.5t25.5 44.5l16 33l3 5q4 8 5.5 9.5t3.5 1.5q5 0 5 -5q0 -3 -2 -7t-4 -9q-38 -81 -77 -125.5t-70 -44.5q-9 0 -17 3q2 -2 5 -3h-7zM425 522q3 0 3 -5
t-3.5 -13t-8.5 -17q-31 -50 -69 -50q-13 0 -23.5 4t-32.5 17q-38 22 -54 22q-14 0 -26 -10.5t-22 -29.5q-4 -6 -6 -6q-4 0 -4 4t3.5 12.5t8.5 15.5q14 25 33 39t38 14q21 0 59 -22q23 -14 31.5 -17.5t17.5 -3.5q13 0 25.5 9.5t20.5 26.5q6 10 9 10z" />
    <glyph glyph-name="oacute" unicode="&#xf3;" horiz-adv-x="324" 
d="M204 380q28 4 46.5 0t30 -14t16.5 -24.5t5 -32.5q0 -16 -6.5 -40t-18 -51.5t-27 -56.5t-32.5 -54l-6 -10l-2 -2q2 -1 8 -1q48 0 94 94q3 7 7 7q5 0 5 -6l-2 -6l-4 -8q-48 -93 -100 -93h-8l-7 2l-2 -2q-32 -42 -61 -62t-61 -20q-30 0 -47 20l2 -2q-22 12 -34 38t-12 61
q0 22 6.5 47t18.5 50t27.5 49t33.5 43q61 62 130 74zM290 300q1 3 1 10q0 28 -11 44t-31 16q-29 0 -59.5 -32.5t-68.5 -102.5q-14 -25 -28 -56t-25 -60q-8 -23 -12 -37t-4 -25q0 -20 9.5 -31.5t24.5 -11.5q24 0 52.5 20.5t54.5 55.5v4v4q-10 10 -10 32q0 23 12.5 56t32.5 60
q8 11 16 19t15 13q12 9 30 14q1 3 1 8zM389 527l-169 -98l76 98h93z" />
    <glyph glyph-name="ograve" unicode="&#xf2;" horiz-adv-x="324" 
d="M204 380q28 4 46.5 0t30 -14t16.5 -24.5t5 -32.5q0 -16 -6.5 -40t-18 -51.5t-27 -56.5t-32.5 -54l-6 -10l-2 -2q2 -1 8 -1q48 0 94 94q3 7 7 7q5 0 5 -6l-2 -6l-4 -8q-48 -93 -100 -93h-8l-7 2l-2 -2q-32 -42 -61 -62t-61 -20q-30 0 -47 20l2 -2q-22 12 -34 38t-12 61
q0 22 6.5 47t18.5 50t27.5 49t33.5 43q61 62 130 74zM290 300q1 3 1 10q0 28 -11 44t-31 16q-29 0 -59.5 -32.5t-68.5 -102.5q-14 -25 -28 -56t-25 -60q-8 -23 -12 -37t-4 -25q0 -20 9.5 -31.5t24.5 -11.5q24 0 52.5 20.5t54.5 55.5v4v4q-10 10 -10 32q0 23 12.5 56t32.5 60
q8 11 16 19t15 13q12 9 30 14q1 3 1 8zM244 527l36 -98l-126 98h90z" />
    <glyph glyph-name="ocircumflex" unicode="&#xf4;" horiz-adv-x="324" 
d="M204 380q28 4 46.5 0t30 -14t16.5 -24.5t5 -32.5q0 -16 -6.5 -40t-18 -51.5t-27 -56.5t-32.5 -54l-6 -10l-2 -2q2 -1 8 -1q48 0 94 94q3 7 7 7q5 0 5 -6l-2 -6l-4 -8q-48 -93 -100 -93h-8l-7 2l-2 -2q-32 -42 -61 -62t-61 -20q-30 0 -47 20l2 -2q-22 12 -34 38t-12 61
q0 22 6.5 47t18.5 50t27.5 49t33.5 43q61 62 130 74zM290 300q1 3 1 10q0 28 -11 44t-31 16q-29 0 -59.5 -32.5t-68.5 -102.5q-14 -25 -28 -56t-25 -60q-8 -23 -12 -37t-4 -25q0 -20 9.5 -31.5t24.5 -11.5q24 0 52.5 20.5t54.5 55.5v4v4q-10 10 -10 32q0 23 12.5 56t32.5 60
q8 11 16 19t15 13q12 9 30 14q1 3 1 8zM366 428l-84 44l-149 -44l167 99z" />
    <glyph glyph-name="odieresis" unicode="&#xf6;" horiz-adv-x="324" 
d="M204 380q28 4 46.5 0t30 -14t16.5 -24.5t5 -32.5q0 -16 -6.5 -40t-18 -51.5t-27 -56.5t-32.5 -54l-6 -10l-2 -2q2 -1 8 -1q48 0 94 94q3 7 7 7q5 0 5 -6l-2 -6l-4 -8q-48 -93 -100 -93h-8l-7 2l-2 -2q-32 -42 -61 -62t-61 -20q-30 0 -47 20l2 -2q-22 12 -34 38t-12 61
q0 22 6.5 47t18.5 50t27.5 49t33.5 43q61 62 130 74zM290 300q1 3 1 10q0 28 -11 44t-31 16q-29 0 -59.5 -32.5t-68.5 -102.5q-14 -25 -28 -56t-25 -60q-8 -23 -12 -37t-4 -25q0 -20 9.5 -31.5t24.5 -11.5q24 0 52.5 20.5t54.5 55.5v4v4q-10 10 -10 32q0 23 12.5 56t32.5 60
q8 11 16 19t15 13q12 9 30 14q1 3 1 8zM179 419q-12 8 -12 27q0 17 8.5 38.5t22.5 36.5q19 19 34 19h4zM247 537q14 -6 14 -27q0 -17 -10 -39t-26 -37q-17 -18 -35 -18l57 121v0zM289 419q-13 9 -13 26t9 38.5t23 36.5q18 20 34 20h3zM356 537q15 -8 15 -27q0 -17 -10.5 -39
t-25.5 -38q-17 -17 -35 -17l56 121v0z" />
    <glyph glyph-name="otilde" unicode="&#xf5;" horiz-adv-x="324" 
d="M204 380q28 4 46.5 0t30 -14t16.5 -24.5t5 -32.5q0 -16 -6.5 -40t-18 -51.5t-27 -56.5t-32.5 -54l-6 -10l-2 -2q2 -1 8 -1q48 0 94 94q3 7 7 7q5 0 5 -6l-2 -6l-4 -8q-48 -93 -100 -93h-8l-7 2l-2 -2q-32 -42 -61 -62t-61 -20q-30 0 -47 20l2 -2q-22 12 -34 38t-12 61
q0 22 6.5 47t18.5 50t27.5 49t33.5 43q61 62 130 74zM290 300q1 3 1 10q0 28 -11 44t-31 16q-29 0 -59.5 -32.5t-68.5 -102.5q-14 -25 -28 -56t-25 -60q-8 -23 -12 -37t-4 -25q0 -20 9.5 -31.5t24.5 -11.5q24 0 52.5 20.5t54.5 55.5v4v4q-10 10 -10 32q0 23 12.5 56t32.5 60
q8 11 16 19t15 13q12 9 30 14q1 3 1 8zM385 522q3 0 3 -5t-3.5 -13t-8.5 -17q-31 -50 -69 -50q-13 0 -23.5 4t-32.5 17q-38 22 -54 22q-14 0 -26 -10.5t-22 -29.5q-4 -6 -6 -6q-4 0 -4 4t3.5 12.5t8.5 15.5q14 25 33 39t38 14q21 0 59 -22q23 -14 31.5 -17.5t17.5 -3.5
q13 0 25.5 9.5t20.5 26.5q6 10 9 10z" />
    <glyph glyph-name="uacute" unicode="&#xfa;" horiz-adv-x="404" 
d="M291 143q-8 -17 -16 -34.5t-14 -33.5t-10 -28.5t-4 -19.5q0 -14 12 -14q16 0 37 26.5t57 97.5l25 50q3 7 7 7q5 0 5 -6q0 -2 -2 -6l-14 -28q-37 -86 -67.5 -120.5t-55.5 -34.5q-14 0 -23 9t-15 22.5t-8.5 28t-2.5 26.5q0 10 2 23t4 24v-1q-38 -70 -67.5 -101t-58.5 -31
q-30 0 -45 26t-15 61q0 31 20 85t49 117l20 42l-12 -15q-11 -13 -26 -36.5t-30 -46l-26 -39t-12 -16.5q-5 0 -5 5t9 22t22.5 38.5t29.5 43.5t30 39l15 18q10 12 18.5 23t10.5 16h87l-111 -239q-16 -36 -29.5 -68.5t-13.5 -42.5q0 -18 18 -18q15 0 32 14.5t34.5 38.5t35 55
t33.5 64l94 196h88zM416 527l-169 -98l76 98h93z" />
    <glyph glyph-name="ugrave" unicode="&#xf9;" horiz-adv-x="404" 
d="M291 143q-8 -17 -16 -34.5t-14 -33.5t-10 -28.5t-4 -19.5q0 -14 12 -14q16 0 37 26.5t57 97.5l25 50q3 7 7 7q5 0 5 -6q0 -2 -2 -6l-14 -28q-37 -86 -67.5 -120.5t-55.5 -34.5q-14 0 -23 9t-15 22.5t-8.5 28t-2.5 26.5q0 10 2 23t4 24v-1q-38 -70 -67.5 -101t-58.5 -31
q-30 0 -45 26t-15 61q0 31 20 85t49 117l20 42l-12 -15q-11 -13 -26 -36.5t-30 -46l-26 -39t-12 -16.5q-5 0 -5 5t9 22t22.5 38.5t29.5 43.5t30 39l15 18q10 12 18.5 23t10.5 16h87l-111 -239q-16 -36 -29.5 -68.5t-13.5 -42.5q0 -18 18 -18q15 0 32 14.5t34.5 38.5t35 55
t33.5 64l94 196h88zM270 527l36 -98l-126 98h90z" />
    <glyph glyph-name="ucircumflex" unicode="&#xfb;" horiz-adv-x="404" 
d="M291 143q-8 -17 -16 -34.5t-14 -33.5t-10 -28.5t-4 -19.5q0 -14 12 -14q16 0 37 26.5t57 97.5l25 50q3 7 7 7q5 0 5 -6q0 -2 -2 -6l-14 -28q-37 -86 -67.5 -120.5t-55.5 -34.5q-14 0 -23 9t-15 22.5t-8.5 28t-2.5 26.5q0 10 2 23t4 24v-1q-38 -70 -67.5 -101t-58.5 -31
q-30 0 -45 26t-15 61q0 31 20 85t49 117l20 42l-12 -15q-11 -13 -26 -36.5t-30 -46l-26 -39t-12 -16.5q-5 0 -5 5t9 22t22.5 38.5t29.5 43.5t30 39l15 18q10 12 18.5 23t10.5 16h87l-111 -239q-16 -36 -29.5 -68.5t-13.5 -42.5q0 -18 18 -18q15 0 32 14.5t34.5 38.5t35 55
t33.5 64l94 196h88zM412 428l-84 44l-149 -44l167 99z" />
    <glyph glyph-name="udieresis" unicode="&#xfc;" horiz-adv-x="404" 
d="M291 143q-8 -17 -16 -34.5t-14 -33.5t-10 -28.5t-4 -19.5q0 -14 12 -14q16 0 37 26.5t57 97.5l25 50q3 7 7 7q5 0 5 -6q0 -2 -2 -6l-14 -28q-37 -86 -67.5 -120.5t-55.5 -34.5q-14 0 -23 9t-15 22.5t-8.5 28t-2.5 26.5q0 10 2 23t4 24v-1q-38 -70 -67.5 -101t-58.5 -31
q-30 0 -45 26t-15 61q0 31 20 85t49 117l20 42l-12 -15q-11 -13 -26 -36.5t-30 -46l-26 -39t-12 -16.5q-5 0 -5 5t9 22t22.5 38.5t29.5 43.5t30 39l15 18q10 12 18.5 23t10.5 16h87l-111 -239q-16 -36 -29.5 -68.5t-13.5 -42.5q0 -18 18 -18q15 0 32 14.5t34.5 38.5t35 55
t33.5 64l94 196h88zM232 419q-12 8 -12 27q0 17 8.5 38.5t22.5 36.5q19 19 34 19h4zM300 537q14 -6 14 -27q0 -17 -10 -39t-26 -37q-17 -18 -35 -18l57 121v0zM342 419q-13 9 -13 26t9 38.5t23 36.5q18 20 34 20h3zM409 537q15 -8 15 -27q0 -17 -10.5 -39t-25.5 -38
q-17 -17 -35 -17l56 121v0z" />
    <glyph glyph-name="dagger" unicode="&#x2020;" horiz-adv-x="1125" 
d="M770 320q6 0 6 -6q0 -2 -3 -5q-4 -4 -4.5 -5.5t-0.5 -4.5q0 -20 29 -31.5t82 -11.5q39 0 72 5.5t56.5 15t37 23t13.5 29.5q0 19 -15 31q-16 12 -50.5 19t-78.5 7q-38 0 -83.5 -5t-111.5 -19q-35 -7 -72 -15t-91 -22q-29 -7 -58.5 -14t-58.5 -15q-62 -16 -105.5 -26
t-74.5 -16t-52 -8.5t-39 -2.5q-48 0 -80 23t-32 58q0 11 5 20.5t13 9.5q7 0 7 -5q0 -3 -6 -7q-8 -4 -8 -16q0 -15 8 -28t21.5 -22.5t31.5 -15.5t38 -6q27 0 63.5 6t95.5 21q20 5 47 11.5t62 16.5q48 13 91.5 24.5t87.5 23.5q50 14 93 24.5t81 18.5q33 8 66.5 11t66.5 3
q69 0 110 -23t41 -61q0 -20 -14 -36t-40 -27t-62.5 -17.5t-80.5 -6.5q-57 0 -88 15t-31 41q0 8 4.5 14.5t10.5 6.5z" />
    <glyph glyph-name="degree" unicode="&#xb0;" 
d="M33 667h334v-667h-334v667zM360 7v653h-320v-653h320z" />
    <glyph glyph-name="cent" unicode="&#xa2;" horiz-adv-x="316" 
d="M186 110h2q18 0 36 9t32.5 24t24.5 35t12 41q2 8 5 8q6 0 6 -9q0 -20 -14 -46q-17 -35 -45.5 -54t-61.5 -19h-2l-23 -48h-15l23 50q-5 1 -9 2t-10 4l-26 -56h-16l31 65q-14 12 -20.5 28t-6.5 40q0 39 15.5 80t40 75.5t55 58t60.5 27.5l27 58h16l-27 -57q11 -1 20 -5
l28 62h16l-32 -68q34 -25 34 -65q0 -18 -6.5 -34.5t-18 -29t-27 -19.5t-33.5 -7q-11 0 -19 4zM247 423q-30 -13 -57 -38.5t-47.5 -58.5t-32 -70.5t-11.5 -73.5q0 -23 6.5 -40t22.5 -34q-29 13 -45 40.5t-16 65.5q0 37 14.5 72t39.5 64t57.5 48.5t68.5 24.5zM310 410
q-5 4 -9 5t-9 2l-138 -297q8 -7 17 -8l75 160q-7 7 -7 14q0 5 5 5q3 0 7 -7l59 126v0zM262 274q5 -2 11 -2q10 0 20 8.5t18 22t13.5 30.5t5.5 33q0 21 -9 34zM275 415q-19 -5 -36 -23.5t-37 -54.5q-14 -24 -25.5 -49.5t-19.5 -49.5t-13 -45t-5 -35q0 -8 1.5 -13t3.5 -11z
" />
    <glyph glyph-name="sterling" unicode="&#xa3;" horiz-adv-x="489" 
d="M230 106l54 -2q12 -1 24 -1h21q58 0 89.5 19t31.5 54q0 12 -7 26q-2 3 -2 6q0 6 5 6q6 0 11 -13t5 -27q0 -23 -11.5 -44t-31 -37t-44.5 -26t-52 -10q-11 0 -22 1t-25 3.5t-32.5 7t-43.5 10.5q-27 7 -47.5 11.5t-36 7.5t-28.5 4t-25 1q-19 0 -36.5 -5t-31 -13t-21.5 -18.5
t-8 -22.5q0 -19 19.5 -30t51.5 -11q72 0 126 51q-40 18 -68.5 26t-53.5 8h-9.5t-12.5 -2q14 5 23.5 6t21.5 1q11 0 29.5 -2.5t37.5 -7.5l85 -20q37 -10 62.5 -14t43.5 -4q77 0 124 62q-20 -51 -57.5 -80.5t-82.5 -29.5q-17 0 -38 5.5t-39 15.5l-45 25q-1 1 -9 5
q-34 -29 -65.5 -42t-72.5 -13q-38 0 -60 13t-22 36q0 34 37 54.5t97 20.5q6 0 13.5 -0.5t13.5 -0.5l75 -6q1 0 5 -0.5t10 -0.5q10 13 17.5 26t13.5 30.5t12 42.5t14 62q9 40 18 71t21 56t26.5 45t34.5 39q29 28 60.5 44.5t56.5 16.5q32 0 53 -23t21 -58q0 -21 -9 -40.5
t-24.5 -34t-35.5 -23.5t-42 -9q-40 0 -40 32q0 8 2.5 14.5t6.5 6.5q3 0 3 -4q0 -2 -1 -4q-2 -10 -2 -13q0 -21 23 -21q19 0 37 21q20 23 33.5 53t13.5 53q0 17 -9.5 28t-25.5 11q-32 0 -67 -38t-64 -103l-29 -66q-2 0 -3 -6h159l-7 -14h-158l-14 -31h159l-7 -13h-158l-4 -10
q-23 -54 -40 -87.5t-34 -55.5zM430 540q-62 -24 -107 -84q-14 -17 -24 -34.5t-18.5 -38.5t-16 -47.5t-14.5 -60.5q-8 -38 -13.5 -62.5t-11 -41.5t-11.5 -30t-15 -27q10 20 14 40t4 46v27v10v9v14h-141l6 13h136q0 11 0.5 16t0.5 15h-125l6 14h120q4 42 15.5 73t34.5 57
q59 66 160 92z" />
    <glyph glyph-name="section" unicode="&#xa7;" horiz-adv-x="906" 
d="M55 343q0 16 9 30.5t24 26t35 18t43 6.5q28 0 60.5 -5.5t64.5 -15.5t70.5 -22.5t86.5 -28.5q61 -21 114 -36t82 -20q15 -3 29 -4t28 -1q61 0 100 21t39 53q0 12 -11 17q-6 4 -6 7q0 6 6 6q9 0 15.5 -8.5t6.5 -20.5q0 -38 -40.5 -61.5t-107.5 -23.5q-23 0 -44.5 2.5
t-48.5 8.5q-13 3 -27 6t-32.5 8t-44.5 12t-63 18q-50 14 -89.5 24t-71.5 16t-59.5 9t-53.5 3q-101 0 -101 -47q0 -19 14.5 -36t39.5 -30t58 -20.5t71 -7.5q45 0 70 8.5t25 25.5v4q0 1 -0.5 1.5t-0.5 1.5q0 5 5 5q9 0 9 -13q0 -20 -28 -32.5t-73 -12.5q-44 0 -81 8t-64 22.5
t-42.5 34.5t-15.5 43z" />
    <glyph glyph-name="bullet" unicode="&#x2022;" horiz-adv-x="312" 
d="M126 365q0 38 26 64t64 26t64 -26t26 -64q0 -37 -26 -64t-64 -27q-18 0 -34.5 7.5t-29 20t-19.5 29t-7 34.5z" />
    <glyph glyph-name="paragraph" unicode="&#xb6;" horiz-adv-x="823" 
d="M740 403q0 6 7 6q8 0 13.5 -12t5.5 -26q0 -24 -12.5 -46.5t-33.5 -39t-49 -26.5t-59 -10q-40 0 -79 9q-29 8 -62 17t-70 21q-73 23 -136 34.5t-114 11.5q-20 0 -40 -6t-31 -15q-13 -10 -13 -28q0 -14 8.5 -23.5t21.5 -9.5q15 0 21 8l3 5q2 2 4 2q6 0 6 -6q0 -8 -9 -14.5
t-21 -6.5q-21 0 -33 12.5t-12 33.5q0 38 37 63t94 25q52 0 122 -29l100 -42q54 -23 107 -36t95 -13q28 0 54 9t46 24t31.5 34.5t11.5 40.5q0 12 -6 20l-6 8q-2 4 -2 5z" />
    <glyph glyph-name="germandbls" unicode="&#xdf;" horiz-adv-x="412" 
d="M290 379q51 -24 69.5 -61.5t18.5 -79.5q0 -35 -15 -77t-41 -79q-13 -18 -29.5 -33t-34.5 -26t-36 -17.5t-34 -6.5h-22q-21 4 -34 19.5t-13 40.5q0 20 9.5 45.5t26.5 50.5q35 50 66 50q13 0 13 -8q0 -7 -6 -7q-2 0 -5 1h-3q-22 0 -46 -33q-20 -26 -30.5 -51.5t-10.5 -48.5
q0 -19 8 -30t21 -11q20 0 44 29t56 94q28 57 42.5 100.5t14.5 69.5q0 32 -15.5 47.5t-50.5 18.5q-8 0 -8 6t9 6h13q20 0 43.5 14.5t43.5 38.5q12 14 22.5 32t18.5 36t12.5 35.5t4.5 30.5q0 31 -25 31q-36 0 -75 -64q-10 -16 -17.5 -29.5t-16 -29t-18 -34.5t-22.5 -46
q-12 -25 -21 -43t-16 -33q-11 -22 -15.5 -33t-9.5 -21l-118 -273h-84l140 298q-41 -34 -64 -60t-38 -55q-4 -6 -7 -6q-5 0 -5 5q0 4 5 13q10 19 29 42.5t39 40.5l27 24q14 13 22.5 23.5t18.5 28.5q24 45 46.5 81.5t41.5 61.5q56 72 104 97q28 24 53 24t41 -20l1 -1
q11 -10 19 -24q14 -24 14 -53q0 -28 -15.5 -54.5t-41.5 -45.5q-22 -15 -48 -23q-19 -6 -43 -9q-13 -7 -23 -9z" />
    <glyph glyph-name="registered" unicode="&#xae;" horiz-adv-x="823" 
d="M68 370q0 -21 12 -40.5t31.5 -34.5t45.5 -24t54 -9q42 0 95.5 13t107.5 36l99 42q72 29 123 29q57 0 94 -25t37 -63q0 -21 -12.5 -33.5t-32.5 -12.5q-12 0 -21 6.5t-9 14.5q0 6 6 6q2 0 4 -2l3 -5q5 -8 20 -8q14 0 22.5 9.5t8.5 23.5q0 18 -13 28q-11 8 -31.5 14.5
t-39.5 6.5t-36 -1t-35 -3.5t-37.5 -6t-43.5 -9.5q-25 -5 -49.5 -11.5t-48.5 -14.5q-37 -12 -70 -21t-63 -17q-39 -9 -78 -9q-31 0 -59 10t-49.5 26.5t-34 39t-12.5 46.5q0 14 6 26t14 12q6 0 6 -7q0 -3 -1 -4l-7 -8q-6 -8 -6 -20z" />
    <glyph glyph-name="copyright" unicode="&#xa9;" horiz-adv-x="521" 
d="M47 136q21 48 40 93t31 80q7 20 9.5 29.5t2.5 16.5q0 12 -8 12q-15 0 -41.5 -41t-54.5 -110q-4 -10 -6.5 -16.5t-4.5 -9.5q-2 -6 -2 -5q-3 -5 -4 -6.5t-4 -1.5q-5 0 -5 5q0 2 0.5 3t2.5 6q2 6 2 5l10 22q40 88 65.5 126t46.5 38q18 0 24 -19q21 -24 21 -77
q0 -11 -1 -21.5t-3 -27.5l-2 -10q10 21 28 49t35 48q49 58 83 58q14 0 25 -7.5t18.5 -19.5t11 -26.5t3.5 -28.5q0 -13 -2.5 -27t-8 -31t-14.5 -38t-23 -48l-46 -94l-42 -83q-20 -41 -27.5 -61.5t-7.5 -36.5q0 -14 9 -23t23 -9q32 0 67 26t69 74q33 46 53 92t20 76
q0 16 -8 26t-19 10q-5 0 -6 -1l-5 -2q-1 0 -1.5 -0.5t-1.5 -0.5q-5 0 -5 6q0 10 17 10q20 0 33.5 -20t13.5 -51q0 -40 -19.5 -83t-55.5 -83q-38 -42 -80.5 -67t-75.5 -25q-20 0 -34 10t-22 26t-11.5 34.5t-3.5 36.5q0 48 27 116q7 17 20 43t42 79q17 31 32.5 63t28.5 59
q8 19 11.5 28t3.5 17q0 19 -18 19q-14 0 -31.5 -14t-37 -39t-40 -59.5t-39.5 -74.5l-29 -61l-56 -119h-85z" />
    <glyph glyph-name="trademark" unicode="&#x2122;" horiz-adv-x="414" 
d="M42 239q2 4 3 5t1 2l30 53q9 18 21 38t25 40t26 38.5t24 33.5q39 54 87 82q26 17 51.5 25.5t45.5 8.5q14 0 24.5 -7t10.5 -15v-4h-1q-7 -19 -21 -26q-15 -7 -49 -7h-11q-7 0 -18 1q-7 0 -12 0.5t-9 0.5q-7 0 -12.5 -0.5t-14.5 -1.5l-6 -4q-13 -9 -20.5 -16.5t-11 -19.5
t-5.5 -31q-1 -16 -2 -42q0 -3 1 -6q2 -19 4 -34t4 -27l3 -21l3 -22q30 -6 56 -21.5t44.5 -38.5t29 -52t10.5 -61t-12.5 -61t-33 -51t-47.5 -35.5t-57 -13.5q-27 0 -43 13.5t-16 36.5q0 12 5 21t12 9q6 0 6 -5q0 -2 -2 -6l-4 -4q-5 -7 -5 -18q0 -15 11.5 -25t29.5 -10
q21 0 43 17t40 44t29.5 59.5t11.5 64.5q0 48 -28 81t-78 44l1 -7l1 -6q2 -15 3.5 -30.5t1.5 -30.5q0 -118 -95 -172q-36 -20 -73 -23l12 6q-20 -9 -39 -9q-32 0 -53.5 26.5t-21.5 64.5q0 40 24 80t66 69zM158 275q-26 -3 -50 -20t-50 -52q-33 -43 -53 -85t-20 -70
q0 -35 31 -35q22 0 43.5 18.5t40 52t33.5 81t24 104.5zM60 250q23 16 48 25t52 13q1 4 1 7l7 37l12 65q1 3 2.5 9.5t3.5 20.5l2 11l3 10l1 9q-8 -11 -14 -18t-12 -15q-8 -11 -17.5 -26t-20.5 -32.5t-22 -36t-20 -34.5q-11 -20 -15.5 -28t-10.5 -17z" />
    <glyph glyph-name="acute" unicode="&#xb4;" horiz-adv-x="302" 
d="M236 527l-169 -98l76 98h93z" />
    <glyph glyph-name="dieresis" unicode="&#xa8;" horiz-adv-x="337" 
d="M79 419q-12 8 -12 27q0 17 8.5 38.5t22.5 36.5q19 19 34 19h4zM147 537q14 -6 14 -27q0 -17 -10 -39t-26 -37q-17 -18 -35 -18l57 121v0zM189 419q-13 9 -13 26t9 38.5t23 36.5q18 20 34 20h3zM256 537q15 -8 15 -27q0 -17 -10.5 -39t-25.5 -38q-17 -17 -35 -17l56 121v0
z" />
    <glyph glyph-name="notequal" unicode="&#x2260;" 
d="M33 667h334v-667h-334v667zM360 7v653h-320v-653h320z" />
    <glyph glyph-name="AE" unicode="&#xc6;" horiz-adv-x="296" 
d="M0 188q7 12 55 96q62 110 117 155q26 23 54.5 35t54.5 12q12 0 20.5 -6t8.5 -14v-2h-1q-5 -14 -17 -20t-38 -6h-6q-2 0 -3 1h-16q-7 0 -11 0.5t-7 0.5h-16q-2 0 -4 -1l-10 -6q-10 -8 -16.5 -14.5t-10 -16t-5 -23t-1.5 -34.5v-12q2 -14 4 -26q3 -18 7 -32q43 15 79.5 40.5
t62.5 58t40.5 70.5t14.5 78q0 27 -11 50.5t-30.5 41t-46 27t-57.5 9.5q-32 0 -60 -10.5t-49.5 -27.5t-34 -40.5t-12.5 -48.5q0 -10 4.5 -18.5t11.5 -13.5l6 -5q4 -2 4 -5q0 -6 -8 -6q-11 0 -20.5 15.5t-9.5 33.5q0 28 13.5 53.5t37 45t54.5 30.5t66 11q38 0 70 -13t55 -35.5
t36 -53.5t13 -67q0 -52 -27.5 -96t-85.5 -84q-16 -11 -31.5 -19.5t-43.5 -22.5q-8 -5 -18 -9.5t-16 -7.5l-3 -1l1 -7l1 -6q7 -41 7 -71q0 -35 -11 -65t-30.5 -52.5t-46 -36t-58.5 -14.5l2 1q-15 -5 -29 -5q-31 0 -49 21t-18 57q0 30 13.5 53.5t47.5 51.5zM109 228
q-29 -16 -55.5 -39.5t-46.5 -49t-32.5 -50.5t-12.5 -45q0 -14 7.5 -23t20.5 -9q37 0 67.5 53.5t49.5 149.5zM19 200q28 20 93 46q3 13 6 27.5t8 41.5l12 67l1 8q-7 -7 -11.5 -13t-13.5 -19l-50 -78l-39 -71z" />
    <glyph glyph-name="Oslash" unicode="&#xd8;" horiz-adv-x="199" 
d="M128 452l-35 9l-91 23q-116 29 -208.5 43.5t-158.5 14.5q-81 0 -124 -22.5t-43 -65.5q0 -42 38 -48q8 -1 8 -7q0 -7 -8 -7q-18 0 -33.5 19t-15.5 42q0 28 15 52.5t41 43t60 29.5t73 11q53 0 121 -14q11 -3 24 -6t30 -8.5t39.5 -13t53.5 -17.5q31 -11 70.5 -23t76.5 -23
q10 -3 18.5 -5.5t19.5 -5.5t26.5 -7t40.5 -11l3 -1l32 70h87l-42 -91l2 -1l10 -2q21 -4 43 -6t40 -2q63 0 102.5 30.5t39.5 79.5q0 20 -15 28q-7 5 -7 8q0 6 7 6q11 0 19.5 -12t8.5 -28q0 -27 -11.5 -50t-31.5 -39.5t-48.5 -25.5t-61.5 -9q-42 0 -100 11l-3 1l-130 -279
q-11 -23 -20 -45t-17 -41q-7 -20 -7 -30q0 -14 12 -14q17 0 39.5 30t55.5 97q9 19 14.5 30t8.5 16t4.5 6.5t3.5 1.5q5 0 5 -6q0 -2 -2 -6l-24 -47q-19 -38 -34.5 -64t-28.5 -42t-25 -23t-25 -7q-17 0 -26 10q-8 9 -9 24q-13 20 -13 53q0 20 6.5 45t20.5 60q4 10 9.5 22.5
t11.5 26t11.5 26.5t9.5 22l20 42l-6 -8l-6 -7q-26 -32 -48.5 -66t-38.5 -66q-4 -6 -7 -6q-5 0 -5 5q0 4 7 17.5t19 33.5q14 22 32 47.5t33 44.5l15 18q10 11 17.5 22t11.5 17l29 61z" />
    <glyph glyph-name="infinity" unicode="&#x221e;" 
d="M33 667h334v-667h-334v667zM360 7v653h-320v-653h320z" />
    <glyph glyph-name="plusminus" unicode="&#xb1;" horiz-adv-x="833" 
d="M80 206q9 34 29.5 66t47.5 57t57.5 40.5t59.5 15.5q36 0 58 -23t22 -61q0 -25 -10 -50t-26.5 -45.5t-37 -33t-40.5 -12.5q-13 0 -23 7t-10 15q0 6 6 6q2 0 4 -3l3 -4q4 -9 18 -9q18 0 36.5 11.5t33.5 30.5t24 42t9 46q0 32 -18.5 51.5t-48.5 19.5q-31 0 -67 -21.5
t-67 -59.5q-47 -59 -47 -117q0 -21 8.5 -39.5t23.5 -32t35 -21.5t43 -8q52 0 104 46q33 27 51 51q14 19 33.5 48t42.5 67q32 53 69 108t67 95q18 24 34 41q15 20 29.5 36.5t26.5 27.5q30 29 70 46.5t75 17.5t35 -8q0 -5 -4 -5h-3q-2 1 -10 1q-17 0 -28 -14t-27 -57l-27 -75
l-34 -99l-41 -128q-18 -53 -37.5 -92.5t-43.5 -68.5t-55 -49t-71 -33q-8 -5 -15 -8.5l-15 -7.5q6 0 11 -0.5t7 -0.5q162 0 256 109q18 21 33 42.5t32 54t39.5 80.5t55.5 122q20 46 36.5 78.5t31.5 55.5t30 39.5t33 30.5q25 20 53 24.5t51 -3t38.5 -25.5t15.5 -43
q0 -32 -22 -52t-55 -20q-22 0 -36.5 8t-14.5 20q0 13 8 13q5 0 5 -5l-2 -4v-3q0 -8 11.5 -13.5t28.5 -5.5q27 0 45 15.5t18 38.5q0 17 -13.5 28t-33.5 11q-53 0 -114.5 -71.5t-140.5 -224.5q-29 -55 -60.5 -107.5t-65.5 -91.5q-99 -111 -259 -111h-3q-15 0 -32 2.5t-26 5.5
q-4 1 -4 5q0 5 5 5h7q23 0 54 28q33 32 67 95q11 17 18.5 33t20.5 44q7 16 18.5 41.5t22.5 51.5q39 91 71.5 152.5t62.5 103.5q14 20 31.5 43t32.5 35q-16 -1 -35 -8t-38 -17.5t-36.5 -23t-30.5 -24.5q-10 -11 -20 -24t-21 -29t-23.5 -36t-26.5 -47q-21 -37 -41 -76t-39 -79
q-4 -9 -9.5 -20l-11 -22t-9.5 -20t-6 -14q-103 -214 -249 -214q-51 0 -79 20t-39.5 51.5t-10.5 68.5t8 72z" />
    <glyph glyph-name="lessequal" unicode="&#x2264;" 
d="M33 667h334v-667h-334v667zM360 7v653h-320v-653h320z" />
    <glyph glyph-name="greaterequal" unicode="&#x2265;" 
d="M33 667h334v-667h-334v667zM360 7v653h-320v-653h320z" />
    <glyph glyph-name="yen" unicode="&#xa5;" horiz-adv-x="447" 
d="M169 518q10 -16 12 -27l63 -263l-107 -228h-50q8 12 12.5 19t13.5 24q11 19 25 47.5t26 54.5l5.5 11t5.5 13h-124l6 14h125l12 28h-124l7 14h123q-2 16 -5 33.5t-11 52.5l-18 78q-5 20 -11.5 43t-10.5 33q-3 7 -9 7q-5 0 -11 -7q-15 -16 -18.5 -19t-5.5 -3q-4 0 -4 4
q0 2 6 8q12 13 21 22.5t16.5 16t14 12.5t15.5 12zM180 523q21 18 36 18q5 0 8.5 -2.5t7.5 -12.5t8.5 -31.5t12.5 -58.5l21 -95l20 -94l3 -12q7 11 11.5 18.5t15.5 22.5q14 19 29.5 40.5t23.5 32.5l4 5q-65 8 -65 66q0 16 6 31.5t16.5 27t24 18.5t28.5 7q11 0 11 -6
q0 -5 -6 -5h-5q-26 0 -45 -22.5t-19 -51.5q0 -49 60 -55l6 8q21 28 38 49t29 36q32 42 60.5 64.5t48.5 22.5q7 0 16 -5q-17 -13 -39 -35t-44 -47t-41.5 -51t-32.5 -47q-8 -2 -14 -3t-19 -2l-21 -28t-24.5 -33.5t-24 -35t-20.5 -32.5h128l-6 -14h-130q-5 -8 -7.5 -13
t-6.5 -15h130l-7 -14h-130q-9 -18 -19.5 -40t-20 -45t-18.5 -45t-15 -39h-53l106 227l-64 269q-3 15 -12 27zM592 532l1.5 -6t0.5 -5q0 -20 -36 -66q-25 -32 -55.5 -55.5t-60.5 -34.5q11 17 27 37t36 43q12 13 23.5 25.5t23.5 25.5l14 14l9 9t8 6.5t9 6.5z" />
    <glyph glyph-name="mu" unicode="&#xb5;" horiz-adv-x="356" 
d="M87 106q-6 -20 -10 -46t-4 -43q0 -39 14.5 -60t41.5 -21q47 0 94 53q13 15 24.5 33.5t20.5 38t14 39t5 34.5q0 12 -5.5 19.5t-15.5 7.5q-5 0 -10 -4q-4 -2 -5 -2q-5 0 -5 6q0 11 20 11q24 0 40.5 -22.5t16.5 -54.5t-17 -63t-44.5 -55.5t-62.5 -39.5t-71 -15
q-47 0 -71.5 30.5t-24.5 88.5q0 53 21.5 115.5t62.5 126.5q31 48 62.5 73.5t61.5 25.5q25 0 41.5 -20t16.5 -49q0 -34 -18 -69t-48 -64t-68 -49.5t-77 -24.5zM55 -61q-32 13 -51.5 50.5t-19.5 86.5q0 63 23 122.5t66 109.5q32 37 62 54.5t65 19.5q-28 -14 -51.5 -38.5
t-50.5 -69.5q-77 -124 -77 -234q0 -71 34 -101zM90 119q44 5 87 58q18 22 34.5 46.5t29 47t19.5 41.5t7 31q0 25 -21 25q-17 0 -40.5 -26.5t-49.5 -74.5t-41.5 -83t-24.5 -65z" />
    <glyph glyph-name="mu" unicode="&#x3bc;" horiz-adv-x="356" 
d="M87 106q-6 -20 -10 -46t-4 -43q0 -39 14.5 -60t41.5 -21q47 0 94 53q13 15 24.5 33.5t20.5 38t14 39t5 34.5q0 12 -5.5 19.5t-15.5 7.5q-5 0 -10 -4q-4 -2 -5 -2q-5 0 -5 6q0 11 20 11q24 0 40.5 -22.5t16.5 -54.5t-17 -63t-44.5 -55.5t-62.5 -39.5t-71 -15
q-47 0 -71.5 30.5t-24.5 88.5q0 53 21.5 115.5t62.5 126.5q31 48 62.5 73.5t61.5 25.5q25 0 41.5 -20t16.5 -49q0 -34 -18 -69t-48 -64t-68 -49.5t-77 -24.5zM55 -61q-32 13 -51.5 50.5t-19.5 86.5q0 63 23 122.5t66 109.5q32 37 62 54.5t65 19.5q-28 -14 -51.5 -38.5
t-50.5 -69.5q-77 -124 -77 -234q0 -71 34 -101zM90 119q44 5 87 58q18 22 34.5 46.5t29 47t19.5 41.5t7 31q0 25 -21 25q-17 0 -40.5 -26.5t-49.5 -74.5t-41.5 -83t-24.5 -65z" />
    <glyph glyph-name="partialdiff" unicode="&#x2202;" 
d="M33 667h334v-667h-334v667zM360 7v653h-320v-653h320z" />
    <glyph glyph-name="summation" unicode="&#x2211;" 
d="M33 667h334v-667h-334v667zM360 7v653h-320v-653h320z" />
    <glyph glyph-name="product" unicode="&#x220f;" 
d="M33 667h334v-667h-334v667zM360 7v653h-320v-653h320z" />
    <glyph glyph-name="pi" unicode="&#x3c0;" 
d="M33 667h334v-667h-334v667zM360 7v653h-320v-653h320z" />
    <glyph glyph-name="integral" unicode="&#x222b;" 
d="M33 667h334v-667h-334v667zM360 7v653h-320v-653h320z" />
    <glyph glyph-name="ordfeminine" unicode="&#xaa;" horiz-adv-x="1537" 
d="M1239 430q49 0 88 -7t73 -24q81 -38 81 -91q0 -35 -35.5 -58t-91.5 -23q-48 0 -80 16.5t-32 42.5q0 7 3.5 12t8.5 5t5 -5v-2l-3 -4q-2 -4 -2 -7q0 -9 8 -18t22 -15.5t31.5 -10.5t37.5 -4q24 0 45 5.5t37 15.5t25 23t9 28q0 35 -37 54q-22 11 -68 18t-95 7q-47 0 -90 -2.5
t-88.5 -8.5t-96.5 -16.5t-114 -25.5l-174 -41q-74 -18 -143.5 -32t-125.5 -23q-83 -12 -157 -12q-102 0 -163 27t-61 74q0 10 5 17.5t11 7.5q5 0 5 -5q0 -2 -0.5 -3t-3.5 -4q-6 -6 -6 -14q0 -29 36 -52q55 -35 178 -35q109 0 246 31q23 5 45 10.5t59 15.5q13 3 26.5 6.5
t29.5 8t36 10t46 13.5q27 8 52 14.5t52 14.5q57 17 107.5 29t94.5 20q19 4 40.5 7t43.5 5t42.5 3.5t37.5 1.5z" />
    <glyph glyph-name="ordmasculine" unicode="&#xba;" horiz-adv-x="1537" 
d="M1259 240q132 0 184 43q27 21 27 44q0 8 -6 14q-4 3 -4.5 4t-0.5 3q0 5 6 5t11 -7.5t5 -17.5q0 -47 -61 -74t-167 -27q-41 0 -85.5 4t-98.5 13q-50 8 -112.5 21.5t-125.5 28.5l-174 41q-63 15 -113.5 25t-95.5 16.5t-87.5 9t-88.5 2.5q-29 0 -56 -2t-50 -6t-41 -9.5
t-28 -11.5q-29 -20 -29 -49q0 -31 34 -52t83 -21q18 0 36 4t31.5 10.5t22 15t8.5 17.5q0 4 -2 8l-3 4l-1 2q0 5 6 5q5 0 8.5 -5t3.5 -12q0 -26 -32 -42.5t-80 -16.5q-28 0 -51.5 6t-40.5 17t-26.5 25.5t-9.5 32.5q0 57 94 97q59 25 150 25q41 0 80.5 -4t81.5 -13
q48 -10 98.5 -22t104.5 -27l172 -48q75 -21 134.5 -35.5t109.5 -23.5t93.5 -13t85.5 -4z" />
    <glyph glyph-name="Omega" unicode="&#x3a9;" 
d="M33 667h334v-667h-334v667zM360 7v653h-320v-653h320z" />
    <glyph glyph-name="Omega" unicode="&#x2126;" 
d="M33 667h334v-667h-334v667zM360 7v653h-320v-653h320z" />
    <glyph glyph-name="ae" unicode="&#xe6;" horiz-adv-x="494" 
d="M294 106q-3 -10 -4.5 -17.5t-1.5 -16.5q0 -27 11.5 -42.5t32.5 -15.5q41 0 83 43.5t76 121.5q5 11 6.5 13t4.5 2q5 0 5 -5q0 -3 -1 -5l-1 -2q-16 -41 -37 -74.5t-44 -57.5t-47.5 -37.5t-47.5 -13.5q-39 0 -60.5 22.5t-21.5 64.5q0 23 7.5 52t21.5 57l18 38l3 8l64 141
q12 -12 25 -12q5 0 11.5 1t23.5 6q12 3 19 4t12 1q26 0 41 -16.5t15 -44.5q0 -36 -18.5 -72t-48.5 -66.5t-68.5 -51.5t-78.5 -25zM45 8q-26 8 -40 35.5t-14 68.5q0 46 18.5 94t47.5 87t64 64t69 25q3 0 6 -1q-20 -8 -46 -33t-51 -63q-37 -53 -57 -106.5t-20 -98.5
q0 -47 23 -72zM262 13q-49 20 -65 85q-3 -3 -3 -4l-9 -11l-14 -18q-8 -11 -19.5 -23t-22.5 -22q-23 -20 -43 -20q-26 0 -39.5 21t-13.5 59q0 46 21.5 101t60.5 110q31 44 61.5 67.5t55.5 23.5q21 0 32.5 -14t11.5 -40v-10l30 64h44l-76 -164q-20 -44 -29 -74.5t-9 -56.5
q0 -47 26 -74zM297 119q36 3 76 46q7 7 16.5 19t19.5 26t19.5 28.5t16.5 26.5q14 25 22.5 48t8.5 37q0 8 -5 13t-13 5q-15 -1 -30.5 -14t-37.5 -45q-13 -18 -27 -42t-26.5 -50t-23 -51.5t-16.5 -46.5zM265 326q0 16 -7.5 26.5t-19.5 10.5q-22 -1 -52.5 -38.5t-64.5 -105.5
q-55 -108 -55 -163q0 -18 8 -28.5t21 -10.5q27 0 67 66q20 35 42 79t39 84q22 53 22 80z" />
    <glyph glyph-name="oslash" unicode="&#xf8;" horiz-adv-x="324" 
d="M-2 63q-10 24 -10 55q0 21 6.5 46t18 50.5t27.5 49t34 42.5q60 62 130 74q-35 -20 -62.5 -48t-56.5 -76q-32 -50 -49 -97t-17 -82q0 -17 3.5 -30.5t11.5 -28.5q-10 5 -15 10.5t-13 16.5l-45 -45h-26l63 63v0zM320 382h26l-37 -37q4 -9 5 -17.5t1 -19.5q0 -17 -7 -41.5
t-19 -53.5t-28.5 -59.5t-35.5 -57.5l-2 -2q3 -1 8 -1q46 0 90 87q5 11 6.5 12.5t4.5 1.5q5 0 5 -6q0 -2 -0.5 -3t-4.5 -8q-26 -51 -50 -73.5t-51 -22.5q-5 0 -7.5 0.5l-7.5 1.5l-2 -2q-32 -42 -61 -62t-61 -20q-30 0 -46.5 20.5t-16.5 58.5q0 21 7.5 48t20.5 57t31 60t38 56
q65 83 128 83q30 0 46 -20zM81 118q-9 -26 -12.5 -38t-3.5 -24q0 -20 9.5 -31.5t24.5 -11.5q24 0 52.5 20.5t54.5 55.5v4q0 7 5.5 26t12.5 38q10 24 26 54.5t30 51.5q6 10 10.5 15.5t11.5 11.5q1 5 1.5 9t0.5 9q0 16 -4 28l-218 -216zM292 354q-13 14 -29 14
q-71 0 -162 -201l-1 -3zM196 96q-13 10 -13 34q0 23 12.5 56.5t32.5 59.5q17 22 31.5 32.5t31.5 14.5q-14 -15 -29.5 -40t-29 -53t-23.5 -55.5t-13 -48.5z" />
    <glyph glyph-name="questiondown" unicode="&#xbf;" horiz-adv-x="555" 
d="M172 59q0 -23 14 -38t37 -15q62 0 125 74q17 19 33.5 43.5t29 48.5t20.5 45.5t8 33.5q0 31 -27 31q-23 0 -51.5 -19t-46.5 -48q-11 -16 -16.5 -32.5t-5.5 -30.5q0 -16 8 -32q2 -2 2 -5q0 -5 -5 -5q-6 0 -12 13.5t-6 28.5q0 24 12.5 49.5t31.5 46t42.5 34t46.5 13.5
q20 0 31 -14t11 -38q0 -38 -24.5 -86t-64.5 -89q-35 -35 -72 -54.5t-70 -19.5q-19 0 -35.5 8t-29 22t-19.5 33t-7 41q0 26 11.5 52t31.5 49q26 31 58 56q10 8 25 19.5t36 26.5q107 81 107 125q0 9 -4 17l-2 4q-1 1 -1 4q0 6 5 6t9.5 -9.5t4.5 -20.5t-3 -20.5t-11 -21
t-22.5 -26.5t-36.5 -37q-48 -47 -79.5 -85t-52.5 -76q-17 -29 -26.5 -56.5t-9.5 -45.5zM179 -4q-49 17 -75 49.5t-26 74.5q0 28 12.5 57t33.5 51q12 13 23 22.5t26 19t36 19.5t52 24q23 10 41 18.5t39 19.5q-6 -6 -10 -8q-5 -5 -13.5 -11t-28.5 -22q-8 -5 -14.5 -10.5
t-14.5 -11.5q-75 -56 -106.5 -99.5t-31.5 -90.5q0 -67 57 -102zM289 2q34 16 65.5 44t55.5 61t38.5 68.5t14.5 66.5q0 8 -0.5 14t-2.5 16q9 -14 13.5 -27.5t4.5 -30.5q0 -32 -15 -64.5t-40.5 -61.5t-60 -51.5t-73.5 -34.5zM491 649q17 -11 17 -35q0 -22 -12 -49.5t-30 -47.5
q-23 -26 -43 -26h-5zM407 494q-18 10 -18 35q0 20 8.5 41.5t22 39.5t29.5 30t32 12l-74 -158v0z" />
    <glyph glyph-name="exclamdown" unicode="&#xa1;" horiz-adv-x="311" 
d="M221 310q5 11 9.5 22t12.5 34l18 46q6 16 9 24.5t5 12.5t3.5 5t3.5 1q4 0 4 -5q0 -2 -3 -8q-6 -15 -10 -25.5t-7 -18.5t-5.5 -16t-6.5 -20q-4 -13 -7 -22.5t-6 -21t-7.5 -28t-10.5 -43.5q-11 -46 -20.5 -80t-18.5 -59t-17.5 -42t-17.5 -30q-33 -44 -68 -44h-9zM61 -5
q-28 16 -28 46q0 38 34 95q8 13 17.5 26.5t20.5 28.5q2 3 6.5 9.5t16.5 22.5l8 10l8 10q19 26 41 55t39 55l12 17l-175 -375v0zM373 637q16 -11 16 -34q0 -22 -11.5 -50t-29.5 -48q-22 -25 -44 -25h-4zM289 483q-19 9 -19 35q0 20 8.5 41.5t22 39.5t30 30t31.5 12l-73 -158
v0z" />
    <glyph glyph-name="logicalnot" unicode="&#xac;" horiz-adv-x="216" 
d="M-39 460q0 13 15.5 21.5t39.5 8.5q58 0 78 -42q5 0 7 0.5t4 0.5q60 0 84.5 -28.5t24.5 -74.5q0 -16 -3.5 -31.5t-13.5 -38.5q-7 -18 -20.5 -45t-26.5 -50l-32 -57q-35 -62 -35 -84q0 -18 13 -18q24 0 68 74q7 12 15.5 27t22.5 42l11 22q3 7 7 7q5 0 5 -6l-2 -6l-4 -8
q-3 -6 -8.5 -16.5t-11.5 -22.5t-13 -24t-13 -22q-28 -49 -49.5 -69.5t-44.5 -20.5t-34 14q2 -3 7 -8q-45 18 -45 70q0 25 13 54t47 80q5 7 11.5 17t23.5 35q26 40 41.5 64t23 38t9.5 21.5t2 15.5q0 17 -19.5 27t-53.5 10q-1 0 -2.5 -0.5t-3.5 -0.5q1 -5 1.5 -9.5t0.5 -9.5
q0 -17 -5.5 -41t-16.5 -51q-10 -27 -24.5 -57t-39.5 -77q-1 -3 -2 -4.5t-1 -3.5q-5 -6 -7 -6q-6 0 -6 5q0 2 1 4.5t6 10.5l22 43q62 122 62 179v7.5t-1 9.5q-5 -1 -8 -1t-14 -1q-36 -3 -47 -3q-23 0 -38 6.5t-20 17.5h-1v5z" />
    <glyph glyph-name="radical" unicode="&#x221a;" 
d="M33 667h334v-667h-334v667zM360 7v653h-320v-653h320z" />
    <glyph glyph-name="florin" unicode="&#x192;" horiz-adv-x="485" 
d="M32 -113q-29 0 -48 27.5t-19 70.5q0 53 25 102t70 82q43 32 68 32q15 0 24.5 -12t9.5 -32q0 -25 -9.5 -51t-24 -47t-32.5 -34.5t-36 -13.5q-5 0 -5 5q0 6 7 6q16 2 32.5 15t29 32.5t20.5 43t8 46.5q0 13 -6 21.5t-15 8.5q-14 0 -32 -16.5t-39 -47.5q-31 -47 -49.5 -94.5
t-18.5 -82.5q0 -23 10 -36.5t27 -13.5q11 0 24.5 6.5t23.5 17.5q20 20 53 80q14 25 29 55.5t32 72.5q6 14 12.5 28.5t12.5 28.5q5 11 7.5 17t4.5 10l4 9q2 5 5 11h-113l10 14h110l12 26h-107l8 15h105l5 8q19 42 34 71t28.5 50.5t26.5 38t30 33.5q22 23 38 34q11 8 23 13
l8 6q29 22 54 22q26 0 42.5 -21.5t16.5 -55.5q0 -33 -13 -66t-33.5 -59.5t-46 -43t-50.5 -16.5q-17 0 -26.5 10t-9.5 27t9 33t23 26q5 2 9 4t7 2q4 0 4 -5q0 -3 -6 -5q-15 -6 -25.5 -21.5t-10.5 -32.5q0 -29 25 -29q27 0 60 52q12 19 22.5 40.5t18 42.5t12 39.5t4.5 31.5
q0 17 -8.5 26.5t-22.5 9.5q-31 0 -73 -60q-12 -17 -23.5 -40t-31.5 -65q-12 -24 -22.5 -47.5t-20.5 -46.5l-2 -6h139l-8 -15h-137l-11 -26h134l-10 -14h-131l-3 -7l-47 -105q-43 -93 -91 -148q-46 -54 -96 -72q-24 -15 -44 -15z" />
    <glyph glyph-name="approxequal" unicode="&#x2248;" 
d="M33 667h334v-667h-334v667zM360 7v653h-320v-653h320z" />
    <glyph glyph-name="Delta" unicode="&#x394;" 
d="M33 667h334v-667h-334v667zM360 7v653h-320v-653h320z" />
    <glyph glyph-name="Delta" unicode="&#x2206;" 
d="M33 667h334v-667h-334v667zM360 7v653h-320v-653h320z" />
    <glyph glyph-name="guillemotleft" unicode="&#xab;" horiz-adv-x="396" 
d="M172 205l62 -132l-8 9q-26 25 -41 40.5t-25.5 25.5t-17.5 17t-16 15t-15.5 14.5t-17.5 14.5q29 14 52 25t51 26q18 9 38.5 20.5t41.5 23.5t41 24t37 22l9 5zM368 339q-9 -10 -22 -24.5t-27 -30.5t-27.5 -31t-22.5 -26t-14.5 -18t-13.5 -18q1 -36 4 -66t10 -65l-63 141
l185 148z" />
    <glyph glyph-name="guillemotright" unicode="&#xbb;" horiz-adv-x="399" 
d="M56 73l65 76q25 28 38 44.5t22 30.5q0 12 -0.5 19.5t-2.5 22.5q-2 19 -5 43t-5 39l-1 7l59 -142l-178 -149zM189 344q13 -14 28 -29.5t38 -37.5l66 -63q2 -1 4 -2.5t4 -3.5l-14 -7t-12.5 -6.5t-14.5 -7.5t-21 -11q-17 -9 -34.5 -18.5t-35.5 -19.5q-23 -13 -34 -19.5
t-21 -12.5q-11 -6 -20 -12t-20 -12q-10 -6 -15.5 -9.5t-8.5 -5.5t-5.5 -3t-7.5 -4l183 150l-59 134v0z" />
    <glyph glyph-name="ellipsis" unicode="&#x2026;" horiz-adv-x="1000" 
d="M495 156l2 -1h2l-1 -1q16 -11 16 -33q0 -23 -13.5 -51.5t-33.5 -48.5q-11 -11 -22.5 -17t-22.5 -6l1 2q-14 11 -14 33q0 21 12 49t30 48q22 25 43 25zM162 156l2 -1h2l-1 -1q15 -10 15 -33t-13 -51.5t-33 -48.5q-11 -11 -23 -17t-23 -6l1 2q-13 12 -13 33t12 49t29 48
q22 25 44 25zM829 156l2 -1h1l-1 -1q16 -10 16 -33t-13.5 -51.5t-33.5 -48.5q-11 -11 -22.5 -17t-22.5 -6l1 2q-13 12 -13 33t12 49t29 48q22 25 44 25z" />
    <glyph glyph-name="nonbreakingspace" unicode="&#xa0;" horiz-adv-x="202" 
 />
    <glyph glyph-name="Agrave" unicode="&#xc0;" horiz-adv-x="197" 
d="M151 424q-5 1 -11.5 1.5t-23.5 2.5q-6 1 -12 1.5t-11 1.5q-26 3 -44.5 4t-31.5 1q-31 0 -52 -7t-26 -21l-1 -4q-1 -4 -6 -4q-6 0 -6 7q0 18 26 30t64 12q14 0 30 -1t47 -5q17 -2 34 -3.5t30 -3.5h3l41 88h86l-44 -95h3q11 -1 22 -1h20q73 0 137.5 14t112.5 41
q42 23 67.5 58.5t25.5 69.5q0 23 -13.5 38t-36.5 15q-17 0 -30.5 -7.5t-18.5 -18.5l-1 -3q-1 -4 -5 -4q-5 0 -5 5q0 15 18.5 27t41.5 12q32 0 53 -24.5t21 -59.5q0 -28 -16.5 -59t-45.5 -56q-77 -66 -245 -66q-25 0 -53 1.5t-56 3.5l-3 1l-127 -273q-10 -21 -20 -45t-17 -41
q-7 -20 -7 -30q0 -14 12 -14q17 0 39.5 30t55.5 97q9 19 14.5 30t8.5 16t4.5 6.5t3.5 1.5q5 0 5 -6q0 -2 -2 -6l-24 -47q-19 -38 -34.5 -64t-28.5 -42t-25 -23t-25 -7q-17 0 -26 10t-9 25q-12 21 -12 52q0 20 6.5 45t20.5 60q4 10 9.5 22.5t11.5 26t11.5 26.5t9.5 22l20 42
l-6 -8l-6 -7q-26 -32 -48.5 -66t-38.5 -66q-4 -6 -7 -6q-5 0 -5 5q0 4 7 17.5t19 33.5q14 22 32 47.5t33 44.5l15 18q10 11 17.5 22t11.5 17l20 42h-4z" />
    <glyph glyph-name="Atilde" unicode="&#xc3;" horiz-adv-x="133" 
d="M-177 392q14 0 23 7.5t11 18.5q0 7 5 7q7 0 7 -10q0 -12 -14 -22.5t-31 -10.5q-16 0 -30 8t-24.5 22.5t-16.5 33.5t-6 41q0 33 12.5 62.5t34 52t50 35.5t60.5 13q37 0 69 -17.5t55 -47.5t36.5 -71t13.5 -89q0 -26 -3 -50t-10 -51t-18.5 -58t-28.5 -70q-5 -12 -8 -16
t-7 -4t-4 4q0 2 1 4.5t5 10.5q26 56 37.5 105.5t11.5 100.5q0 56 -16 108t-42 84q-38 44 -91 44q-30 0 -56.5 -12t-46.5 -33t-31.5 -48.5t-11.5 -58.5q0 -19 5 -36t14 -29.5t20.5 -20t24.5 -7.5z" />
    <glyph glyph-name="Otilde" unicode="&#xd5;" horiz-adv-x="143" 
d="M-128 420q2 1 5 1q5 0 5 -5q0 -9 -16 -9q-19 0 -33 19t-14 45q0 23 10 44t27 37t39 25.5t47 9.5q30 0 56.5 -13.5t46.5 -36t32 -52t12 -62.5q0 -36 -14 -83t-43 -113q-6 -15 -13.5 -30t-9.5 -18t-5 -3q-5 0 -5 5q0 2 2 6q2 2 3.5 6.5t3.5 9.5l17 43q14 36 23 79t9 80
t-9 68t-25 53.5t-38 35t-48 12.5q-21 0 -40 -8.5t-34 -22.5t-23.5 -32.5t-8.5 -39.5t10.5 -36t25.5 -15h5z" />
    <glyph glyph-name="OE" unicode="&#x152;" 
d="M33 667h334v-667h-334v667zM360 7v653h-320v-653h320z" />
    <glyph glyph-name="endash" unicode="&#x2013;" horiz-adv-x="507" 
d="M137 235q23 -1 48.5 -1.5t54.5 -0.5q41 0 80 1t70 3q14 1 24.5 1.5t25.5 2.5q-9 -12 -16 -24t-18 -30l-4 -7h-8q-17 1 -38.5 1h-49.5q-68 0 -115 -1t-85 -5h-10q11 17 17.5 30t14.5 31z" />
    <glyph glyph-name="emdash" unicode="&#x2014;" horiz-adv-x="1163" 
d="M137 235q14 -1 36 -1t51 -1l198 -3h121h81h115t97.5 1t86.5 1.5t80 2.5q31 1 51.5 2.5t40.5 3.5q-8 -12 -15.5 -24t-17.5 -30l-4 -7h-9q-10 1 -21.5 1h-35.5h-18.5t-18.5 1l-173 1h-172h-60l-112 -1l-112 1q-66 0 -126 -2t-105 -6q12 17 18.5 30t14.5 31z" />
    <glyph glyph-name="quotedblleft" unicode="&#x201c;" horiz-adv-x="297" 
d="M289 459q-3 7 -3 20t5.5 30.5t15 37t22 39.5t27.5 38q18 21 36.5 34t30.5 13q7 0 7 -5q0 -3 -7 -6q-36 -10 -62 -69l6 -2l-2 -5q12 -11 12 -29q0 -20 -10.5 -44.5t-26.5 -42.5q-21 -23 -39 -23h-5l1 3q-5 5 -8 11zM171 479q0 13 5.5 30.5t14.5 37t22 39.5t28 38
q18 21 36 34t31 13q6 0 6 -5q0 -4 -6 -6q-20 -5 -34 -21t-28 -48q2 0 3 -1l3 -1l-2 -5q12 -11 12 -28q0 -20 -10.5 -45t-26.5 -43q-21 -23 -40 -23h-4l1 3q-11 10 -11 31z" />
    <glyph glyph-name="quotedblright" unicode="&#x201d;" horiz-adv-x="298" 
d="M395 662l2 -2h2l-1 -1q11 -10 11 -30q0 -26 -19.5 -67t-49.5 -78q-17 -20 -36 -33.5t-32 -13.5q-6 0 -6 5q0 4 6 6q19 5 33.5 21t28.5 48h-3l-3 2l1 2q-11 10 -11 29t10.5 44t27.5 43q19 22 38 23zM280 662l2 -2h2l-1 -1q11 -11 11 -30q0 -13 -5.5 -30.5t-14.5 -37
t-22 -39.5t-28 -38q-18 -21 -36 -34t-31 -13q-7 0 -7 5q0 3 7 6q19 5 33.5 21t28.5 48h-3l-3 2l1 2q-11 10 -11 28q0 20 10.5 45t26.5 43q20 22 39 23z" />
    <glyph glyph-name="quoteleft" unicode="&#x2018;" horiz-adv-x="182" 
d="M171 479q0 13 5.5 30.5t14.5 37t22 39.5t28 38q18 21 36 34t31 13q6 0 6 -5q0 -4 -6 -6q-20 -5 -34 -21t-28 -48q2 0 3 -1l3 -1l-2 -5q12 -11 12 -28q0 -20 -10.5 -45t-26.5 -43q-21 -23 -40 -23h-4l1 3q-11 10 -11 31z" />
    <glyph glyph-name="quoteright" unicode="&#x2019;" horiz-adv-x="182" 
d="M295 627q0 -13 -5.5 -30.5t-14.5 -37t-22 -39.5t-28 -38q-18 -21 -36 -34t-31 -13q-7 0 -7 5q0 3 7 6q19 5 33.5 21t28.5 48h-3l-3 2l1 2q-12 10 -12 30t10.5 45t26.5 43q21 23 40 23h4l-1 -2q12 -11 12 -31z" />
    <glyph glyph-name="divide" unicode="&#xf7;" horiz-adv-x="906" 
d="M643 235q-42 0 -69 12.5t-27 32.5q0 13 9 13q5 0 5 -5v-3v-4q0 -17 24.5 -25.5t69.5 -8.5q37 0 70.5 7.5t58.5 20t39.5 29.5t14.5 36q0 47 -100 47q-26 0 -53.5 -2.5t-60 -8.5t-72 -16t-89.5 -24q-36 -11 -62 -18t-44.5 -12t-32.5 -8t-27 -6q-27 -6 -49 -8.5t-44 -2.5
q-67 0 -107.5 23.5t-40.5 61.5q0 11 6.5 20t14.5 9q7 0 7 -6q0 -3 -7 -7q-10 -4 -10 -16q0 -33 39 -54t99 -21q34 0 68 7q29 5 80 20.5t105 33.5l87 29t70 22q29 9 61 14.5t53 5.5q54 0 88 -22.5t34 -57.5q0 -24 -15.5 -44t-43 -34t-65.5 -22t-84 -8z" />
    <glyph glyph-name="lozenge" unicode="&#x25ca;" 
d="M33 667h334v-667h-334v667zM360 7v653h-320v-653h320z" />
    <glyph glyph-name="ydieresis" unicode="&#xff;" horiz-adv-x="396" 
d="M85 1l-6 -1q-1 -1 -4 -1q-24 0 -42.5 23t-18.5 55q0 15 7.5 36.5t20.5 44.5q10 17 20.5 35t23.5 36l7 10q2 3 6.5 8t9.5 12q4 5 7.5 10t7.5 10q23 31 32 46.5t9 23.5q0 7 -4.5 11.5t-10.5 4.5q-9 0 -22 -10t-28 -27t-30.5 -41t-30.5 -52l-23 -44q-2 -2 -2.5 -4t-1.5 -4
q-5 -6 -7 -6q-5 0 -5 5q0 1 2 7l4 7q7 14 19 36.5t24 42.5q31 52 60 79.5t52 27.5q24 0 39 -15t15 -39q0 -18 -8.5 -41.5t-28.5 -65.5l-16 -32q-4 -8 -6 -12.5t-5 -9.5l-25 -51q-15 -31 -21 -48t-6 -27q0 -16 12 -16q16 0 46 34q30 31 54 71.5t54 106.5l67 143h85l-153 -316
q34 25 60.5 56t42.5 63q3 6 4 7.5t4 1.5q5 0 5 -6q0 -2 -5 -11.5t-13 -22.5q-15 -26 -40 -52.5t-51 -45.5l-15 -10l-2 -2l-44 -90q-13 -27 -21 -42.5t-13 -25.5t-8.5 -16t-8.5 -15q-35 -54 -73.5 -92t-76.5 -53q-14 -9 -34.5 -16t-39 -5.5t-32 15.5t-13.5 47q0 118 224 228
l30 14q1 0 9 5l42 90l-1 -2q-9 -11 -21 -24.5t-24 -25.5q-18 -18 -30.5 -25t-25.5 -7q-5 0 -8.5 0.5t-7.5 1.5q2 -1 8 -3zM145 -21q-41 -23 -81.5 -57.5t-72.5 -71.5t-52 -71.5t-20 -57.5q0 -25 23 -25q35 0 82 65q28 37 58 90.5t54 107.5zM240 419q-12 8 -12 27
q0 17 8.5 38.5t22.5 36.5q19 19 34 19h4zM308 537q14 -6 14 -27q0 -17 -10 -39t-26 -37q-17 -18 -35 -18l57 121v0zM350 419q-13 9 -13 26t9 38.5t23 36.5q18 20 34 20h3zM417 537q15 -8 15 -27q0 -17 -10.5 -39t-25.5 -38q-17 -17 -35 -17l56 121v0z" />
    <glyph glyph-name="Ydieresis" unicode="&#x178;" 
d="M33 667h334v-667h-334v667zM360 7v653h-320v-653h320z" />
    <glyph glyph-name="fraction" unicode="&#x2044;" 
d="M33 667h334v-667h-334v667zM360 7v653h-320v-653h320z" />
    <glyph glyph-name="fraction" unicode="&#x2215;" 
d="M33 667h334v-667h-334v667zM360 7v653h-320v-653h320z" />
    <glyph glyph-name="currency" unicode="&#xa4;" horiz-adv-x="343" 
d="M269 133q-78 -134 -153 -134q-52 0 -52 64q0 14 2 27t6.5 28.5t13 35t20.5 46.5l85 182h45l-111 -238q-34 -74 -34 -102q0 -31 27 -31q64 0 142 130l-1 2q-5 6 -6 9t-3 8q8 11 11.5 18.5t10.5 21.5q9 17 20.5 41t16.5 38l23 55q7 17 10.5 27t6.5 21q16 -5 16 -26
q0 -31 -26 -89q-6 -14 -12.5 -27t-20.5 -40q-10 -18 -17.5 -32t-11.5 -21l-2 -3q6 -2 9 -2.5t7 -0.5q30 0 54 46q2 7 6 7q6 0 6 -6q0 -1 -9 -19q-21 -38 -56 -38q-13 0 -22 4zM68 11q-23 14 -33 32.5t-10 47.5q0 26 7 51.5t25 67.5l17 39q3 8 7.5 17.5t9.5 21.5l20 42l-6 -8
l-6 -7q-26 -32 -48.5 -66t-38.5 -66q-4 -6 -7 -6q-5 0 -5 5q0 3 7.5 18t18.5 33q14 23 32 48.5t33 43.5l15 18q10 12 18.5 23t10.5 16h45l-83 -179q-13 -28 -21.5 -47.5t-13.5 -35t-7 -29t-2 -28.5q0 -19 3.5 -30t11.5 -22zM246 171q-2 8 -3 13.5t-1 15.5q0 33 9.5 67
t28.5 65q15 23 30 36.5t26 13.5h3q-8 -24 -20.5 -55t-26 -61.5t-26 -56t-20.5 -38.5z" />
    <glyph glyph-name="guilsinglleft" unicode="&#x2039;" horiz-adv-x="382" 
d="M172 199l62 -132l-8 8l-62 63q-23 22 -38.5 36.5t-32.5 28.5q30 14 53.5 25t49.5 25q18 9 38.5 20.5t41.5 23.5t41 24t37 22l9 6z" />
    <glyph glyph-name="guilsinglright" unicode="&#x203a;" horiz-adv-x="382" 
d="M172 350q13 -14 28 -29.5t38 -38.5q11 -11 20 -19t20 -18q11 -11 16.5 -16t8 -7.5l4 -4t5.5 -4.5q-8 -4 -14 -6.5t-12.5 -6t-14.5 -7.5t-21 -11q-17 -10 -35 -19t-35 -19q-23 -13 -34 -19.5t-21 -12.5l-20 -12l-20 -12t-15 -9.5t-8 -5.5t-6 -3t-8 -4l183 150l-59 134v0z
" />
    <glyph glyph-name="fi" unicode="&#xfb01;" 
d="M33 667h334v-667h-334v667zM360 7v653h-320v-653h320z" />
    <glyph glyph-name="fl" unicode="&#xfb02;" 
d="M33 667h334v-667h-334v667zM360 7v653h-320v-653h320z" />
    <glyph glyph-name="daggerdbl" unicode="&#x2021;" horiz-adv-x="1125" 
d="M370 299q0 -26 -30.5 -41t-84.5 -15q-92 0 -147 23.5t-55 63.5q0 38 40.5 61.5t105.5 23.5q73 0 139 -15q37 -8 80 -18.5t94 -24.5q32 -9 64.5 -17.5t62 -16.5t54 -15t41.5 -11q46 -12 81 -20t61.5 -13.5t46.5 -7.5t38 -2q19 0 36.5 5.5t31 15.5t21.5 23t8 27q0 13 -8 17
q-6 4 -6 6q0 6 7 6t12.5 -9.5t5.5 -20.5q0 -17 -9 -32t-24 -26t-35 -17.5t-43 -6.5q-18 0 -39.5 2.5t-52.5 8.5t-74 16.5t-106 26.5q-105 27 -195 48q-116 27 -213 39q-16 2 -32.5 3t-33.5 1q-45 0 -80 -7.5t-51 -19.5q-15 -13 -15 -31q0 -16 13.5 -29.5t37.5 -23t57 -15
t72 -5.5q52 0 81.5 11.5t29.5 31.5q0 3 -0.5 4t-5.5 6q-2 4 -2 5q0 6 6 6t10.5 -6.5t4.5 -14.5z" />
    <glyph glyph-name="periodcentered" unicode="&#xb7;" horiz-adv-x="157" 
d="M91 218q-16 11 -16 35q0 21 11.5 49t29.5 48q22 25 44 25h4zM163 374q19 -10 19 -35q0 -23 -13.5 -51.5t-33.5 -48.5q-11 -11 -22.5 -17t-22.5 -6z" />
    <glyph glyph-name="periodcentered" unicode="&#x2219;" horiz-adv-x="157" 
d="M91 218q-16 11 -16 35q0 21 11.5 49t29.5 48q22 25 44 25h4zM163 374q19 -10 19 -35q0 -23 -13.5 -51.5t-33.5 -48.5q-11 -11 -22.5 -17t-22.5 -6z" />
    <glyph glyph-name="quotesinglbase" unicode="&#x201a;" horiz-adv-x="379" 
d="M182 67q-19 -32 -43 -50t-45 -18q-20 0 -32.5 12.5t-12.5 31.5q0 23 20 72q3 7 7.5 18t10 23.5t11 24t8.5 19.5l85 182h45l-112 -239q-3 -8 -8 -19t-10 -23t-9.5 -22.5t-6.5 -16.5q-8 -21 -8 -30q0 -18 18 -18q12 0 27 10.5t29 27.5q9 11 19 27t20.5 34t21 37t18.5 36
l20 42l74 154h45l-173 -363q-6 -13 -15 -31l-19 -38t-20 -39t-18 -33q-107 -193 -186 -193q-26 0 -41 18t-15 48q0 119 224 228l30 14q1 0 9 5l32 69v0zM96 203q-5 -12 -13.5 -31t-16.5 -36q-15 -35 -21.5 -57t-6.5 -39v-6.5t1 -7.5q-17 23 -17 60q0 21 6.5 45.5t20.5 59.5
q8 20 20.5 48.5t21.5 48.5l20 42q-3 -3 -4 -5t-2 -3l-7 -7q-26 -32 -48 -66t-38 -66l-1 -2q-3 -4 -6 -4q-5 0 -5 5q0 3 7.5 17.5t18.5 33.5q14 23 32 48t33 44l15 18q2 2 5 6t8 11q8 10 11 13.5t5 8.5h45zM223 -46q-13 -27 -20.5 -42.5t-12.5 -25.5t-9 -16t-9 -15
q-35 -54 -73.5 -92t-76.5 -53q12 12 22 23t19.5 23t18.5 25.5t20 30.5q27 42 52.5 90t57.5 116l173 364h45l-153 -316q32 23 59.5 55t43.5 64q3 6 4 7.5t4 1.5q5 0 5 -6q0 -1 -3 -8l-4 -7q-17 -33 -43.5 -63.5t-58.5 -53.5l-14 -10q-1 0 -3 -2zM142 -19q-41 -23 -81.5 -57.5
t-72.5 -71.5t-52 -71.5t-20 -57.5q0 -25 23 -25q35 0 82 65q28 37 58.5 90.5t53.5 107.5l9 20v0z" />
    <glyph glyph-name="quotedblbase" unicode="&#x201e;" horiz-adv-x="331" 
d="M136 102q0 -13 -5.5 -31t-14.5 -37.5t-22 -39t-28 -37.5q-18 -22 -36 -35t-31 -13q-7 0 -7 6q0 4 7 5q19 6 33.5 21.5t28.5 47.5q-3 1 -6 3l1 3q-13 10 -13 30t10.5 45t26.5 42q21 24 39 24q1 0 2 -0.5t3 -0.5l-1 -3q13 -10 13 -30zM251 102q0 -13 -5.5 -31t-14.5 -37.5
t-22 -39t-28 -37.5q-18 -22 -36 -35t-31 -13q-6 0 -6 6q0 4 6 5q19 5 33.5 21t28.5 48q-2 1 -3 1t-3 2l1 3q-13 10 -13 30t10.5 45t26.5 42q21 24 40 24l1 -1h3l-1 -2q13 -10 13 -31z" />
    <glyph glyph-name="perthousand" unicode="&#x2030;" horiz-adv-x="847" 
d="M518 542l-402 -542h-21l259 348q-21 -13 -41 -13h-4q-2 0 -6 1q-29 -48 -58.5 -73t-56.5 -25q-23 0 -38 18q-18 13 -26 30q-9 20 -9 50q0 37 16 72.5t42 63.5t59 45q32 16 65 18q6 1 11 1q21 0 33 -15t12 -41t-11.5 -62.5t-31.5 -70.5h4q19 0 37 12q11 7 19.5 15.5
t25.5 30.5l6 9l95 128h21zM757 293q-4 -1 -8 -3q7 2 13 2q27 0 45 -22t18 -54q0 -30 -13 -64t-38 -68q-29 -41 -64 -64.5t-65 -23.5q-24 0 -38 14q-20 15 -29 33q-9 20 -9 50q0 37 15.5 72.5t41.5 63.5t60 45t71 19zM470 293q-4 -1 -8 -3q7 2 14 2q26 0 44 -22t18 -54
q0 -30 -13 -64t-38 -68q-29 -41 -64 -64.5t-65 -23.5q-25 0 -40 16q-18 14 -26 31q-9 20 -9 50q0 37 15.5 72.5t41.5 63.5t59.5 45t70.5 19zM796 236q0 21 -9 33.5t-25 12.5q-17 0 -36 -18.5t-44 -60.5q-14 -24 -26.5 -48t-21.5 -46t-14 -39.5t-5 -28.5q0 -34 29 -34
t62.5 33.5t59.5 89.5q14 29 22 57t8 49zM509 236q0 21 -9 33.5t-24 12.5q-18 0 -37 -18.5t-44 -60.5q-14 -24 -26.5 -48t-21.5 -46t-14 -39.5t-5 -28.5q0 -34 29 -34t62.5 33.5t59.5 89.5q14 29 22 57t8 49zM341 468q1 5 1 8v6q0 43 -32 43q-23 0 -47 -26.5t-57 -87.5
q-20 -38 -32.5 -72t-12.5 -53q0 -17 7 -26.5t20 -9.5q47 0 104 90q-19 13 -19 40q0 30 19.5 55.5t48.5 32.5z" />
    <glyph glyph-name="Acircumflex" unicode="&#xc2;" 
d="M33 667h334v-667h-334v667zM360 7v653h-320v-653h320z" />
    <glyph glyph-name="Ecircumflex" unicode="&#xca;" 
d="M33 667h334v-667h-334v667zM360 7v653h-320v-653h320z" />
    <glyph glyph-name="Aacute" unicode="&#xc1;" 
d="M33 667h334v-667h-334v667zM360 7v653h-320v-653h320z" />
    <glyph glyph-name="Edieresis" unicode="&#xcb;" 
d="M33 667h334v-667h-334v667zM360 7v653h-320v-653h320z" />
    <glyph glyph-name="Egrave" unicode="&#xc8;" 
d="M33 667h334v-667h-334v667zM360 7v653h-320v-653h320z" />
    <glyph glyph-name="Iacute" unicode="&#xcd;" 
d="M33 667h334v-667h-334v667zM360 7v653h-320v-653h320z" />
    <glyph glyph-name="Icircumflex" unicode="&#xce;" 
d="M33 667h334v-667h-334v667zM360 7v653h-320v-653h320z" />
    <glyph glyph-name="Idieresis" unicode="&#xcf;" 
d="M33 667h334v-667h-334v667zM360 7v653h-320v-653h320z" />
    <glyph glyph-name="Igrave" unicode="&#xcc;" 
d="M33 667h334v-667h-334v667zM360 7v653h-320v-653h320z" />
    <glyph glyph-name="Oacute" unicode="&#xd3;" 
d="M33 667h334v-667h-334v667zM360 7v653h-320v-653h320z" />
    <glyph glyph-name="Ocircumflex" unicode="&#xd4;" 
d="M33 667h334v-667h-334v667zM360 7v653h-320v-653h320z" />
    <glyph glyph-name="apple" 
d="M33 667h334v-667h-334v667zM360 7v653h-320v-653h320z" />
    <glyph glyph-name="Ograve" unicode="&#xd2;" 
d="M33 667h334v-667h-334v667zM360 7v653h-320v-653h320z" />
    <glyph glyph-name="Uacute" unicode="&#xda;" 
d="M33 667h334v-667h-334v667zM360 7v653h-320v-653h320z" />
    <glyph glyph-name="Ucircumflex" unicode="&#xdb;" 
d="M33 667h334v-667h-334v667zM360 7v653h-320v-653h320z" />
    <glyph glyph-name="Ugrave" unicode="&#xd9;" 
d="M33 667h334v-667h-334v667zM360 7v653h-320v-653h320z" />
    <glyph glyph-name="dotlessi" unicode="&#x131;" horiz-adv-x="210" 
d="M97 203q-6 -11 -14.5 -30.5t-16.5 -36.5q-15 -35 -21.5 -57t-6.5 -39v-6.5t2 -7.5q-18 22 -18 60q0 20 6.5 45t20.5 60q9 22 20.5 48.5t21.5 48.5l20 42l-6 -8l-6 -7q-26 -32 -48.5 -66t-38.5 -66q-4 -6 -7 -6q-5 0 -5 5q0 3 7.5 18t18.5 33q14 23 32 48t33 44l15 18
q10 12 18.5 23t10.5 16h45zM124 143q-10 -22 -20 -45.5t-17 -40.5q-7 -20 -7 -30q0 -14 12 -14q21 0 53 50q5 8 10 17t12.5 23t18 34t25.5 50q3 7 7 7q5 0 5 -6q0 -3 -2 -6l-4.5 -9l-9.5 -19q-5 -11 -10 -19q-36 -75 -61.5 -105.5t-51.5 -30.5q-17 0 -26 10.5t-9 27.5
q0 16 4.5 33.5t15.5 44.5q3 7 8 18.5t10 23.5t10.5 23.5t8.5 19.5l85 182h45z" />
    <glyph glyph-name="circumflex" unicode="&#x2c6;" horiz-adv-x="366" 
d="M299 428l-84 44l-149 -44l167 99z" />
    <glyph glyph-name="tilde" unicode="&#x2dc;" horiz-adv-x="382" 
d="M312 522q3 0 3 -5t-3.5 -13t-8.5 -17q-31 -50 -69 -50q-13 0 -23.5 4t-32.5 17q-38 22 -54 22q-14 0 -26 -10.5t-22 -29.5q-4 -6 -6 -6q-4 0 -4 4t3.5 12.5t8.5 15.5q14 25 33 39t38 14q21 0 59 -22q23 -14 31.5 -17.5t17.5 -3.5q13 0 25.5 9.5t20.5 26.5q6 10 9 10z" />
    <glyph glyph-name="macron" unicode="&#xaf;" horiz-adv-x="581" 
d="M85 1l-6 -1q-1 -1 -4 -1q-24 0 -42 23t-18 55q0 27 21 68.5t50 83.5l7 10q19 27 33 45.5t22.5 30.5t12.5 20t4 14q0 7 -4.5 11.5t-10.5 4.5q-9 0 -22 -10t-28 -27t-31 -41t-31 -52l-22 -44q-5 -5 -6 -9.5t-5 -4.5q-5 0 -5 5q0 1 2 7l3 7q25 43 45.5 77.5t39 58.5t35.5 37
t35 13q5 0 11 -2v1q19 -2 30 -15.5t11 -35.5q0 -20 -13.5 -58t-50.5 -103l-25 -51q-15 -31 -21.5 -48t-6.5 -27q0 -16 13 -16t30.5 16t38 44.5t42.5 67.5t43 84l67 143h84l-153 -317l2 2q65 46 118.5 97.5t91.5 104.5t59 105.5t21 101.5q0 75 -44 118t-117 43
q-30 0 -57.5 -10t-48.5 -27t-33.5 -39t-12.5 -46q0 -18 8 -31.5t21 -17.5l8 -3q5 -2 5 -6q0 -7 -9 -7q-18 0 -32 19t-14 44q0 27 13.5 51.5t36.5 43t53 29.5t63 11q43 0 79.5 -16.5t63.5 -45t42 -68.5t15 -86q0 -76 -41 -140.5t-134 -132.5q-14 -10 -35.5 -25t-44.5 -30.5
t-45 -30t-37 -24.5l-4 -3l-45 -92q-6 -13 -11 -22.5t-9 -17.5l-12 -25q-36 -67 -80 -114.5t-89 -64.5q-31 -25 -62 -25q-26 0 -41 18t-15 48q0 118 224 228l30 14q1 0 9 5l42 90q-33 -46 -60.5 -65t-41.5 -19q-5 0 -8.5 0.5t-7.5 1.5q5 -4 11 -5zM142 -19
q-41 -23 -81.5 -57.5t-72.5 -71.5t-52 -71.5t-20 -57.5q0 -26 23 -26q18 0 42 22t50.5 59t52.5 84.5t49 98.5z" />
    <glyph glyph-name="macron" unicode="&#x2c9;" horiz-adv-x="581" 
d="M85 1l-6 -1q-1 -1 -4 -1q-24 0 -42 23t-18 55q0 27 21 68.5t50 83.5l7 10q19 27 33 45.5t22.5 30.5t12.5 20t4 14q0 7 -4.5 11.5t-10.5 4.5q-9 0 -22 -10t-28 -27t-31 -41t-31 -52l-22 -44q-5 -5 -6 -9.5t-5 -4.5q-5 0 -5 5q0 1 2 7l3 7q25 43 45.5 77.5t39 58.5t35.5 37
t35 13q5 0 11 -2v1q19 -2 30 -15.5t11 -35.5q0 -20 -13.5 -58t-50.5 -103l-25 -51q-15 -31 -21.5 -48t-6.5 -27q0 -16 13 -16t30.5 16t38 44.5t42.5 67.5t43 84l67 143h84l-153 -317l2 2q65 46 118.5 97.5t91.5 104.5t59 105.5t21 101.5q0 75 -44 118t-117 43
q-30 0 -57.5 -10t-48.5 -27t-33.5 -39t-12.5 -46q0 -18 8 -31.5t21 -17.5l8 -3q5 -2 5 -6q0 -7 -9 -7q-18 0 -32 19t-14 44q0 27 13.5 51.5t36.5 43t53 29.5t63 11q43 0 79.5 -16.5t63.5 -45t42 -68.5t15 -86q0 -76 -41 -140.5t-134 -132.5q-14 -10 -35.5 -25t-44.5 -30.5
t-45 -30t-37 -24.5l-4 -3l-45 -92q-6 -13 -11 -22.5t-9 -17.5l-12 -25q-36 -67 -80 -114.5t-89 -64.5q-31 -25 -62 -25q-26 0 -41 18t-15 48q0 118 224 228l30 14q1 0 9 5l42 90q-33 -46 -60.5 -65t-41.5 -19q-5 0 -8.5 0.5t-7.5 1.5q5 -4 11 -5zM142 -19
q-41 -23 -81.5 -57.5t-72.5 -71.5t-52 -71.5t-20 -57.5q0 -26 23 -26q18 0 42 22t50.5 59t52.5 84.5t49 98.5z" />
    <glyph glyph-name="breve" unicode="&#x2d8;" 
d="M33 667h334v-667h-334v667zM360 7v653h-320v-653h320z" />
    <glyph glyph-name="dotaccent" unicode="&#x2d9;" 
d="M33 667h334v-667h-334v667zM360 7v653h-320v-653h320z" />
    <glyph glyph-name="ring" unicode="&#x2da;" horiz-adv-x="245" 
d="M109 416q-19 0 -30.5 13t-11.5 35q0 30 20.5 53.5t47.5 23.5q20 0 32 -13.5t12 -34.5q0 -31 -21 -54t-49 -23zM148 499q0 17 -14 17q-9 0 -22 -16q-6 -10 -10 -21t-4 -19q0 -17 13 -17q9 0 18 10q8 9 13.5 22.5t5.5 23.5z" />
    <glyph glyph-name="cedilla" unicode="&#xb8;" 
d="M33 667h334v-667h-334v667zM360 7v653h-320v-653h320z" />
    <glyph glyph-name="hungarumlaut" unicode="&#x2dd;" 
d="M33 667h334v-667h-334v667zM360 7v653h-320v-653h320z" />
    <glyph glyph-name="ogonek" unicode="&#x2db;" 
d="M33 667h334v-667h-334v667zM360 7v653h-320v-653h320z" />
    <glyph glyph-name="caron" unicode="&#x2c7;" 
d="M33 667h334v-667h-334v667zM360 7v653h-320v-653h320z" />
    <glyph glyph-name="T" unicode="T" horiz-adv-x="561" 
d="M215 176q-10 2 -16 4q4 -4 6 -5q-42 12 -67 51.5t-25 96.5q0 32 8.5 68t26 70t44.5 63.5t63 50.5q42 23 88 31t88 8q32 0 65.5 -9.5t85.5 -32.5q24 -10 40.5 -16.5t29 -10.5t22 -5.5t19.5 -1.5q34 0 57.5 17t23.5 43q0 19 -19 31q-7 4 -7 8q0 6 5 6q6 0 15 -9
q18 -15 18 -37q0 -31 -28 -51.5t-73 -20.5q-17 0 -36.5 3.5t-38.5 9.5l-55 18q-26 8 -55.5 13.5t-52.5 5.5q-90 0 -171 -87q-45 -48 -69.5 -102.5t-24.5 -105.5q0 -34 14 -60.5t45 -26.5q22 0 45 17.5t41 44.5t29.5 58t11.5 58q0 33 -27 41q-7 1 -7 6q0 6 6 6q17 0 29 -16.5
t12 -41.5q0 -30 -14.5 -66t-38.5 -65.5t-53.5 -47t-59.5 -11.5zM480 323q-5 -76 -25 -133t-48 -95q-22 -30 -47.5 -49.5t-54.5 -30.5t-61 -15t-67 -4q-25 0 -47 7t-38.5 18.5t-26 27.5t-9.5 34q0 14 8 25t18 11q6 0 6 -5q0 -3 -5 -6q-17 -8 -17 -23t8.5 -29t23 -24.5
t33 -16.5t39.5 -6q38 0 66.5 17t58.5 59q14 19 32 47t34 58q11 20 22 42.5t25 54.5l13 29l14 31q16 36 27 60t19.5 40t16 26.5t15.5 21.5q25 30 56 30q10 0 16.5 -2.5t6.5 -6.5q0 -5 -4 -5q-3 0 -4 1q-4 1 -7.5 1.5t-8.5 0.5q-12 0 -24.5 -6.5t-20.5 -17.5q-18 -26 -28 -51
q-5 -15 -8 -33.5t-5 -49.5z" />
    <glyph glyph-name="twosuperior" unicode="&#xb2;" horiz-adv-x="980" 
d="M52 140q2 58 24.5 104.5t54 79t67.5 50t65 17.5q38 0 61.5 -22t23.5 -60q0 -27 -10.5 -53.5t-27 -47t-38.5 -33.5t-44 -13q-14 0 -23.5 6.5t-9.5 14.5q0 6 6 6q2 0 4 -3l4 -4q4 -9 20 -9q19 1 38 13.5t34 32t24.5 43.5t9.5 48q0 33 -21 51t-53 18q-25 0 -57 -17.5
t-60.5 -46.5t-48 -66t-19.5 -76q0 -22 9.5 -39.5t25.5 -30.5t37.5 -19.5t45.5 -5.5q56 2 100.5 29t82.5 70.5t70.5 97.5t65 110t66 109t72.5 93t86 62.5t106 18.5q13 -1 27.5 -6t14.5 -13q0 -5 -6 -5q-2 0 -5.5 1t-14.5 1q-23 0 -41.5 -9t-37 -38t-39 -82.5t-47.5 -143.5
q-18 -60 -31 -102t-21 -62q-17 -44 -43 -78.5t-57 -60t-65 -40.5t-67 -19q18 -3 28 -3q62 1 107 27.5t80 69t62.5 97t54 112.5t54 115t63 104t81.5 80t108 43q15 0 32.5 -2t32.5 -5t25.5 -7t10.5 -8q0 -5 -5 -5l-8 3q-9 4 -17 4q-14 0 -41 -31t-62 -85t-75.5 -128
t-80.5 -159q-37 -78 -52 -120t-15 -67q0 -13 4.5 -21.5t11.5 -8.5q10 0 21 9t25 28.5t31 51t39 75.5q5 9 7 11.5t4 2.5q5 0 5 -5t-1 -6l-7 -13l-16 -35q-10 -21 -23.5 -44t-28.5 -42.5t-30 -32t-28 -12.5h-2l6 -3q-39 2 -62 27.5t-23 73.5q0 57 35.5 136.5t96.5 170.5
q34 50 62 85.5t53.5 61t50.5 42t53 28.5q6 5 12 8.5t12 7.5q-12 2 -28 2.5t-27 0.5q-59 -11 -103 -44.5t-78.5 -81t-62.5 -105t-55 -115.5t-55.5 -112.5t-64 -96.5t-81 -67t-106.5 -25q-26 0 -46.5 2.5t-20.5 8.5q0 1 7.5 3.5t17.5 6.5t20.5 8.5t15.5 9.5q17 14 31 32
t29 43.5t32 61.5t40 87q47 105 80.5 173t61.5 110.5t55 66t62 38.5q-45 12 -87.5 -9.5t-85 -69.5t-85 -121t-85.5 -165q-26 -55 -53.5 -107.5t-60.5 -93t-74 -65t-96 -24.5q-34 0 -61 12t-46 32t-29 46.5t-10 55.5z" />
    <glyph glyph-name="plus" unicode="+" horiz-adv-x="385" 
d="M238 288q-3 -20 -5 -37q-1 -9 -1 -18q14 1 27 1q27 2 59 7q-9 -14 -16 -25t-16 -28l-4 -8h-52v-23q1 -27 5 -59q-14 9 -25 16.5t-27 17.5l-8 4v6l2 37q-7 0 -15 -1q-28 -1 -57 -3l-9 -1q11 19 17.5 31.5t14.5 31.5q20 -2 37 -3q6 -1 13 -1v22q0 29 -1 58l-1 9
q19 -12 31 -19t31 -15z" />
    <glyph glyph-name="afii10017" unicode="&#x410;" horiz-adv-x="800" 
d="M499 352q25 45 47.5 81.5t44.5 67.5q28 34 56 63t59.5 50t67.5 33t81 12q37 0 70 -10t51 -27q4 -4 4 -8q0 -5 -4 -5q-2 0 -4 2l-2 2q-9 9 -22 9q-11 0 -19.5 -7t-21.5 -24q-8 -12 -20.5 -33.5t-26.5 -45.5q-14 -27 -30.5 -60.5t-36.5 -76.5l-10 -23h47q9 0 9 -5
q0 -7 -9 -7h-53q-3 -8 -5 -11.5t-2 -4.5l-47 -102q-6 -13 -14.5 -33.5t-18 -42t-18 -42t-14.5 -34.5q-8 -19 -10.5 -29.5t-2.5 -18.5q0 -24 24 -24q22 0 39.5 18t40.5 66l27 56l20 40q4 8 5.5 12t6.5 4t5 -5l-2 -6l-3 -6q-1 -2 -6.5 -13.5t-14.5 -29.5q-2 -4 -8.5 -18
t-17.5 -38q-23 -51 -44.5 -72t-47.5 -21q-20 0 -35.5 11.5t-26 29t-15.5 38t-5 39.5q0 35 20 88t62 131l10 18h-135l-5 -14q-23 -56 -43.5 -98.5t-40.5 -74.5t-40.5 -55t-42.5 -40q-28 -20 -53.5 -32t-61.5 -20l4 2t4 3q-33 -16 -64 -16q-42 0 -68.5 23t-34.5 65
q-15 33 -15 74q0 104 64 184q20 26 45.5 48t54.5 38.5t60 26t62 9.5q35 0 57 -21t22 -56q0 -8 -1 -15t-3 -19h55zM441 340q-12 -41 -32.5 -76t-46 -60t-54.5 -39t-58 -14q-27 0 -45 14t-18 36q0 13 8 24t17 11q6 0 6 -5q0 -4 -3 -5l-2 -2q-14 -8 -14 -23q0 -17 14.5 -27.5
t38.5 -10.5q26 0 53 14t51 38t43 56t29 69h-69q-11 0 -11 6t11 6h72q3 14 4 20.5t1 14.5q0 29 -18.5 47t-47.5 18q-27 0 -58 -18t-69 -60q-30 -31 -54.5 -66.5t-42.5 -72.5t-27.5 -72t-9.5 -65q0 -40 25.5 -66t65.5 -26q30 0 58.5 15.5t61.5 52.5t73 98t91 151l10 17h-53z
M940 631q-23 10 -43 13.5t-43 3.5q-48 0 -94 -19.5t-78 -54.5q-16 -17 -29.5 -35t-28 -41t-31 -55t-38.5 -78l-6 -13h136l9 16q36 63 63.5 105.5t53 71.5t50 46.5t54.5 29.5q-2 -2 -4.5 -4t-4.5 -4q8 6 16 10t18 8z" />
    <glyph glyph-name="afii10018" unicode="&#x411;" horiz-adv-x="733" 
d="M265 -2l4 2q-35 -8 -64 -8q-30 0 -55 6t-44 17t-29.5 25.5t-10.5 31.5q0 12 5.5 22.5t11.5 10.5q5 0 5 -5q0 -4 -5.5 -11.5t-5.5 -15.5q0 -29 34 -48.5t84 -19.5q32 0 59 10t52 33.5t50 62t55 95.5l36 69q-4 -2 -8 -4.5t-8 -4.5q-13 -8 -18 -8.5t-4.5 2t6.5 7.5t14 10
q13 9 27 15q32 61 58 103.5t49.5 69t45.5 38.5t46 12q16 0 27 -9t11 -23q0 -8 -3 -14.5t-7 -6.5q-6 0 -6 5q1 0 2 8t2 8q0 9 -7.5 15t-18.5 6q-18 0 -33 -8.5t-29 -29.5t-27.5 -56.5t-28.5 -89.5q48 8 82.5 -6.5t57 -39.5t33 -54t10.5 -50q0 -32 -13 -62.5t-34.5 -54.5
t-50.5 -39t-60 -15q-42 0 -62.5 20.5t-20.5 53.5q0 18 6 36t15.5 32t21.5 22.5t25 8.5q8 0 8 -6q0 -5 -8 -5q-11 -1 -21.5 -9t-18.5 -20.5t-12.5 -28.5t-4.5 -32q0 -22 9 -35t25 -13q29 0 53.5 24t41 58.5t22 74.5t-3 72t-33.5 50t-70 9q-2 -7 -3.5 -13.5t-3.5 -13.5
q-9 -35 -16.5 -59.5t-14 -43t-13 -32.5t-13.5 -27q-33 -59 -87.5 -91.5t-117.5 -32.5zM258 169q-5 1 -9 2t-7 2q2 -2 3.5 -3t2.5 -2q-42 12 -67 51.5t-25 96.5q0 33 8.5 68.5t26 69.5t44.5 63.5t63 50.5q42 23 88 31t88 8q16 0 32 -2.5t33.5 -7.5t38.5 -13t47 -19
q24 -11 40.5 -17.5t29 -10t22 -5t19.5 -1.5q34 0 57.5 17t23.5 43q0 7 -4 13t-9 11l-9 9t-4 6q0 6 5 6t11 -4.5t11 -11.5t8 -15t3 -15q0 -31 -28 -51.5t-73 -20.5q-17 0 -36.5 3.5t-38.5 9.5l-55 18q-26 8 -55.5 13.5t-52.5 5.5q-49 0 -96.5 -28t-85 -71.5t-60.5 -95.5
t-23 -100q0 -34 14 -60.5t45 -26.5q22 0 45 17.5t41 44.5t29.5 58t11.5 58q0 12 -5.5 20t-11.5 13.5t-11.5 8.5t-5.5 5q0 6 6 6q17 0 29 -16.5t12 -41.5q0 -29 -13 -62.5t-34.5 -62t-49 -48t-55.5 -19.5q-4 0 -7 0.5t-7 1.5z" />
    <glyph glyph-name="afii10019" unicode="&#x412;" horiz-adv-x="788" 
d="M608 303q11 -4 24 -11q38 -14 59.5 -46t21.5 -76q0 -35 -13.5 -67t-36.5 -56t-53.5 -38t-64 -9t-50 23.5t-16.5 49.5q0 18 6 36t15.5 32t21.5 22.5t25 8.5q8 0 8 -6q0 -5 -8 -5q-11 -1 -21.5 -9t-18.5 -20.5t-12.5 -28.5t-4.5 -32q0 -22 9 -35t25 -13q19 0 41 20.5
t43 56.5q18 32 28 64.5t10 58.5q0 62 -55 78q-2 -1 -6 -1l-10 -3h-12q-17 0 -17 10t14 10q5 0 13 -3l11 -2l7 -2h4q14 0 32 11t35 30q26 30 41.5 70.5t15.5 82.5q0 31 -11.5 56.5t-32 44t-49.5 28.5t-64 10q-64 0 -133 -40.5t-129 -113.5q-48 -58 -74.5 -119.5t-26.5 -110.5
q0 -67 49 -67q59 0 120 94q26 38 39.5 74t13.5 62q0 25 -10.5 40t-29.5 15q-15 0 -28 -16q-4 -4 -7 -4q-5 0 -5 5q0 6 11 15q14 11 29 11q23 0 37.5 -18t14.5 -47q0 -38 -23.5 -88.5t-62.5 -95.5q-60 -69 -121 -69q-24 0 -43 14q-65 34 -65 125q0 32 10.5 66t30 67t47.5 64
t63 57q51 38 105.5 58t112.5 27q-1 0 -1 -0.5t-1 -0.5q37 8 69 8q41 0 76 -12t62 -33q43 -25 65.5 -59t22.5 -77q0 -116 -153 -165q-5 -2 -9.5 -3.5t-9.5 -2.5zM265 -2q2 1 3 1t3 1q-34 -8 -66 -8q-30 0 -55 6t-44 17t-29.5 25.5t-10.5 31.5q0 12 5.5 22.5t11.5 10.5
q5 0 5 -5q0 -2 -3 -6q-5 -6 -6.5 -10t-1.5 -11q0 -29 34 -48.5t84 -19.5q38 0 68.5 15t60.5 48q11 13 25 32.5t29 45.5q8 13 14.5 25t18.5 35l36 69q23 45 42 79.5t36.5 60.5t33.5 44t33 30q29 26 63 26q16 0 27 -9t11 -23q0 -8 -3 -14.5t-7 -6.5q-6 0 -6 6q0 -3 2 5
q2 10 2 14.5t-7.5 10.5t-18.5 6q-38 0 -69 -49q-7 -11 -15.5 -31.5t-16.5 -46.5q-5 -13 -11.5 -36.5t-15.5 -56.5q-9 -35 -16.5 -59.5t-14 -43t-13 -32.5t-13.5 -27q-34 -58 -88 -91t-117 -33z" />
    <glyph glyph-name="afii10020" unicode="&#x413;" horiz-adv-x="552" 
d="M215 176q-5 1 -9 2t-7 2q2 -2 3.5 -3t2.5 -2q-42 12 -67 51.5t-25 96.5q0 33 8.5 68.5t26 69.5t44.5 63.5t63 50.5q42 23 88 31t88 8q16 0 32 -2.5t33.5 -7.5t38.5 -13t47 -19q24 -11 40.5 -17.5t29 -10t22 -5t19.5 -1.5q34 0 57.5 17t23.5 43q0 7 -4 13t-9 11l-9 9t-4 6
q0 6 5 6t11 -4.5t11 -11.5t8 -15t3 -15q0 -31 -28 -51.5t-73 -20.5q-17 0 -36.5 3.5t-38.5 9.5l-55 18q-26 8 -55.5 13.5t-52.5 5.5q-49 0 -96.5 -28t-85 -71.5t-60.5 -95.5t-23 -100q0 -34 14 -60.5t45 -26.5q22 0 45 17.5t41 44.5t29.5 58t11.5 58q0 12 -5.5 20
t-11.5 13.5t-11.5 8.5t-5.5 5q0 6 6 6q17 0 29 -16.5t12 -41.5q0 -29 -13 -62.5t-34.5 -62t-49 -48t-55.5 -19.5q-4 0 -7 0.5t-7 1.5zM480 323q-6 -99 -33.5 -162t-69 -100t-93.5 -51t-107 -14q-25 0 -47 7t-38.5 18.5t-26 27.5t-9.5 34q0 14 8 25t18 11q6 0 6 -5
q0 -2 -3.5 -5t-7.5 -6.5t-7.5 -7.5t-3.5 -10q0 -15 8.5 -29t23 -24.5t33 -16.5t39.5 -6q32 0 60 14.5t56 47.5t57.5 86t64.5 130l27 60q28 64 47 99.5t33 53t26.5 21.5t27.5 4q10 0 16.5 -2.5t6.5 -6.5q0 -5 -4 -5q-5 0 -9 1.5t-11 1.5q-14 0 -25.5 -7.5t-20.5 -18.5
t-16 -24t-11 -25q-6 -15 -8.5 -33.5t-4.5 -49.5z" />
    <glyph glyph-name="afii10021" unicode="&#x414;" horiz-adv-x="827" 
d="M298 49q14 12 27 27t27.5 36t30.5 50t36 68q20 37 35 65t26 48q34 61 64.5 98t65.5 57q27 21 52 21q17 0 28 -8.5t11 -22.5q0 -6 -2 -10.5t-5 -4.5q-5 0 -5 5l1 1v4q1 1 1 6q0 9 -7.5 14.5t-18.5 5.5q-13 0 -27.5 -7.5t-25.5 -20.5q-20 -25 -36.5 -63t-35.5 -104
q-13 -44 -21 -71.5t-13.5 -45t-10 -28.5t-10.5 -23q-25 -51 -54.5 -79t-78.5 -46q14 -6 23.5 -8t23.5 -2q60 0 119.5 38.5t107.5 107.5q25 36 45.5 77.5t35.5 83.5t23 82t8 74q0 78 -41 122.5t-113 44.5q-35 0 -72 -11t-73.5 -31.5t-70.5 -49.5t-62 -65q-45 -57 -71 -117
t-26 -111q0 -31 12.5 -48t34.5 -17q25 0 54.5 22t58.5 64q30 42 46.5 82.5t16.5 72.5q0 49 -35 49q-9 0 -16.5 -4.5t-15.5 -16.5q-3 -5 -6 -5q-4 0 -4 5q0 3 5 11q15 20 37 20q21 0 33.5 -16t12.5 -42q0 -32 -13.5 -70t-39.5 -76q-35 -54 -73 -82.5t-73 -28.5h-10t-10 2
q-12 2 -27 9.5t-28.5 22t-23 36t-9.5 52.5q0 39 13.5 79t39 77.5t61 71.5t79.5 61q57 34 114.5 49.5t127.5 15.5h1h-1h1h2q92 0 147 -49q-2 1 -4 5q51 -32 77 -83t26 -114q0 -83 -35.5 -157.5t-94 -131t-134 -89.5t-155.5 -33q-34 0 -65 15q-20 -8 -44.5 -10t-43.5 -2
q-15 -3 -30.5 -5t-32.5 -2q-27 0 -51.5 5t-43 13.5t-29.5 20t-11 23.5q0 19 18.5 30.5t47.5 11.5q34 0 83.5 -14t98.5 -37zM290 41q-34 15 -66 23t-56 8q-27 0 -42.5 -8t-15.5 -22q0 -16 20.5 -25t55.5 -9q31 0 56 8t48 25z" />
    <glyph glyph-name="afii10022" unicode="&#x415;" horiz-adv-x="595" 
d="M289 -6q-63 11 -98 53t-35 105q0 38 16 73t43.5 63.5t65.5 48t82 25.5q-5 5 -8 13t-6 15q-8 -1 -14.5 -0.5t-14.5 0.5q-84 0 -131.5 29.5t-47.5 84.5q0 22 10 42t26.5 35t38.5 23.5t47 8.5q28 0 45 -12.5t17 -32.5q0 -17 -7 -17q-5 0 -5 5v4q1 3 1 9q0 12 -9 20t-24 8
q-18 0 -35.5 -9t-30.5 -24t-21 -34.5t-8 -40.5q0 -46 34.5 -67t103.5 -21h22q-2 5 -3 10.5t-1 10.5q-6 14 -7.5 23.5t-1.5 22.5q0 42 23 80.5t61 64.5q22 14 45.5 23t56.5 14q24 8 43 8q34 0 53.5 -21t19.5 -57t-20.5 -68t-56.5 -57t-85.5 -41t-107.5 -20q3 -13 9 -25l-9 9
q1 -7 5 -14q31 12 57 12q21 0 35.5 -7t14.5 -17q0 -9 -11 -14.5t-28 -5.5q-28 0 -66 20q-60 -48 -94 -115t-34 -136q0 -45 20.5 -72t54.5 -27q29 0 57 15.5t49 43.5q15 19 28 43.5t22.5 49.5t15.5 47.5t6 39.5q0 49 -44 49q-20 0 -39.5 -11t-34.5 -28.5t-24 -40.5t-9 -47
q0 -41 28 -41q7 0 8 1h3q1 1 2 1q4 0 4 -5q0 -8 -18 -8q-17 0 -27.5 14.5t-10.5 37.5q0 27 10 51.5t26.5 44t37.5 31t44 11.5q30 0 48 -24q30 -32 30 -83q0 -35 -18 -71t-47.5 -65t-67.5 -48t-78 -19q-17 0 -36 7q3 -3 5 -4zM366 405q45 4 79 18.5t68 43.5q38 33 62 73.5
t24 72.5q0 35 -35 35q-27 0 -58 -22t-59 -56.5t-50 -78t-31 -86.5z" />
    <glyph glyph-name="afii10024" unicode="&#x416;" horiz-adv-x="986" 
d="M745 343q-31 -42 -70.5 -99t-82.5 -109.5t-87 -90t-84 -41.5q-18 -2 -29 1.5t-10 5.5q0 5 4 4l4 1q0 -1 8 0q33 9 57.5 39t45.5 72.5t40.5 94t42.5 103.5q35 75 72.5 135t88.5 116q-51 -45 -92 -87t-74 -91q-50 -75 -94.5 -147t-95.5 -128.5t-114 -91t-149 -32.5
q-27 0 -52 7t-44 19t-30 27.5t-11 33.5q0 13 8 24.5t16 11.5q5 0 5 -5q0 -4 -9 -12.5t-9 -18.5q0 -15 10.5 -29t28 -24.5t40.5 -17t48 -6.5q39 0 74 18t66.5 49.5t60 74t54.5 91.5l52 100l5 11q42 86 60.5 143.5t18.5 102.5q0 23 -10.5 36.5t-28.5 13.5q-23 0 -52 -23.5
t-59 -60t-59.5 -82.5t-52.5 -91t-37 -85t-14 -64q0 -35 32 -35q16 0 34.5 10t36.5 28t34.5 42.5t29.5 53.5l5 11q16 32 16 67q0 40 -24 40q-3 0 -9.5 -5t-11.5 -5q-4 0 -4 4q0 6 9.5 10.5t15.5 4.5q16 0 25.5 -13t9.5 -33q0 -38 -16.5 -78.5t-42 -74t-55.5 -54.5t-57 -19
q-37 3 -45 38l-1 1q-8 18 -11 32.5t-3 34.5q0 48 19 100.5t53.5 100t81 85.5t102.5 56q33 14 48 14t31.5 -7.5t30.5 -22.5t23 -36.5t9 -48.5q0 -34 -6 -80t-26 -94q28 38 58.5 74t59.5 66.5t55.5 53t48.5 34.5q14 9 23.5 3.5t9.5 -8.5q0 -4 -3 -4l-2 -1q-2 1 -4 0.5t-6 -0.5
q-8 -1 -18.5 -10t-25 -34.5t-34.5 -72t-48 -123.5q-34 -88 -64 -145t-57.5 -93.5t-53.5 -58t-53 -38.5q59 24 111 79t101.5 124t99.5 144t104.5 138.5t116 107t135.5 50.5q32 -6 46 -24.5t14 -43.5q0 -27 -14 -57t-38 -55.5t-54.5 -42.5t-63.5 -17h-7q1 0 2 1q-43 1 -43 45
q0 17 12 31t26 14q5 0 5 -5q0 -2 -5 -5t-11.5 -7.5t-11.5 -11.5t-5 -17q0 -15 9 -24.5t23 -9.5q18 0 41.5 24.5t44.5 57t35.5 65t14.5 49.5q0 23 -22 23q-24 0 -56 -23.5t-67 -63t-70.5 -92t-67.5 -110.5l-6 -11l-6 -13q-48 -103 -69.5 -168t-21.5 -103q0 -23 9 -36t31 -14
q30 -1 59 23.5t51 60t35.5 73.5t13.5 63q0 20 -12.5 32.5t-31.5 12.5q-23 0 -39.5 -19.5t-16.5 -46.5q0 -15 4 -22l2 -4q2 -2 2 -4q0 -4 -5 -4t-9 11t-4 23q0 32 19 54t46 22q29 0 51.5 -25.5t25.5 -61.5q4 -49 -14.5 -87.5t-48 -64t-64.5 -37.5t-65 -8q-50 7 -70 40.5
t-18 82t21 106t46 112.5z" />
    <glyph glyph-name="afii10025" unicode="&#x417;" horiz-adv-x="617" 
d="M387 198q49 12 86 7.5t62 -18.5t37 -35t12 -40q0 -14 -5.5 -26.5t-14 -21.5t-18 -14.5t-17.5 -5.5q-6 0 -6 6q0 3 5 6l5 1q39 15 39 55q0 24 -18 43t-45.5 30.5t-60.5 12.5t-64 -12q-31 -10 -60.5 -30.5t-55 -48t-46.5 -58t-35.5 -60t-21.5 -55t-5 -41.5q2 -15 12.5 -23
t24.5 -6q27 4 58.5 26t61 55.5t54.5 76t38.5 88t13.5 90.5t-20 84q-16 -6 -28.5 -9t-25.5 -3q-21 0 -35.5 7t-14.5 17q0 9 11 14.5t28 5.5q28 0 66 -20q60 48 94 115t34 136q0 45 -20.5 72t-54.5 27q-29 0 -57 -15.5t-49 -43.5q-15 -19 -28 -43.5t-23 -49.5t-15.5 -48
t-5.5 -39q0 -49 44 -49q20 0 39.5 11t34.5 28.5t24 40.5t9 47q0 41 -28 41q-7 0 -8 -1h-3q-1 -1 -2 -1q-4 0 -4 5q0 8 18 8q17 0 27.5 -14.5t10.5 -37.5q0 -27 -10 -51.5t-26.5 -44t-38 -31t-43.5 -11.5q-30 0 -48 24q-30 31 -30 83q0 34 18 70.5t47.5 65.5t67.5 48t78 19
q18 0 36 -7q-2 2 -3 2.5t-2 1.5q63 -11 98 -53t35 -105q0 -38 -16 -73t-43.5 -63.5t-65.5 -48t-82 -25.5q12 -14 22.5 -30.5t19.5 -34.5t15 -35.5t8 -33.5q8 -56 -16.5 -111t-72.5 -97q-17 -14 -39.5 -29t-48 -27.5t-52.5 -22t-54 -12.5q-14 -2 -26 2t-22 13.5t-17 22.5
t-9 29q-6 39 11 81t52 80.5t86.5 69t116.5 47.5z" />
    <glyph glyph-name="afii10026" unicode="&#x418;" horiz-adv-x="698" 
d="M318 -4q-45 8 -68.5 38.5t-23.5 79.5q0 25 9 50.5t30 57t56 72t88 96.5q42 44 69 75t42.5 54t21.5 40t6 33q0 26 -16 42t-43 16q-23 0 -51 -14t-56.5 -37.5t-55 -54t-47.5 -64t-33.5 -67.5t-12.5 -64q0 -36 29 -36q13 0 30 9.5t31 25t24 34.5t10 39q0 12 -10 22.5
t-10 15.5t4 5q10 0 18.5 -14t8.5 -30q0 -20 -10 -41t-26 -38t-35 -28t-38 -11q-13 0 -21 4q1 -1 1.5 -2t2.5 -2q-26 17 -37.5 39.5t-11.5 54.5q0 45 21 89t57.5 80t86 61t106.5 33q-1 -1 5 0.5t19 1.5q23 0 38 -10.5t23.5 -27t12 -37.5t3.5 -42q-1 -45 -26 -100t-79 -128
l-66 -88q-28 -38 -46.5 -64.5t-29.5 -46.5t-15.5 -34.5t-4.5 -27.5q0 -43 37 -43q25 0 54 21t58.5 54.5t58 76.5t51.5 87l48 91q2 3 4 7.5l6 13.5t11.5 25t20 44t32 69t47.5 100h80l-234 -511q-14 -30 -19 -42.5t-4 -20.5q0 -9 6 -14.5t15 -5.5q14 0 29 13t31 36.5t32 54.5
t33 67q5 11 7 13.5t5 2.5q4 0 4 -5q0 -2 -1.5 -7.5t-6.5 -13.5q-24 -52 -42.5 -86t-34.5 -54.5t-31 -29t-31 -8.5q-15 0 -24.5 8t-15.5 20.5t-8 28.5t-2 32q0 23 7 50t25 80q-36 -59 -66.5 -99t-58 -65t-53 -36.5t-50.5 -12.5z" />
    <glyph glyph-name="afii10027" unicode="&#x419;" horiz-adv-x="698" 
d="M318 -4q-45 8 -68.5 38.5t-23.5 79.5q0 25 9 50.5t30 57t56 72t88 96.5q42 44 69 75t42.5 54t21.5 40t6 33q0 26 -16 42t-43 16q-35 0 -79 -30t-83.5 -75.5t-66.5 -98t-27 -97.5q0 -36 29 -36q13 0 30 9.5t31 25t24 34.5t10 39q0 12 -10 22.5t-10 15.5t4 5q10 0 18.5 -14
t8.5 -30q0 -20 -10 -41t-26 -38t-35 -28t-38 -11q-14 0 -21 4q1 -1 1.5 -2t2.5 -2q-26 17 -37.5 39.5t-11.5 54.5q0 45 21 89t57.5 80t86 61t106.5 33q-1 -1 5 0.5t19 1.5q23 0 38 -10.5t23.5 -27t12 -37.5t3.5 -42q-1 -45 -26 -100t-79 -128l-66 -88q-28 -38 -46.5 -65
t-29.5 -46.5t-15.5 -34t-4.5 -27.5q0 -43 37 -43q25 0 54 20.5t59 54.5t58 77t51 87l48 91q3 5 7 13t15 33t34 74.5t65 138.5h80l-234 -511q-14 -30 -19 -42.5t-4 -20.5q0 -9 6 -14.5t15 -5.5q14 0 29 13t31 36.5t32 54.5t33 67q5 11 7 13.5t5 2.5q4 0 4 -5q0 -2 -1.5 -7.5
t-6.5 -13.5q-24 -52 -42.5 -86t-34.5 -54.5t-31 -29t-31 -8.5q-15 0 -24.5 8t-15.5 20.5t-8 28.5t-2 32q0 23 7 50t25 80q-36 -59 -66.5 -99t-58 -65t-53 -36.5t-50.5 -12.5zM633 635q-20 9 -28.5 32.5t-5.5 48t16.5 44t36.5 21.5q20 2 23.5 -6.5t-3 -22.5t-17.5 -32
t-18.5 -34t-7.5 -28.5t16 -16.5q16 -6 34 1t35 21.5t32 33t27 35t19.5 28t9.5 12.5q8 2 3 -10.5t-17.5 -31t-32 -40.5t-41 -37.5t-43 -22t-38.5 4.5z" />
    <glyph glyph-name="afii10028" unicode="&#x41a;" horiz-adv-x="749" 
d="M678 570q-18 -10 -30 -23.5t-27 -42.5q-30 -58 -70 -179l-28 -85q-14 -44 -28 -77t-29.5 -58t-33 -43.5t-38.5 -32.5q-54 -36 -129 -36h-11.5t-14.5 2q-4 0 -8 -0.5t-8 -0.5q-23 0 -42.5 6t-34.5 17t-23.5 26t-8.5 32q0 19 15 31q3 3 5 3q5 0 5 -5q0 -4 -3 -7
q-11 -11 -11 -23q0 -29 26.5 -48.5t64.5 -19.5q48 0 98 43q16 15 32 33.5t31.5 43t32.5 56t36 73.5l49 103q34 73 68.5 120t77.5 77q12 10 27 21q-64 40 -130 40q-59 0 -116.5 -29.5t-103 -77.5t-73.5 -108.5t-28 -121.5q0 -42 16 -66t43 -24q21 0 42.5 16t39 41.5t29 56
t11.5 59.5q0 24 -7 37.5t-21 13.5q-13 0 -22 -16l-2 -4q-1 -4 -5 -4q-5 0 -5 5q0 11 10.5 20t22.5 9q19 0 29.5 -17t10.5 -47q0 -33 -16 -70.5t-43 -68.5q-41 -45 -83 -45q-11 0 -28 5q-48 14 -74 54t-25 100q1 66 34 121.5t84.5 96t116 63t128.5 22.5q90 0 174 -57
q11 2 17 2.5t12 0.5q18 0 30 -4.5t12 -12.5q0 -11 -20 -11q-11 0 -24 3.5t-26 11.5zM723 70q-41 -75 -97 -75q-31 0 -51 22.5t-20 56.5q0 20 7.5 43t23.5 55l27 53q11 20 16.5 36.5t5.5 24.5q0 13 -14 24q-18 -9 -34 -9q-25 0 -25 14q0 13 25 13q9 0 16 -1t17 -5
q22 13 36 29q21 22 41 54l3 6l34 74q28 61 55.5 95t66.5 52q20 10 38.5 15t41.5 7q16 4 34 4q34 0 55 -19t21 -50q0 -28 -18 -47.5t-44 -19.5q-18 0 -29 9t-11 23q0 8 3 16t7 8q6 0 6 -5q0 -1 -2 -3q-4 -7 -4 -16q0 -22 31 -22q21 0 35.5 17t14.5 41q0 25 -16.5 41t-42.5 16
q-47 0 -99 -48q-14 -12 -26.5 -25t-26 -28.5t-28.5 -35.5t-34 -46q-15 -20 -26.5 -35.5t-20.5 -27.5l-12 -16.5t-10 -12.5q-8 -10 -13.5 -16t-16.5 -16q1 2 1.5 2.5t1.5 2.5l-1 -1q-10 -10 -17.5 -16t-18.5 -13l6 -6q0 3 -1 5q16 -19 20 -37.5t1.5 -37.5t-9 -37.5t-11.5 -37
t-5.5 -36.5t9.5 -35q12 -31 47 -31q6 0 9.5 -1t6.5 -1t7.5 2t13.5 8z" />
    <glyph glyph-name="afii10029" unicode="&#x41b;" horiz-adv-x="757" 
d="M853 655q15 0 30.5 -2t29 -5.5t22 -8t8.5 -8.5q0 -5 -5 -5l-8 3q-8 4 -17 4q-14 0 -41 -31t-62 -85t-75.5 -128t-80.5 -159q-37 -78 -52 -120t-15 -67q0 -13 4.5 -21.5t11.5 -8.5q20 0 46 37.5t70 126.5q5 9 7 11.5t4 2.5q5 0 5 -5t-1 -6l-7 -13l-16 -35
q-10 -21 -23.5 -44t-28.5 -42.5t-30 -32t-28 -12.5h-2l6 -3q-39 2 -62 27.5t-23 73.5q0 57 35.5 136.5t96.5 170.5q34 50 62 85.5t53.5 61t50.5 42t53 28.5q6 5 12 8.5t12 7.5q-58 16 -114.5 -3t-109.5 -66.5t-102 -120.5t-92 -165q-26 -56 -52.5 -108t-59 -92.5t-73 -65
t-94.5 -24.5q-34 0 -61 12t-46 32t-29 46.5t-10 55.5q2 58 24.5 104.5t54 79t67.5 50t65 17.5q38 0 61.5 -22t23.5 -60q0 -27 -10.5 -53.5t-27 -47t-38.5 -33.5t-44 -13q-14 0 -23.5 6.5t-9.5 14.5q0 6 6 6q2 0 4 -3l4 -4q4 -9 20 -9q19 1 38 13.5t34 32t24.5 43.5t9.5 48
q0 33 -21 51t-53 18q-25 0 -57 -17.5t-60.5 -46.5t-48 -66t-19.5 -76q0 -22 9.5 -40t25.5 -30.5t37.5 -19t45.5 -5.5q47 -3 87 20.5t76 64t70.5 93t69.5 108t72.5 109t80.5 94.5t93 65.5t110 22.5z" />
    <glyph glyph-name="afii10030" unicode="&#x41c;" horiz-adv-x="980" 
d="M52 140q2 58 24.5 104.5t54 79t67.5 50t65 17.5q38 0 61.5 -22t23.5 -60q0 -27 -10.5 -53.5t-27 -47t-38.5 -33.5t-44 -13q-14 0 -23.5 6.5t-9.5 14.5q0 6 6 6q2 0 4 -3l4 -4q4 -9 20 -9q19 1 38 13.5t34 32t24.5 43.5t9.5 48q0 33 -21 51t-53 18q-25 0 -57 -17.5
t-60.5 -46.5t-48 -66t-19.5 -76q0 -22 9.5 -39.5t25.5 -30.5t37.5 -19.5t45.5 -5.5q56 2 100.5 29t82.5 70.5t70.5 97.5t65 110t66 109t72.5 93t86 62.5t106 18.5q13 -1 27.5 -6t14.5 -13q0 -5 -6 -5q-2 0 -5.5 1t-14.5 1q-23 0 -41.5 -9t-37 -38t-39 -82.5t-47.5 -143.5
q-18 -60 -31 -102t-21 -62q-17 -44 -43 -78.5t-57 -60t-65 -40.5t-67 -19q18 -3 28 -3q62 1 107 27.5t80 69t62.5 97t54 112.5t54 115t63 104t81.5 80t108 43q15 0 32.5 -2t32.5 -5t25.5 -7t10.5 -8q0 -5 -5 -5l-8 3q-9 4 -17 4q-14 0 -41 -31t-62 -85t-75.5 -128
t-80.5 -159q-37 -78 -52 -120t-15 -67q0 -13 4.5 -21.5t11.5 -8.5q10 0 21 9t25 28.5t31 51t39 75.5q5 9 7 11.5t4 2.5q5 0 5 -5t-1 -6l-7 -13l-16 -35q-10 -21 -23.5 -44t-28.5 -42.5t-30 -32t-28 -12.5h-2l6 -3q-39 2 -62 27.5t-23 73.5q0 57 35.5 136.5t96.5 170.5
q34 50 62 85.5t53.5 61t50.5 42t53 28.5q6 5 12 8.5t12 7.5q-12 2 -28 2.5t-27 0.5q-59 -11 -103 -44.5t-78.5 -81t-62.5 -105t-55 -115.5t-55.5 -112.5t-64 -96.5t-81 -67t-106.5 -25q-26 0 -46.5 2.5t-20.5 8.5q0 1 7.5 3.5t17.5 6.5t20.5 8.5t15.5 9.5q17 14 31 32
t29 43.5t32 61.5t40 87q47 105 80.5 173t61.5 110.5t55 66t62 38.5q-45 12 -87.5 -9.5t-85 -69.5t-85 -121t-85.5 -165q-26 -55 -53.5 -107.5t-60.5 -93t-74 -65t-96 -24.5q-34 0 -61 12t-46 32t-29 46.5t-10 55.5z" />
    <glyph glyph-name="afii10031" unicode="&#x41d;" horiz-adv-x="805" 
d="M288 176q-55 10 -86 51t-31 105q0 71 31 127t82 94.5t115.5 59t132.5 20.5q100 0 188 -67q8 1 12.5 1.5t9.5 0.5q20 0 34 -5.5t14 -13.5q0 -11 -17 -11q-25 0 -53 18q-24 -9 -42.5 -31t-34.5 -53.5t-31 -71.5t-32 -85l-5 -12l-4 -12q23 8 42.5 12.5t50.5 10.5
q41 73 76 121t75 87q15 15 35 33t42 33.5t44.5 26t42.5 10.5q22 0 37 -15.5t15 -39.5q0 -32 -24.5 -73t-63.5 -74q-37 -30 -81 -51.5t-104 -38.5l-6 -13q-30 -62 -51 -110.5t-39 -100.5q-11 -31 -14.5 -45.5t-3.5 -25.5q0 -31 22 -31q19 0 39.5 30t56.5 106l18 39
q4 8 5.5 10t3.5 2q6 0 6 -5q0 -2 -2 -6.5t-11 -22.5q-12 -27 -20.5 -45.5t-15.5 -32t-12 -23t-11 -18.5q-16 -25 -29 -35t-30 -10t-29.5 11.5t-20.5 29t-12 37t-4 35.5q0 73 60 193q-5 -1 -7 -1.5t-3 -0.5l-32 -8q-8 -2 -20.5 -5.5t-29.5 -8.5l-7 -19q-15 -39 -26 -65.5
t-20.5 -45t-18 -33t-18.5 -29.5q-18 -28 -43 -46t-54.5 -29t-62 -15.5t-65.5 -4.5q-22 0 -42 7t-35 18.5t-24 27t-9 32.5q0 24 16 34q3 3 4 3q5 0 5 -6q0 -3 -4 -6q-11 -11 -11 -25q0 -30 27 -50.5t64 -20.5q105 0 215 206q-48 -27 -78 -61.5t-36 -65.5q-2 -7 -3 -8.5
t-5 -1.5t-4 6q0 14 13.5 38.5t34.5 46.5q18 18 37.5 32.5t48.5 30.5l4 7q6 13 13 26q8 16 12.5 25.5t14.5 27.5q27 54 46.5 91t40 64t45 47.5t62.5 41.5l-3 -3q3 2 5.5 3.5t5.5 3.5q-68 48 -141 48q-51 0 -101 -21t-95 -59q-30 -26 -54 -57t-41 -64t-26.5 -67t-9.5 -65
q0 -38 16 -61.5t42 -23.5q24 0 51 21.5t49 59.5q29 50 29 94q0 22 -7 34.5t-20 12.5t-22 -16l-2 -3q-3 -4 -5 -4q-5 0 -5 5q0 10 11 19t22 9q17 0 28 -15.5t11 -41.5q0 -33 -13.5 -67t-34.5 -61t-47.5 -44t-52.5 -17q-9 0 -11 1zM762 345q29 10 51.5 23.5t51.5 38.5
q27 23 52.5 50t44.5 53t30.5 48t11.5 36q0 22 -25 22q-37 0 -92 -66t-116 -187z" />
    <glyph glyph-name="afii10032" unicode="&#x41e;" horiz-adv-x="695" 
d="M216 129q-30 3 -52 21.5t-36 45t-21 57.5t-7 58q0 44 17 87t46 82t68 72t82.5 57t89.5 37.5t90 13.5q49 0 86.5 -20.5t64 -54t40.5 -76.5t16 -87q1 -35 -12 -80.5t-37 -93.5t-58 -93.5t-75 -81.5t-88 -58t-97 -22q-26 0 -47.5 11.5t-37 30.5t-24 43.5t-8.5 50.5zM537 540
q17 2 33 -10.5t16 -24.5q0 -4 -5 -4q-3 0 -5 5q-14 23 -34 23q-32 0 -78 -50.5t-90 -137.5q-10 -19 -20.5 -42.5t-20 -49.5t-18 -52.5t-14.5 -50.5q70 19 119 80q23 28 38 61.5t15 56.5q0 17 -9 28q-3 4 -3.5 5t-0.5 3q0 4 4 4q7 0 13.5 -13.5t6.5 -27.5q0 -26 -15.5 -60.5
t-38.5 -63.5q-56 -68 -132 -86q-7 -23 -9.5 -41.5t-2.5 -34.5q0 -54 47 -54q90 0 191 191q26 49 47 96t35.5 89t22 77t7.5 61q0 63 -38.5 98t-107.5 35q-75 0 -147 -50.5t-132 -146.5q-19 -30 -35.5 -65t-26 -70t-9.5 -69.5t14 -62.5q5 -11 17 -26t45 -19q2 55 27.5 121.5
t68.5 125.5t100.5 101.5t124.5 50.5z" />
    <glyph glyph-name="afii10033" unicode="&#x41f;" horiz-adv-x="749" 
d="M749 550l6 -7q-2 5 -6 9q-7 8 -19 8q-23 0 -53.5 -27t-73.5 -84q-15 -20 -28 -40.5t-28 -47t-32.5 -62.5t-41.5 -87q-8 -15 -15.5 -32t-15.5 -32q-7 -15 -11 -23.5t-9 -19.5l-31 -63l-18 -39h-55l-1 -3h-59q7 13 12 21q2 5 8.5 16.5t23.5 43.5q5 11 10.5 21t10.5 20
l58 111q12 24 25.5 52t27 58t25.5 61t23 60q29 80 29 126q0 29 -13.5 45t-38.5 16q-63 0 -159 -127q-55 -74 -86 -144t-31 -121q0 -26 11.5 -43t29.5 -17q23 0 49.5 19t50.5 53q26 36 40.5 77t14.5 75q0 52 -35 52q-15 0 -26 -11l-3 -3q-2 -2 -4 -2q-5 0 -5 5q0 3 4 7
q13 15 34 15q22 0 34.5 -17t12.5 -48q0 -38 -18 -84t-47 -84q-25 -32 -52 -49t-53 -17q-12 0 -22 4q1 0 2 -1q-32 13 -50.5 42t-18.5 67q0 45 21 95.5t55.5 97t79.5 83.5q42 36 86 55q48 32 86 32q34 0 52 -30q5 -7 8 -15q15 -24 22 -47q11 -33 11 -77q0 -30 -6.5 -69.5
t-17.5 -69.5l9 16q55 95 105.5 148t85.5 53q22 0 34 -17t12 -46q7 -21 7 -50q0 -20 -3.5 -39.5t-12.5 -43.5t-24 -54t-37 -70q-20 -36 -34 -61.5t-24.5 -44.5t-17 -33t-11.5 -25q-8 -18 -11.5 -29.5t-3.5 -20.5q0 -22 19 -22q21 0 46 31q12 14 21 28.5t23 38.5
q11 20 20.5 37t14.5 28l3 8q4 8 8 8q5 0 5 -6q0 1 -2 -7l-5 -8l-25 -50q-32 -62 -59.5 -91t-54.5 -29h-2l4 -2q-82 6 -82 94q0 20 7 45.5t19 51.5q16 32 39.5 70.5t49.5 76.5l39 57q31 45 48 81q14 28 17 45q0 2 -1 4q-1 9 -6 24z" />
    <glyph glyph-name="afii10034" unicode="&#x420;" horiz-adv-x="688" 
d="M586 656q39 0 71 -13.5t55 -36.5q-5 5 -10.5 9.5t-11.5 9.5q42 -25 66 -60.5t24 -80.5q0 -34 -13.5 -64.5t-37.5 -53t-56.5 -36.5t-69.5 -15q-28 0 -46 13.5t-18 30.5q0 8 3 15.5t7 7.5q5 0 5 -4l-2 -6q-3 -8 -3 -12q0 -13 11 -22t27 -9q24 0 47.5 17.5t42 45t30.5 62.5
t12 70q0 57 -33.5 89t-96.5 32q-35 0 -73 -11.5t-75.5 -33.5t-73 -52.5t-66.5 -68.5q-22 -27 -41 -59t-32.5 -63.5t-21 -61.5t-7.5 -54q0 -23 11.5 -38t28.5 -15q24 0 51 22t48 58q28 46 28 90q0 26 -9.5 40.5t-25.5 14.5q-10 0 -21 -8l-3 -2q-3 -4 -6 -4q-5 0 -5 6q0 2 3 5
q14 14 32 14q21 0 34 -18.5t13 -48.5q0 -32 -13.5 -64.5t-35.5 -59t-48.5 -43.5t-52.5 -17q-5 0 -8.5 0.5t-7.5 1.5q3 -3 7 -5q-89 20 -89 123q0 76 39.5 144t103.5 118t146 77.5t167 23.5zM218 -2l4 2q-35 -8 -64 -8q-30 0 -55 6t-44 17t-29.5 25.5t-10.5 31.5
q0 12 5.5 22.5t11.5 10.5q5 0 5 -5q0 -2 -3 -6q-5 -6 -6.5 -10t-1.5 -11q0 -29 34 -48.5t84 -19.5q38 0 68.5 15t60.5 48q11 13 25 32.5t29 45.5q8 13 14.5 25t18.5 35l36 69q46 90 78.5 140t66.5 74q29 26 63 26q16 0 27 -9t11 -23q0 -8 -3 -14.5t-7 -6.5q-6 0 -6 5
q1 0 1 1q0 3 1 5q0 2 0.5 4t0.5 4t1 2q0 9 -7.5 15t-18.5 6q-38 0 -69 -49q-7 -11 -15.5 -31.5t-16.5 -46.5q-5 -13 -11.5 -36.5t-15.5 -56.5q-9 -35 -16.5 -59.5t-14 -43t-13 -32.5t-13.5 -27q-34 -58 -88 -91t-117 -33z" />
    <glyph glyph-name="afii10035" unicode="&#x421;" horiz-adv-x="684" 
d="M314 237q-28 6 -57 20h1q-38 18 -62 62.5t-24 101.5q0 43 15.5 81.5t42 67t61.5 45.5t75 17q1 0 8.5 -0.5t14 -1.5t8.5 -1.5t-8 -1.5q21 -5 34 -19t13 -34q0 -23 -16 -40t-37 -17q-15 0 -26.5 9.5t-11.5 21.5q0 5 5 5t5 -4l2 -4q5 -17 26 -17q17 0 29.5 13.5t12.5 33.5
t-13.5 31.5t-34.5 11.5q-25 0 -55 -19.5t-56 -54.5q-58 -73 -58 -157q0 -58 27.5 -94t79.5 -45q16 82 48.5 145t86.5 123q54 58 112.5 92.5t116.5 44.5q22 5 34 5q28 0 44.5 -17t16.5 -47v-5q0 -48 -17 -94t-47 -86t-71.5 -71.5t-90.5 -50.5q-66 -38 -139 -47
q-25 -76 -25 -152q0 -42 17 -64t47 -22q28 0 53.5 19t52.5 64q40 61 40 111q0 22 -11.5 35t-30.5 13q-20 0 -34.5 -16t-14.5 -37q0 -17 13 -27q4 -3 4 -5q0 -5 -4 -5q-8 0 -16 12t-8 26q0 27 19 45.5t47 18.5q35 0 58 -25t23 -64q0 -33 -16.5 -64.5t-43 -56t-60.5 -40
t-69 -15.5t-61 20t-43.5 51t-26 67t-8.5 69q0 9 0.5 17t2.5 22zM411 252q44 6 75.5 20t68.5 43q49 38 95 92t79 114q17 31 24 49t7 33q0 20 -13 32t-33 12q-36 0 -79.5 -34t-86.5 -89.5t-79.5 -126.5t-57.5 -145z" />
    <glyph glyph-name="afii10036" unicode="&#x422;" horiz-adv-x="1022" 
d="M533 0q7 12 13.5 23.5t13.5 25t15 31t19 41.5l55 116q39 83 64 141.5t44 108.5q11 29 14.5 43.5t3.5 24.5q0 27 -21 27q-18 0 -37 -17t-45 -59q-15 -22 -34.5 -56t-37.5 -68q-18 -35 -39 -76.5t-47 -95.5l-48 -100q-8 -17 -13.5 -29t-13.5 -28q-10 -20 -12.5 -25.5
t-5.5 -12.5l-7 -15h-111l11 21q11 22 24.5 47t28.5 54q20 37 33.5 62.5t24 46t19 39t18.5 40.5q24 52 44.5 102.5t30.5 82.5q11 32 15 53.5t4 41.5q0 29 -13.5 45t-37.5 16q-63 0 -160 -127q-54 -75 -85.5 -144t-31.5 -120q0 -26 11.5 -43.5t29.5 -17.5q23 0 49.5 19
t50.5 53q26 37 40.5 77.5t14.5 75.5q0 51 -34 51q-15 0 -26 -11l-3 -3q-6 -2 -5 -2q-5 0 -5 5q0 2 4 7q15 15 34 15q22 0 34.5 -17t12.5 -46q0 -39 -18 -85.5t-47 -84.5q-49 -66 -104 -66q-11 0 -20 3h1q-33 13 -51.5 42t-18.5 68q0 31 13.5 69.5t37 78.5t55.5 78t68.5 68
t75.5 48.5t77 19.5q25 1 42.5 -18t28 -46t15 -57t4.5 -51q0 -32 -6.5 -66.5t-18.5 -72.5q4 8 7.5 14t5.5 11l28 52q3 7 9.5 18.5t14.5 24.5t15.5 25l12.5 20q28 42 49 59.5t43 17.5q19 0 30 -22q18 -17 25.5 -39.5t7.5 -55.5q0 -27 -5 -54.5t-19 -73.5l11 19q89 152 152 152
q21 0 35 -15.5t21.5 -41t7.5 -60.5q0 -34 -14 -74t-47 -101l-39 -71q-11 -20 -21.5 -40.5t-15.5 -34.5q-11 -27 -11 -41q0 -25 18 -25q26 0 64 54q4 5 8 11t9 15l12.5 22.5t18.5 33.5q9 17 12.5 22.5t6.5 12.5q5 8 7 8q6 0 6 -5q0 -2 -1 -5t-6 -11l-27 -50
q-38 -67 -62.5 -93.5t-51.5 -26.5q-6 0 -9 1l9 -6q-25 2 -37.5 7t-23.5 17q-11 14 -18 33t-7 40q0 35 24 87.5t82 134.5l39 58q23 33 34.5 58t11.5 39v2q-2 7 -6 18q-5 7 -12 11.5t-16 4.5q-29 0 -67 -41.5t-80 -114.5q-14 -26 -35 -69.5t-56 -116.5q-25 -52 -40.5 -86.5
t-27.5 -64.5l-6 -15h-113z" />
    <glyph glyph-name="afii10037" unicode="&#x423;" horiz-adv-x="599" 
d="M277 2q-69 27 -69 112q0 26 8.5 54.5t24.5 54.5q9 15 19.5 30t24 32t31 37.5t40.5 46.5q25 28 44 49t32 36q35 40 51 70t16 56q0 30 -24 49t-62 19q-76 0 -146 -82q-22 -26 -40.5 -55.5t-32 -59t-21.5 -57t-8 -48.5q0 -26 12.5 -41t32.5 -15q19 0 37 10.5t32.5 28t23 40
t8.5 46.5q0 38 -25 38h-7q-2 0 -2.5 -0.5t-1.5 -0.5q-6 0 -6 6q0 7 16 7q17 0 27.5 -14.5t10.5 -37.5q0 -26 -10 -50t-25.5 -42.5t-36 -30t-41.5 -11.5q-31 0 -50.5 26t-19.5 68q0 48 25.5 98.5t65 92t88 68.5t93.5 27q31 0 53 -11t35.5 -29t19.5 -42t6 -50q0 -42 -22 -91
t-73 -119l-65 -90q-26 -35 -48 -69t-33 -56q-13 -25 -13 -52q0 -38 34 -38q41 0 97 65q14 16 27 34.5t26.5 42t29.5 54.5t36 72q19 41 33 69t25.5 48.5t22 37t22.5 33.5q20 28 44.5 52t49.5 41t49.5 27t44.5 10q18 0 29 -7.5t11 -21.5q0 -1 -0.5 -2.5t-0.5 -3.5h-2
q-13 -32 -58 -32q-7 0 -13.5 1t-21.5 4q-20 4 -31 4h-3q-45 -25 -78 -65q-9 -11 -18.5 -24t-18.5 -30q-17 -39 -27 -65t-20 -57t-20 -67t-19 -75l-35 -143q0 -1 -5 -19q60 -8 94 -35t34 -66q0 -19 -9 -35t-23 -24q-8 -4 -14.5 -6.5t-8.5 -2.5q-6 0 -6 6q0 3 5 6l5 1
q39 15 39 55q0 35 -31 58.5t-89 31.5q-17 -56 -55.5 -111t-86 -98.5t-97 -70t-89.5 -26.5q-29 0 -48 22t-19 54q0 45 29.5 90.5t83.5 81.5q42 29 86 44t104 21q6 10 11 20t16 34l18 40q0 2 2 6t5 12l-17 -21q-17 -21 -29.5 -34t-23.5 -22q-17 -12 -34 -19t-32 -7
q-18 0 -32 7q2 -2 3.5 -2.5t3.5 -2.5zM381 -20q-45 -7 -80.5 -27t-74.5 -58q-24 -24 -43.5 -49t-34 -48t-22.5 -43t-8 -34q0 -15 9 -24t23 -9q48 0 117 97q12 18 26.5 41t29.5 48.5t30 52.5t28 53z" />
    <glyph glyph-name="afii10038" unicode="&#x424;" horiz-adv-x="757" 
d="M99 83q9 -15 23 -24t29 -13.5t30.5 -5.5t30.5 0q47 -2 85.5 22.5t71.5 66t63.5 95.5t61.5 110.5t65 110.5t74 96.5t88.5 68t108.5 25.5l43 -15q-59 14 -114 -6.5t-104.5 -69.5t-93.5 -123.5t-81 -167.5q-22 -56 -45 -109t-52 -94t-68 -67t-93 -27q-48 -2 -83.5 20
t-53.5 57q-17 30 -21.5 72t4 79.5t31 63.5t61.5 25q15 -1 24.5 -11t8.5 -19q-1 -6 -5 -8q-3 1 -5.5 5t-5.5 8.5t-7 9t-9 5.5q-27 4 -46.5 -15t-28.5 -48.5t-6.5 -62t19.5 -54.5zM574 443q39 35 78.5 52t71.5 11t53.5 -39t25.5 -97q-1 -42 -21.5 -84.5t-53.5 -77t-74.5 -58
t-82.5 -27.5q-31 -2 -50.5 9t-29.5 30t-13 42.5t-2 45.5l25 51q-13 -34 -15 -66q1 -50 20 -75t48 -20q15 4 36 20t44 41.5t46 60t43 74.5q28 63 27 102.5t-24 52.5t-64.5 -1.5t-93.5 -58.5zM433 215q-40 -35 -79.5 -52t-71.5 -11t-53.5 38.5t-24.5 97.5q0 42 20.5 84.5
t53 77.5t74 58.5t82.5 27.5q31 2 49.5 -12t28.5 -36t13 -48t1 -48l-24 -51q7 17 10.5 34.5t5.5 32.5q-1 25 -5 46t-12 36t-20 22.5t-30 5.5q-15 -4 -35.5 -20t-43.5 -41.5t-46 -60t-43 -74.5q-28 -63 -27 -102.5t24.5 -52.5t64.5 1.5t93 58.5zM816 625q8 3 11 6t8 3
q9 3 18 -2.5t10 -14.5q5 -19 -9 -34t-42 -18q-11 -3 -26.5 -2.5t-46.5 2.5l1 -1q-7 2 -11.5 2h-9.5q-2 1 -4 0.5t-3 1.5q-56 4 -109.5 7t-113.5 2q-76 2 -131 -1t-99 -8q-56 -9 -84.5 -28.5t-21.5 -49.5q2 -9 9 -13l2 -2q1 -1 1 -2q1 -7 -2 -7q-3 -1 -5 3q-13 11 -16 22
q-6 25 10 54q10 46 41.5 79t70.5 38q38 4 67 1q34 -6 73.5 -15t84.5 -23q27 -7 49 -12.5t42 -11t39 -9t37 -7.5l53 -6q73 -9 100 -4q33 4 27 28q-3 6 -7 10.5t-13 11.5z" />
    <glyph glyph-name="afii10039" unicode="&#x425;" horiz-adv-x="763" 
d="M206 302q0 48 19 100.5t53.5 100t81 85.5t102.5 56q30 14 48 14q31 0 56.5 -30t25.5 -85q0 -42 -11 -89t-31 -96t-49 -98.5t-65 -95.5q-59 -77 -132 -121.5t-145 -44.5q-27 0 -52 7t-44 19t-30 27.5t-11 33.5q0 13 8 24.5t16 11.5q5 0 5 -5q0 -4 -9 -12.5t-9 -18.5
q0 -15 10.5 -29t28 -24.5t40.5 -17t48 -6.5q39 0 74 18t67 49.5t60 74t54 91.5l52 100h-50q-29 -67 -69 -106t-82 -39q-37 0 -46 39q-3 5 -8.5 22.5t-5.5 44.5zM472 352q42 86 60.5 143.5t18.5 102.5q0 23 -10.5 36.5t-28.5 13.5q-23 0 -52 -23.5t-59 -60t-59.5 -82.5
t-52.5 -91t-37 -85t-14 -64q0 -35 32 -35q16 0 34.5 10t36.5 28t34.5 42.5t29.5 53.5l-62 -1l-4 1q-5 0 -5 5q0 6 7 6h69q16 35 16 67q0 40 -24 40q-3 0 -9.5 -5t-11.5 -5q-4 0 -4 4q0 6 9.5 10.5t15.5 4.5q16 0 25.5 -13t9.5 -33q0 -37 -16 -70h51zM887 651q32 -6 46 -24.5
t14 -43.5q0 -27 -14 -57t-38 -55.5t-54.5 -42.5t-63.5 -17h-7q1 0 2 1q-43 2 -43 45q0 17 12 31t26 14q5 0 5 -5q0 -2 -5 -5t-11.5 -7.5t-11.5 -11.5t-5 -17q0 -15 9 -24.5t23 -9.5q18 0 41.5 24.5t44.5 57t35.5 65t14.5 49.5q0 23 -22 23q-24 0 -56 -23.5t-67 -63
t-70.5 -92t-67.5 -110.5h111q11 0 11 -5q0 -6 -9 -6h-119l-6 -13q-48 -103 -69.5 -168t-21.5 -103q0 -47 43 -47q27 0 54.5 24.5t50 58.5t37 71t14.5 63q0 20 -12.5 32.5t-31.5 12.5q-23 0 -39.5 -19.5t-16.5 -46.5q0 -14 4 -22l2 -4q2 -2 2 -4q0 -4 -5 -4t-9 11t-4 23
q0 32 19 54t46 22q29 0 46.5 -22.5t17.5 -58.5t-15 -72t-39 -65t-54 -47t-60 -18q-19 0 -36.5 8t-30.5 23t-20.5 36t-7.5 47q0 29 9.5 67.5t27 82t41.5 88.5t53 88q30 43 67.5 81.5t76.5 67.5t74.5 46t61.5 17z" />
    <glyph glyph-name="afii10040" unicode="&#x426;" horiz-adv-x="698" 
d="M677 115q-4 -9 -8 -17t-8 -15q-17 -33 -33 -54q-29 -33 -59 -35q-23 -1 -39 20.5t-16 64.5q0 23 7 50t25 80q-36 -59 -66.5 -99t-58 -65t-53 -36.5t-50.5 -12.5q-45 8 -68.5 38.5t-23.5 79.5q0 25 9 50.5t30 57t56 72t88 96.5q42 44 69 75t42.5 54t21.5 40t6 33
q0 26 -16 42t-43 16q-35 0 -79 -30t-83.5 -75.5t-66.5 -98t-27 -97.5q0 -36 29 -36q13 0 30 9.5t31 25t24 34.5t10 39q0 12 -10 22.5t-10 15.5t4 5q10 0 18.5 -14t8.5 -30q0 -20 -10 -41t-26 -38t-35 -28t-38 -11q-11 0 -21 2l2 -1q-26 17 -36 38q-11 25 -11 55q0 45 21 89
t57.5 80t86 61t106.5 33l-1 -1q12 3 25 3q23 0 38 -10.5t23.5 -27t12 -37.5t3.5 -42q-1 -45 -26 -100t-79 -128l-66 -88q-28 -38 -46.5 -65t-29.5 -46.5t-15.5 -34t-4.5 -27.5q0 -43 37 -43q25 0 54 20.5t58.5 54.5t58 77t51.5 87l48 91q3 5 7 13t15 33t34 74.5t65 138.5h80
l-234 -511q-14 -30 -19 -42.5t-4 -20.5q0 -9 6 -14.5t15 -5.5q14 0 29 13t31 36.5t32 54.5t33 67q5 9 9 13q1 1 2.5 1.5t2.5 1.5q9 7 6 -4v-1q0 -2 -1.5 -7.5t-8.5 -13.5q-4 -7 -6.5 -12t-5.5 -10q-7 -19 -8.5 -47t-4 -59.5t-8 -64t-22.5 -65t-48 -57.5t-84 -36
q-25 -6 -50 -1t-44 15q-10 3 -22.5 13.5t-21 23t-9 26t15.5 24.5q2 2 5 2t2 -2q-12 -33 4 -55.5t48 -28.5q40 -7 77.5 22t70 73.5t52.5 94t30 92.5zM242 302q-1 0 -2 1q1 0 2 -1z" />
    <glyph glyph-name="afii10041" unicode="&#x427;" horiz-adv-x="715" 
d="M620 329q-32 -52 -59 -86.5t-51.5 -55.5t-47 -30t-44.5 -10q-41 8 -61.5 34.5t-20.5 69.5q0 28 13 57t45 70q41 45 70 78t48 58t27.5 43.5t8.5 34.5q0 26 -16 42t-43 16q-35 0 -79 -30t-83.5 -75.5t-66.5 -98t-27 -97.5q0 -36 29 -36q13 0 30 9.5t31 25t24 34.5t10 39
q0 12 -10 22.5t-10 15.5t4 5q10 0 18.5 -14t8.5 -30q0 -20 -10 -41t-26 -38t-35 -28t-38 -11q-14 0 -21 4q1 -1 1.5 -2t2.5 -2q-26 17 -37.5 39.5t-11.5 54.5q0 45 21 89t57.5 80t86 61t106.5 33l-1 -1q12 3 25 3q23 0 38 -10.5t23.5 -27t12 -37.5t3.5 -42q-1 -45 -31 -106
t-84 -134q-29 -41 -39.5 -63.5t-10.5 -41.5q0 -38 33 -38q22 0 48 18.5t52 48t51.5 67.5t45.5 77q3 5 9 14t18.5 32t33.5 66t55 117h80l-234 -511q-14 -30 -19 -42.5t-4 -20.5q0 -9 6 -14.5t15 -5.5q14 0 29 13t31 36.5t32 54.5t33 67q5 11 7 13.5t5 2.5q4 0 4 -5
q0 -2 -1.5 -7.5t-6.5 -13.5q-24 -52 -42.5 -86t-34.5 -54.5t-31 -29t-31 -8.5q-15 0 -24.5 8t-15.5 20.5t-8 28.5t-2 32q0 12 1.5 29t10 45.5t25.5 71t49 104.5z" />
    <glyph glyph-name="afii10042" unicode="&#x428;" horiz-adv-x="900" 
d="M565 -5q-15 0 -25 7t-15.5 19t-8 27t-2.5 31q0 23 7 50t25 80q-36 -59 -66.5 -99t-58 -65t-53 -36.5t-50.5 -12.5q-45 8 -68.5 38.5t-23.5 79.5q0 25 9 50.5t30 57t56 72t88 96.5q42 44 69 75t42.5 54t21.5 40t6 33q0 26 -16 42t-43 16q-35 0 -79 -30t-83.5 -75.5
t-66.5 -98t-27 -97.5q0 -36 29 -36q13 0 30 9.5t31 25t24 34.5t10 39q0 12 -10 22.5t-10 15.5t4 5q10 0 18.5 -14t8.5 -30q0 -20 -10 -41t-26 -38t-35 -28t-38 -11q-14 0 -21 4q1 -1 1.5 -2t2.5 -2q-26 17 -37.5 39.5t-11.5 54.5q0 45 21 89t57.5 80t86 61t106.5 33l-1 -1
q12 3 25 3q23 0 38 -10.5t23.5 -27t12 -37.5t3.5 -42q-1 -45 -26 -100t-79 -128l-66 -88q-28 -38 -46.5 -65t-29.5 -46.5t-15.5 -34t-4.5 -27.5q0 -43 37 -43q50 0 119 86t151 244q3 5 7 13t15 33t34 74.5t65 138.5h80l-234 -511q-14 -30 -19 -42.5t-4 -20.5q0 -9 6 -14.5
t15 -5.5q27 7 58.5 37.5t63.5 76t63.5 102.5t59.5 117q3 5 7 13t15 33t34 74.5t65 138.5h80l-234 -511q-14 -30 -19 -42.5t-4 -20.5q0 -9 6 -14.5t15 -5.5q14 0 29 13t31 36.5t32 54.5t33 67q5 11 7 13.5t5 2.5q4 0 4 -5q0 -2 -1.5 -7.5t-6.5 -13.5q-24 -52 -42.5 -86
t-34.5 -54.5t-31 -29t-31 -8.5q-15 0 -24.5 8t-15.5 20.5t-8 28.5t-2 32q0 12 2 23t6.5 24.5t11 32t15.5 45.5q-16 -28 -35 -59.5t-42.5 -60.5t-52 -52t-64.5 -35z" />
    <glyph glyph-name="afii10043" unicode="&#x429;" horiz-adv-x="929" 
d="M838 29q-29 -33 -59 -35q-30 0 -42.5 25.5t-12.5 57.5q0 12 2 23t6.5 24.5t11 32t15.5 45.5q-16 -29 -38 -63t-47 -65t-53 -53t-56 -26q-15 0 -25 7t-15.5 19t-8 27t-2.5 31q0 23 7 50t25 80q-36 -59 -66.5 -99t-58 -65t-53 -36.5t-50.5 -12.5q-45 8 -68.5 38.5
t-23.5 79.5q0 25 9 50.5t30 57t56 72t88 96.5q42 44 69 75t42.5 54t21.5 40t6 33q0 26 -16 42t-43 16q-35 0 -79 -30t-83.5 -75.5t-66.5 -98t-27 -97.5q0 -36 29 -36q13 0 30 9.5t31 25t24 34.5t10 39q0 12 -10 22.5t-10 15.5t4 5q10 0 18.5 -14t8.5 -30q0 -20 -10 -41
t-26 -38t-35 -28t-38 -11q-14 0 -21 4q1 -1 1.5 -2t2.5 -2q-26 17 -37.5 39.5t-11.5 54.5q0 45 21 89t57.5 80t86 61t106.5 33l-1 -1q12 3 25 3q23 0 38 -10.5t23.5 -27t12 -37.5t3.5 -42q-1 -45 -26 -100t-79 -128l-66 -88q-28 -38 -46.5 -65t-29.5 -46.5t-15.5 -34
t-4.5 -27.5q0 -43 37 -43q51 0 119.5 85.5t150.5 244.5q3 5 7 13t15 33t34 74.5t65 138.5h80l-234 -511q-14 -30 -19 -42.5t-4 -20.5q0 -9 6 -14.5t15 -5.5q27 7 58.5 37.5t63.5 76t63.5 102.5t59.5 117q3 5 7 13t15 33t34 74.5t65 138.5h80l-234 -511q-14 -30 -19 -42.5
t-4 -20.5q0 -9 6 -14.5t15 -5.5q14 1 28.5 15t30.5 37t32 54.5t33 67.5q5 9 9 13q1 1 2.5 1.5t2.5 1.5q9 7 6 -4v-1q0 -2 -1.5 -7.5t-8.5 -13.5q-4 -7 -6.5 -12t-5.5 -10q-7 -19 -8.5 -47t-4 -59.5t-8 -65.5t-23 -65t-48.5 -54.5t-84 -34.5q-25 -6 -49.5 -1t-43.5 14
q-11 3 -23.5 12.5t-21 22t-9 25.5t15.5 23q2 2 5 2t2 -2q-11 -32 4.5 -53.5t48.5 -26.5q40 -6 77.5 21t68 72t52.5 94.5t32 92.5l1 -1q-4 -9 -8 -17t-8 -15q-17 -33 -33 -54z" />
    <glyph glyph-name="afii10044" unicode="&#x42a;" horiz-adv-x="841" 
d="M690 542q-23 -17 -47 -51t-46 -77.5t-39 -93.5t-26.5 -98.5t-9 -92.5t14.5 -75q11 -24 26.5 -35t33 -12t35.5 6.5t34 20.5q27 22 52 60.5t44 81t28.5 84t4.5 71.5q-4 22 -18.5 36t-30.5 14q-23 0 -45 -15.5t-41 -44.5q-20 -31 -27 -64.5t-2 -62.5q8 -44 40 -44q16 0 24 9
l2 3q3 3 4 3q3 0 5 -6l-2 -6q-6 -5 -13 -8.5t-18 -3.5q-20 0 -35 14.5t-19 40.5q-5 32 4.5 70.5t32.5 70.5q19 26 41.5 41t48.5 15q19 0 39 -8.5t36.5 -22.5t28 -31.5t14.5 -34.5q7 -36 -5.5 -77t-38.5 -79t-62.5 -71t-77.5 -53q-24 -12 -52 -17.5t-55.5 -3t-52.5 12.5
t-44 29q-31 29 -40 73t-1 92t31.5 96t56 92t71.5 83.5t78 70.5q-29 13 -66 21.5t-66 10.5q-138 8 -230 -109q-29 -38 -46.5 -76t-19.5 -70q-3 -34 12 -53.5t44 -21.5q34 -2 71 27.5t67 83.5l5 12q5 14 5.5 23t2.5 17q1 19 -7.5 31.5t-23.5 13.5q-5 1 -10.5 -1.5t-10 -5.5
t-7.5 -5.5t-4 -2.5q-6 0 -4 3q0 8 13 16.5t25 7.5q20 -2 31 -18t9 -41q-1 -10 -2 -18.5t-8 -28.5q-38 -72 -78.5 -101t-87.5 -25q-32 1 -52.5 13t-32.5 31t-16.5 43.5t-2.5 52.5q3 52 31.5 99.5t73.5 83.5t100.5 56.5t111.5 17.5q22 -1 41 -4.5t39.5 -11.5t45 -22t58.5 -36
q0 -1 2 -1q42 38 76 53t65 14q22 -2 34.5 -12.5t11.5 -24.5q-2 -26 -35.5 -43t-78.5 -15q-17 2 -31.5 5.5t-37.5 10.5zM698 550q15 -3 26 -5t24 -3q71 -4 73 31q1 10 -7.5 16t-23.5 7q-23 1 -47 -11t-45 -35z" />
    <glyph glyph-name="afii10045" unicode="&#x42b;" horiz-adv-x="833" 
d="M523 554q-25 -13 -53.5 -47t-56.5 -80t-52 -100t-39 -106.5t-18.5 -99t9.5 -77.5q8 -21 20.5 -30.5t27 -10.5t31 6t33.5 19q34 24 62.5 64.5t48.5 83.5t30 83.5t9 64.5q-2 23 -12 38t-25 16q-23 1 -46.5 -13.5t-44.5 -42.5q-21 -30 -31.5 -64.5t-8.5 -64.5q3 -44 34 -45
q16 0 24 8l2 2q2 2 4 2q4 -1 6 -5q0 -2 -3 -6q-7 -5 -14.5 -8.5t-16.5 -2.5q-20 2 -33 17t-14 41q-2 33 11.5 71.5t37.5 70.5q21 25 45 39t48 12q18 -1 35 -10.5t30.5 -24.5t22 -32.5t9.5 -35.5q3 -48 -20 -101t-63.5 -97t-94.5 -71.5t-112 -24.5q-42 9 -68.5 30t-39.5 50
t-14 63.5t8 70.5q14 53 43.5 106.5t68 101t83.5 86t90 61.5q-45 33 -93 36q-44 3 -89 -16.5t-82.5 -53.5t-63.5 -77.5t-30 -88.5q-3 -32 6.5 -50t29.5 -19q16 -1 33.5 10t33 29t26 40.5t12.5 43.5q5 38 -17 39q-6 0 -10 -2.5t-9 -7.5l-1 -3q-2 -3 -5 -3q-2 0 -2 4
q1 8 9 13.5t18 5.5q30 -2 25 -48q-2 -26 -15.5 -54.5t-36.5 -49.5q-17 -17 -35 -24t-34 -6q-22 1 -40.5 12.5t-31 29t-19 39.5t-3.5 46q6 49 34.5 89.5t70.5 69t92.5 43.5t98.5 12q34 -2 70.5 -17t65.5 -39q7 3 18.5 8t22 8t19 3t11.5 -7q3 -8 -5.5 -13.5t-21.5 -8t-26 -3
t-19 2.5zM654 281q20 8 34.5 12.5t41.5 9.5q37 72 68.5 119.5t66.5 85.5q13 15 31.5 33t38 33t39.5 25.5t38 10.5q20 0 33.5 -15.5t13.5 -38.5q0 -32 -22 -72.5t-57 -72.5q-33 -30 -72.5 -51t-93.5 -38l-5 -13q-26 -61 -44.5 -109t-35.5 -99q-10 -30 -13 -44.5t-3 -25.5
q0 -30 20 -30q16 0 35 29.5t51 104.5l16 38q3 8 4.5 10t3.5 2q5 0 5 -5q0 -2 -1.5 -6.5t-9.5 -21.5q-11 -26 -19 -44.5t-14 -32t-10.5 -23t-9.5 -18.5q-14 -24 -26 -34t-27 -10t-26 11.5t-18.5 28.5t-11 36t-3.5 35q0 71 53 191q-5 -1 -6.5 -1.5t-2.5 -0.5l-28 -8
q-8 -2 -13 -4.5t-21 -7.5v11zM818 334q26 10 46 23.5t46 37.5q25 23 47.5 49.5t39.5 52t27.5 47t10.5 35.5q0 22 -23 22q-33 0 -82.5 -65.5t-103.5 -183.5z" />
    <glyph glyph-name="afii10046" unicode="&#x42c;" horiz-adv-x="660" 
d="M542 580q-26 -15 -56 -51.5t-59 -86t-54 -106t-40.5 -111.5t-18.5 -103t11 -79q10 -21 24 -30t31 -9t35 8t35 22q36 27 65.5 70t50.5 88.5t31.5 87t8.5 66.5q-5 24 -17 39t-29 15q-23 0 -47.5 -16.5t-45.5 -47.5q-22 -31 -32 -67t-8 -66q4 -45 38 -45q16 0 24 10l3 2
q2 2 4 2q6 0 6 -4q0 -2 -3 -6q-8 -7 -15 -11t-18 -4q-21 0 -34.5 15.5t-16.5 42.5q-3 34 10.5 74t39.5 75q21 26 46 41.5t50 15.5q19 0 37.5 -8.5t33 -23t24 -32.5t11.5 -36q4 -49 -19 -105.5t-65 -104.5t-98 -79.5t-118 -31.5q-45 7 -73.5 27.5t-43.5 49.5t-16.5 65t7.5 74
q14 55 44 112t69.5 108t85.5 93t94 68q-24 15 -48.5 23t-51.5 8q-47 0 -95 -22.5t-88.5 -59t-67.5 -82.5t-31 -93q-2 -33 9 -51t32 -18q16 0 34.5 12.5t34 31.5t26 42.5t12.5 45.5q3 38 -18 38q-11 0 -20 -11l-1 -3q-2 -3 -5 -3q-2 0 -2 4q1 8 9 14.5t18 6.5
q14 0 22.5 -12.5t6.5 -35.5q-2 -26 -17.5 -55.5t-38.5 -52.5q-37 -34 -68 -34q-6 0 -12 1.5t-11 3.5q-37 11 -55.5 40.5t-14.5 76.5q5 50 36 93.5t76 75.5t98.5 50.5t104.5 18.5q36 0 70 -13.5t66 -35.5q6 4 17.5 9.5t22.5 9t20.5 4t12.5 -6.5q4 -8 -5 -14t-22.5 -9.5
t-27.5 -4.5t-20 1z" />
    <glyph glyph-name="afii10047" unicode="&#x42d;" horiz-adv-x="574" 
d="M215 -6q-34 2 -64.5 16.5t-52 39.5t-31 60.5t-1.5 79.5q6 28 22 45.5t36 26.5t41.5 11.5t36.5 -0.5q9 -2 18.5 -10t17 -20t12 -26.5t2.5 -29.5q-2 -11 -8.5 -20t-10.5 -8q-1 0 -2.5 0.5t-0.5 2.5q0 2 2 4l2 4q2 3 2.5 8t1.5 11q3 24 -10.5 42.5t-27.5 20.5
q-27 3 -46.5 -14t-30 -43.5t-11 -59t10 -61t32 -47.5t55.5 -20q29 -4 58 8.5t56 36.5t52 56.5t47 68t39 71.5q6 12 11 23q-35 7 -72 10q-41 4 -69 -4q-29 -3 -48 -15t-16 -27v-3q-1 -4 -2 -4h-1l1 1q-1 3 -1 4q-1 6 3 15.5t9 17.5q14 22 31.5 38t33.5 21q23 2 37.5 -3.5
t37.5 -13.5q16 -5 33 -15q15 -9 27 -14q9 19 16 36q18 45 33 98.5t19.5 102.5t-4.5 85.5t-38 48.5q-31 8 -60 -1t-54.5 -29.5t-46.5 -50t-36 -62.5t-23.5 -67.5t-8.5 -64.5q0 -36 29 -36q14 0 31 9.5t31.5 25t24.5 35t10 39.5q0 12 -10 22.5t-10 15.5t4 5q10 0 18.5 -14
t8.5 -30q0 -20 -10 -41.5t-26 -38.5t-36 -28t-39 -11q-7 0 -22.5 1t-19.5 3q1 -1 -2 0l-1 1q-23 17 -33 37t-10 52q0 46 22 92.5t61 82t93.5 54t119.5 8.5l-1 -1q29 -4 47 -26t28 -54.5t12.5 -71.5t0 -78t-9 -74t-14.5 -59q-22 -68 -59.5 -123t-85 -94t-102 -61t-109.5 -23z
" />
    <glyph glyph-name="afii10048" unicode="&#x42e;" horiz-adv-x="1110" 
d="M454 306l50 -1q2 2 2.5 4.5t2.5 4.5q27 54 48 92t42.5 65.5t47.5 48.5t64 42q-68 48 -141 48q-51 0 -101 -21t-95 -59q-30 -26 -54 -57t-41 -64t-26.5 -67t-9.5 -65q0 -38 16 -61.5t42 -23.5q24 0 51 21.5t49 59.5q29 50 29 94q0 22 -7 34.5t-20 12.5t-22 -16l-2 -3
q-3 -4 -5 -4q-5 0 -5 5q0 10 11 19t22 9q17 0 28 -15.5t11 -41.5q0 -33 -13.5 -67t-34.5 -61t-47.5 -44t-52.5 -17h-10l5 -2q-55 10 -86 51t-31 105q0 71 31 127t82 94.5t115.5 59t132.5 20.5q100 0 188 -67q17 15 28 18.5t16 1.5t2.5 -6.5t-9.5 -9.5t-17 -9.5t-20 -4.5
q-24 -9 -42.5 -31t-34.5 -53.5t-31 -71.5t-32 -85l-4 -10l71 -1q-1 9 -1.5 18t-0.5 19q0 60 34 113.5t86 94t114.5 64t120.5 22.5q40 -1 69.5 -18.5t49 -47t30 -69t12.5 -83.5q1 -35 -12 -80.5t-37 -93.5t-58 -93.5t-75 -81.5t-88 -58t-97 -22q-26 0 -47.5 11.5t-37 30.5
t-24 43.5t-8.5 50.5q1 36 14 83q-33 28 -42 85h-78l-16 -47q-20 -65 -45.5 -112.5t-61 -79t-83.5 -47t-114 -15.5q-22 0 -42 7t-35 18.5t-24 27t-9 32.5q0 24 16 34q3 3 4 3q5 0 5 -6q0 -3 -4 -6q-11 -11 -11 -25q0 -30 27 -50.5t64 -20.5q105 0 215 206l12 24q6 13 13 26
q5 10 8 16.5t7 14.5h-51zM998 535q17 2 33 -10.5t16 -24.5q0 -4 -5 -4q-3 0 -5 5q-14 23 -34 23q-32 0 -78 -50.5t-90 -137.5q-14 -27 -29 -63t-27 -74q19 6 41 20q14 8 26 19t22 22q23 25 36.5 53t13.5 49q0 15 -8 25l-4.5 4.5t-0.5 2.5q0 4 5 4q6 0 12 -12t6 -25
q0 -23 -14 -54.5t-37 -56.5q-26 -28 -52.5 -44t-50.5 -21q-7 -22 -12 -44q-7 -23 -11 -48t-4 -41q0 -54 47 -54q90 0 191 191q26 49 47 96t35.5 89t22 77t7.5 61q0 31 -10.5 53.5t-26 36.5t-32 19.5t-28.5 3.5q-35 3 -70.5 -10.5t-69.5 -38t-64 -57.5t-54 -69.5t-40 -74.5
t-20 -71h47q21 42 49.5 81.5t63 71t74 52.5t82.5 26zM723 293l-42 -1q-3 -41 15 -68q5 17 12 34.5t15 34.5z" />
    <glyph glyph-name="afii10049" unicode="&#x42f;" horiz-adv-x="934" 
d="M120 92q11 -42 36.5 -61.5t56.5 -19.5q8 0 15 1t16 4q25 8 48.5 32t48 56t51.5 67t59.5 64.5t72 49t88.5 20.5h13q-28 4 -52 18t-42 34t-29 44.5t-12 49.5q-3 31 11 58q19 40 51.5 69.5t73 49t87 29t94.5 9.5q48 -2 85.5 -17.5t64 -39t40.5 -52t16 -55.5
q2 -28 -9.5 -57.5t-33 -54.5t-53.5 -43q-30 -17 -68 -20q3 1 6 4l-8 -2q-18 0 -28.5 15t-12.5 32q-1 16 6 36.5t19 38.5t29 30.5t36 12.5q15 0 18 -13q0 -3 -0.5 -6.5t-3.5 -3.5h-2q-1 0 -1 2l1 2l-1 2q-5 6 -14 6q-14 0 -28 -10t-24.5 -26t-17 -34.5t-5.5 -35.5
q3 -36 30 -36q18 0 36.5 17.5t32.5 43.5t22 57.5t6 58.5q-4 57 -40.5 95t-94.5 42q-37 0 -81.5 -19t-82 -53.5t-62 -81.5t-20.5 -103q2 -32 28 -60q23 -24 60 -32q56 111 106 165q54 60 104 62q-11 -2 -21 -10q-12 -10 -27.5 -35.5t-36 -71t-48.5 -115.5l-25 -64
q-9 -25 -20.5 -57t-21.5 -61.5t-16 -52.5t-6 -29q1 -12 11 -18t22 -6q22 0 38 18t36 66l41 96l4 12q2 4 7 4t5 -5l-4 -12q-3 -6 -4 -9.5t-4.5 -12.5t-10.5 -26.5t-21 -50.5q-22 -51 -41 -72t-45 -21q-20 0 -34 10.5t-23.5 27t-14.5 36.5t-6 39q-2 28 8.5 67.5t33.5 96.5
q6 12 11 24q-28 -1 -54 -16q-26 -16 -51 -42t-49.5 -58.5t-50.5 -65.5q-20 -25 -43 -47.5t-49 -39.5t-54.5 -27t-59.5 -10q-40 0 -68 15t-46 40t-27 55.5t-11 62.5q-3 52 15 100.5t51.5 86.5t80 61t99.5 23q38 0 62 -23.5t26 -61.5q0 -5 0.5 -9t-1.5 -11q-5 -44 -20.5 -79.5
t-38.5 -60.5t-50.5 -38t-56.5 -13q-27 0 -45.5 13t-22.5 34q-1 12 5 22.5t15 10.5q6 0 6 -6q0 -1 -2 -3l-2 -2q-12 -8 -10 -19q1 -17 15.5 -28t40.5 -11q25 0 50 13t45.5 36t35 53.5t19.5 65.5l2 12q2 13 3 18.5t0 14.5q-5 27 -25 43.5t-48 16.5q-25 0 -51.5 -16t-51 -42
t-46 -60t-37 -70t-24 -71t-6.5 -64z" />
    <glyph glyph-name="afii10065" unicode="&#x430;" horiz-adv-x="347" 
d="M261 143q-11 -22 -21 -45.5t-16 -40.5q-8 -24 -8 -30q0 -14 12 -14q19 0 54 50q5 8 10 17t12.5 23t18 34t25.5 50q1 7 6 7q6 0 6 -6q0 -2 -3 -6l-4.5 -9l-9.5 -19q-2 -5 -4.5 -9.5t-4.5 -9.5q-37 -75 -62.5 -105.5t-51.5 -30.5q-14 0 -23 9t-14.5 22.5t-8 28.5t-2.5 27
q0 8 1 18t4 21v2l-5 -10q-32 -64 -56.5 -90.5t-50.5 -26.5q-21 0 -33 12q-20 12 -30.5 37.5t-10.5 61.5q0 46 18.5 94t47.5 87t64 64t69 25q4 0 6 -1q10 2 15 2q44 0 44 -54v-10l30 64h87zM244 326q0 16 -7.5 26.5t-19.5 10.5q-22 -1 -52.5 -38t-64.5 -106
q-55 -107 -55 -163q0 -18 8 -28.5t21 -10.5q26 0 67 66q20 35 42 79t39 84q22 51 22 80z" />
    <glyph glyph-name="afii10066" unicode="&#x431;" horiz-adv-x="312" 
d="M288 357q-5 45 -10 85.5t-5 74t7 58.5t25 39q28 21 59 24.5t63 0.5t64.5 -7t62.5 2t58 29t51 74l7 15q1 1 1 1.5t2 1.5q0 1 1 1q4 1 4 -4q-3 -14 -11.5 -40t-24 -54t-40 -53t-60.5 -35q-25 -7 -52 0t-54.5 18t-54 19.5t-49.5 4.5q-22 -4 -32 -23.5t-12.5 -48t0.5 -63
t7 -68t6.5 -62.5t-0.5 -46v2q-1 -17 -8 -40.5t-18.5 -49.5t-26 -53.5t-30.5 -52.5l-8 -12q1 -1 8 -1q48 0 94 94q3 7 7 7q5 0 5 -6q-1 -1 -1 -2t-0.5 -1.5t-0.5 -2.5l-4 -8q-48 -93 -100 -93l-15 2l-2 -2q-32 -42 -61 -62t-61 -20q-30 0 -46 18q-45 25 -45 99q0 42 19 86
t49.5 81t69.5 63t78 33q7 1 13.5 1.5t11.5 0.5q20 0 35 -7.5t24 -17.5zM290 300q1 1 1 10q0 28 -11.5 44t-31.5 16q-35 0 -83 -60.5t-97 -190.5q-9 -23 -12.5 -37t-3.5 -25q0 -20 9.5 -31.5t24.5 -11.5q24 0 52.5 20.5t54.5 55.5v8q-10 10 -10 32q0 20 8.5 46t23.5 50
t34 42.5t40 23.5q1 1 1 8z" />
    <glyph glyph-name="afii10067" unicode="&#x432;" horiz-adv-x="326" 
d="M250 137q-74 -138 -148 -138q-31 0 -44 22q-32 26 -32 88q0 28 6.5 58.5t20.5 59.5l14 30l1 2l-2 -1q-39 -30 -58 -67l-5 -10q-3 -4 -6 -4q-5 0 -5 5q0 3 5.5 13.5t12.5 20.5q24 34 61 59l4 3q1 0 1 0.5t2 0.5l1 3q33 66 70.5 126.5t77 107t79.5 74.5t78 28
q18 0 29 -14.5t11 -38.5q0 -56 -49 -105q-30 -31 -77.5 -65.5t-105.5 -67.5l-6 -4l-4 -10q-5 -9 -12 -23.5t-14.5 -31t-15 -33.5t-13.5 -32q-23 -54 -33 -86.5t-10 -55.5q0 -35 28 -35q17 0 39.5 14.5t39.5 36.5q11 15 26 37t27 45q-17 20 -17 66q0 26 10 58.5t27 58.5
q13 20 26 31.5t24 11.5q3 0 5 -0.5t6 -2.5l-2 -2q7 -8 7 -23q0 -20 -6 -42t-21 -60q-9 -23 -23 -51.5t-25 -46.5q9 -3 14 -3q35 0 55 41q3 6 4.5 7.5t3.5 1.5q5 0 5 -5q0 -3 -3 -9.5t-8 -13.5q-21 -33 -56 -33q-13 0 -20 4zM196 345q32 20 60.5 45t57.5 60q16 19 31 39.5
t26 40t17.5 36t6.5 25.5q0 15 -13 15q-25 0 -72 -62q-14 -19 -26.5 -38t-25.5 -41.5t-27 -50t-31 -63.5zM246 153q-1 0 -1 2v-5q0 2 1 3z" />
    <glyph glyph-name="afii10068" unicode="&#x433;" horiz-adv-x="252" 
d="M119 360q22 21 41 22.5t33.5 -9.5t22 -32.5t7.5 -46.5q0 -24 -11.5 -53.5t-31.5 -64.5l-33 -59q-14 -25 -20 -47.5t-5 -24.5q0 -14 11 -14q20 0 49.5 39t60.5 108q5 11 6 13.5t4 2.5q6 0 6 -6q1 -2 0 -4.5t-5 -11.5q-37 -84 -74 -125.5t-69 -41.5q-10 2 -14 3q2 -2 4 -2
l-8 1q-17 2 -31 20t-17 41q-4 29 4.5 56t23.5 52.5t33 49t34 45.5t26.5 42.5t9.5 39.5q-1 9 -2.5 12t-9.5 4q-16 2 -39 -19t-45.5 -49.5t-40.5 -58t-23 -43.5l-1 -5q0 -5 -4 -5q-6 0 -6 6q0 9 11.5 31.5t28.5 48.5t37 50t37 35z" />
    <glyph glyph-name="afii10069" unicode="&#x434;" horiz-adv-x="328" 
d="M218 382q43 0 43 -56v-8l30 64h85l-152 -315q69 51 102 118q3 6 4 7.5t4 1.5q5 0 5 -6q0 -1 -3 -8l-4 -7q-17 -33 -43.5 -63.5t-58.5 -53.5l-15 -10l-2 -2l-44 -90q-13 -27 -20.5 -42.5t-13 -25.5t-9 -16.5t-8.5 -15.5q-35 -54 -73.5 -91.5t-76.5 -52.5l5 5
q-35 -30 -68 -30q-26 0 -41 18t-15 48q0 118 224 228l30 14q1 0 9 5l18 38q-30 -36 -59 -36q-16 0 -27 8q-25 8 -39 35t-14 69q0 46 20.5 94t52.5 87.5t72.5 64t81.5 24.5zM250 327q0 16 -7.5 26t-19.5 10q-20 0 -51.5 -38.5t-65.5 -105.5q-54 -107 -54 -164
q0 -17 7.5 -27.5t21.5 -10.5q20 0 47.5 37t68.5 123q15 32 27 59t18 47q8 24 8 44zM104 -19q-41 -23 -81.5 -57.5t-72.5 -71.5t-52 -71.5t-20 -57.5q0 -26 23 -26q34 0 82 66q28 37 58 90.5t54 107.5z" />
    <glyph glyph-name="afii10070" unicode="&#x435;" horiz-adv-x="264" 
d="M219 382q25 0 42 -20t17 -50q0 -33 -18.5 -68t-48 -64.5t-67.5 -49.5t-77 -24q-3 -10 -4.5 -17.5t-1.5 -16.5q0 -27 11.5 -42t32.5 -15q42 0 84 43t75 121q5 10 6.5 12.5t4.5 2.5q5 0 5 -6v-1l-1 -3l-1 -2q-16 -41 -37 -74.5t-44 -57.5t-47.5 -37.5t-47.5 -13.5
q-32 0 -53 15q-58 25 -58 108q0 46 20.5 93.5t59.5 92.5q31 35 70.5 57t77.5 17zM70 119q41 4 86 58q20 23 40.5 54.5t32.5 56.5q18 36 18 55q0 25 -22 25q-17 0 -40 -26t-49 -75q-26 -46 -41.5 -82t-24.5 -66z" />
    <glyph glyph-name="afii10072" unicode="&#x436;" horiz-adv-x="681" 
d="M237 365q22 -16 34 -43.5t12 -61.5v-9.5t-1 -9.5q14 22 29.5 44t29.5 39l15 18q10 12 18.5 23t10.5 16h88l-154 -328l12 15q9 11 21 29.5t25 38t24.5 37t17.5 26.5q14 36 36 70.5t50 59.5q19 18 34 28.5t30 16.5t30 8t34 2q26 0 42.5 -21t16.5 -54q0 -20 -6.5 -39.5
t-17.5 -34.5t-25 -24.5t-28 -9.5h-10l-1 1q-12 9 -12 30q0 15 6.5 31.5t16 29.5t21.5 21.5t24 8.5l1 -1q1 4 1 8v8q0 15 -6 24t-16 9q-28 0 -71 -64q-22 -33 -42 -72t-34 -78q-11 -29 -15.5 -48.5t-4.5 -39.5q0 -54 42 -54q84 0 156 163q5 13 7 15.5t4 2.5q6 0 6 -5
q0 -2 -1 -5t-6 -13q-42 -92 -82 -132t-90 -40q-36 0 -59 20q-22 16 -34 43.5t-12 61.5q0 13 3 28q-14 -23 -33 -50t-35 -46l-15 -18q-10 -12 -18.5 -23t-10.5 -16h-88q34 75 57 124t39.5 83.5t29.5 61.5t28 59l-12 -15q-8 -9 -17.5 -23.5t-20 -31t-21 -32.5t-18.5 -28
q-12 -38 -36.5 -77t-53.5 -65q-19 -18 -34 -28.5t-30 -16.5t-30 -8t-34 -2q-26 0 -42.5 21t-16.5 54q0 20 6.5 39.5t17.5 34.5t25 24.5t28 9.5h10l1 -1q12 -9 12 -30q0 -15 -6.5 -31.5t-16 -29.5t-21.5 -21.5t-24 -8.5l-1 1q-1 -4 -1 -8v-8q0 -15 6 -24t16 -9q28 0 71 64
q22 33 42 72t34 78q11 29 15.5 48.5t4.5 39.5q0 54 -42 54q-84 0 -156 -163q-5 -13 -7 -15.5t-4 -2.5q-6 0 -6 5q0 2 1 5t6 13q42 92 82 132t90 40q37 0 60 -21z" />
    <glyph glyph-name="afii10073" unicode="&#x437;" horiz-adv-x="347" 
d="M173 13q-45 -20 -90 -55.5t-81 -75.5t-59 -79t-24 -65q-1 -14 4 -23t16 -11q29 -10 76 51q13 17 29.5 39t32.5 47t31.5 51.5t27.5 53.5q14 28 26 62t17.5 64t3 50.5t-18.5 20.5q-21 0 -29 -7q-8 -5 -17.5 -15t-20 -20.5t-20.5 -18t-18 -7.5q-11 0 -11 16q0 10 8 18.5
t18.5 15t21.5 11t17 7.5q35 27 67 47t59 39.5t49 41t36 53.5q-8 -12 -19 -22.5t-23 -19t-23.5 -13t-18.5 -4.5q-21 -1 -40.5 8t-37 20t-31.5 20.5t-24 9.5q-13 0 -26.5 -13.5t-26 -33.5t-24 -42.5t-20.5 -40.5l-2 -7q-2 -3 -4.5 -4.5t-3.5 -1.5q-4 0 -4 5q0 3 1 7l3 6
q11 22 20.5 39t20.5 37.5t22.5 39.5t22 34t17.5 21q10 14 33 22t38 8q9 0 15.5 -0.5t14.5 -5t19 -14t28 -27.5q27 -27 45 -27q12 0 24 15t14 35l1 9q2 8 5 8q5 0 5 -11q-2 -47 -19.5 -79t-45.5 -56.5t-63 -46t-73 -47.5l2 -2q4 2 9 4t16 2q12 0 26 -5t25.5 -15t19.5 -26.5
t9 -38.5q31 26 55 54t38 62q3 6 6 7.5t5 1.5q5 0 5 -6q0 -1 -3 -8l-3 -7q-15 -33 -44.5 -65.5t-58.5 -55.5q0 -3 -0.5 -10t-1.5 -16t-2.5 -18.5t-4.5 -16.5q-15 -41 -43 -91.5t-67 -95.5t-87.5 -78t-103.5 -38q-12 -1 -22 6t-16 19.5t-8.5 28.5t-0.5 33q3 33 25 66.5
t58.5 66t86.5 63t110 57.5v-7q0 -3 -0.5 -5.5t-0.5 -4.5z" />
    <glyph glyph-name="afii10074" unicode="&#x438;" horiz-adv-x="376" 
d="M291 143q-8 -17 -16 -34.5t-14 -33.5t-10 -28.5t-4 -19.5q0 -14 12 -14q16 0 37 26.5t57 97.5l25 50q3 7 7 7q5 0 5 -6q0 -2 -2 -6l-14 -28q-37 -86 -67.5 -120.5t-55.5 -34.5q-14 0 -23 9t-15 22.5t-8.5 28t-2.5 26.5q0 10 2 23t4 24v-1q-38 -70 -67.5 -101t-58.5 -31
q-30 0 -45 26t-15 61q0 31 20 85t49 117l20 42l-12 -15q-11 -13 -26 -36.5t-30 -46l-26 -39t-12 -16.5q-5 0 -5 5t9 22t22.5 38.5t29.5 43.5t30 39l15 18q10 12 18.5 23t10.5 16h87l-111 -239q-16 -36 -29.5 -68.5t-13.5 -42.5q0 -18 18 -18q15 0 32 14.5t34.5 38.5t35 55
t33.5 64l94 196h88z" />
    <glyph glyph-name="afii10075" unicode="&#x439;" horiz-adv-x="376" 
d="M291 143q-8 -17 -16 -34.5t-14 -33.5t-10 -28.5t-4 -19.5q0 -14 12 -14q16 0 37 26.5t57 97.5l25 50q3 7 7 7q5 0 5 -6q0 -2 -2 -6l-14 -28q-37 -86 -67.5 -120.5t-55.5 -34.5q-14 0 -23 9t-15 22.5t-8.5 28t-2.5 26.5q0 10 2 23t4 24v-1q-38 -70 -67.5 -101t-58.5 -31
q-30 0 -45 26t-15 61q0 31 20 85t49 117l20 42l-12 -15q-11 -13 -26 -36.5t-30 -46l-26 -39t-12 -16.5q-5 0 -5 5t9 22t22.5 38.5t29.5 43.5t30 39l15 18q10 12 18.5 23t10.5 16h87l-111 -239q-16 -36 -29.5 -68.5t-13.5 -42.5q0 -18 18 -18q15 0 32 14.5t34.5 38.5t35 55
t33.5 64l94 196h88zM276 466q-20 9 -28.5 32.5t-5.5 48t16.5 44t36.5 21.5q21 2 24 -6.5t-3.5 -22.5t-17.5 -32t-18.5 -34t-7.5 -28.5t16 -16.5q16 -6 34 1t35 21.5t32 33t27 35t19.5 28t9.5 12.5q8 2 3 -10.5t-17.5 -31t-32 -40.5t-41 -37.5t-43 -22t-38.5 4.5z" />
    <glyph glyph-name="afii10076" unicode="&#x43a;" horiz-adv-x="354" 
d="M115 307q39 79 73 137.5t66 97t64 57.5t68 19q18 0 30 -14t12 -34q0 -51 -51 -104t-163 -107l-4 -2q-1 -1 -1 -3.5t-1 -2.5l-46 -104l4 7q72 106 112 117q12 3 17 3q24 0 41.5 -17t17.5 -41q0 -29 -16.5 -47t-40.5 -29t-51.5 -16t-49.5 -7q17 -7 25.5 -32t16 -50.5
t17.5 -43t29 -10.5q7 3 13.5 8.5t13 15.5t15 25t19.5 35l7 14q6 8 6 11.5t5 3.5q6 0 6 -6l-3 -6q0 -2 -3 -8q-5 -10 -13.5 -26.5t-17.5 -33t-17 -31t-12 -20.5q-15 -28 -38 -45.5t-44 -17.5q-24 0 -34 10t-12.5 26t1 37.5t7.5 43.5t6.5 44t-1.5 40q-6 12 -11 16t-5 6
q0 7 7 7h5q1 0 2 -0.5t3 -0.5q17 0 32 9.5t26 23.5t17.5 30.5t6.5 31.5t-10 15q-15 0 -39 -27.5t-51.5 -73t-57 -104.5t-55.5 -122l-5 -12h-83l64 137q8 18 17 36.5t17.5 36.5t16.5 34t13 27l7 15q-1 -1 -2 -1l-6 -5q-26 -18 -49 -44.5t-36 -52.5q-2 -6 -6 -6q-6 0 -6 5
q0 10 11.5 27t29 35t37 34.5t36.5 25.5zM226 378q20 12 34.5 22t26.5 20.5t23 23.5t23 30q13 17 24.5 35t20 34.5t13.5 29.5t5 20q0 14 -12 14q-18 0 -36.5 -16.5t-39 -45.5t-42 -69.5t-43.5 -89.5l-5 -12z" />
    <glyph glyph-name="afii10077" unicode="&#x43b;" horiz-adv-x="352" 
d="M363 384l-98 -239q-16 -34 -30 -68t-14 -48t12 -14q8 0 17 6t20 20.5t25 38t32 59.5l25 50q3 7 7 7q5 0 5 -6l-2 -6l-14 -28q-37 -86 -67.5 -120.5t-55.5 -34.5q-20 0 -32.5 19.5t-14.5 41.5q-2 28 3 56t14 55.5t19.5 54.5t19.5 53q-13 -19 -27 -46.5t-29.5 -58.5
t-32 -62t-33.5 -56t-34 -40.5t-35 -15.5q-29 6 -47.5 27t-18.5 63t20 74t55 41q21 3 33.5 -5.5t18 -21t5 -27t-6.5 -24.5q-11 -18 -25.5 -25t-28.5 -5.5t-25.5 9.5t-16.5 21q-10 -8 -13.5 -25t1 -35.5t17 -34t34.5 -19.5q17 1 36 23t39 56t40.5 75.5t39.5 82t36 76t31 56.5
h96z" />
    </font>
</defs>
</svg>
